<?xml version="1.0" encoding="UTF-8" standalone="no"?>
<!-- Created with Inkscape (http://www.inkscape.org/) -->

<svg
   version="1.1"
   id="svg2"
   width="831.49597"
   height="340.15732"
   viewBox="0 0 831.49597 340.15732"
   sodipodi:docname="hierarchical.pdf"
   xmlns:inkscape="http://www.inkscape.org/namespaces/inkscape"
   xmlns:sodipodi="http://sodipodi.sourceforge.net/DTD/sodipodi-0.dtd"
   xmlns="http://www.w3.org/2000/svg"
   xmlns:svg="http://www.w3.org/2000/svg">
  <defs
     id="defs6">
    <clipPath
       clipPathUnits="userSpaceOnUse"
       id="clipPath42">
      <path
         d="M 0,0 H 281.70416 V 172.14323 H 0 Z"
         id="path40" />
    </clipPath>
    <clipPath
       clipPathUnits="userSpaceOnUse"
       id="clipPath94">
      <path
         d="M 0,0 H 281.70416 V 172.14323 H 0 Z"
         id="path92" />
    </clipPath>
    <clipPath
       clipPathUnits="userSpaceOnUse"
       id="clipPath146">
      <path
         d="M 0,0 H 281.70416 V 172.14323 H 0 Z"
         id="path144" />
    </clipPath>
    <clipPath
       clipPathUnits="userSpaceOnUse"
       id="clipPath198">
      <path
         d="M 0,0 H 281.70416 V 172.14323 H 0 Z"
         id="path196" />
    </clipPath>
    <clipPath
       clipPathUnits="userSpaceOnUse"
       id="clipPath250">
      <path
         d="M 0,0 H 281.70416 V 172.14323 H 0 Z"
         id="path248" />
    </clipPath>
    <clipPath
       clipPathUnits="userSpaceOnUse"
       id="clipPath302">
      <path
         d="M 0,0 H 281.70416 V 172.14323 H 0 Z"
         id="path300" />
    </clipPath>
    <clipPath
       clipPathUnits="userSpaceOnUse"
       id="clipPath354">
      <path
         d="M 0,0 H 281.70416 V 172.14323 H 0 Z"
         id="path352" />
    </clipPath>
  </defs>
  <sodipodi:namedview
     id="namedview4"
     pagecolor="#ffffff"
     bordercolor="#666666"
     borderopacity="1.0"
     inkscape:showpageshadow="2"
     inkscape:pageopacity="0.0"
     inkscape:pagecheckerboard="0"
     inkscape:deskcolor="#d1d1d1" />
  <g
     id="g8"
     inkscape:groupmode="layer"
     inkscape:label="hierarchical"
     transform="matrix(1.3333333,0,0,-1.3333333,0,340.15733)">
    <g
       id="g10"
       transform="translate(311.811,127.559)">
      <g
         id="g12">
        <g
           id="g14">
          <g
             id="g16">
            <path
               d="M -311.8149,-127.56062 V 127.56062 H 311.8149 V -127.56062 Z"
               style="fill:#ffffff;fill-opacity:1;fill-rule:nonzero;stroke:none"
               id="path18" />
          </g>
          <g
             id="g20" />
          <g
             id="g22" />
          <g
             id="g24">
            <g
               id="g26"
               transform="matrix(0.98482,0.17365,-0.17365,0.98482,-169.932,-63.781)">
              <g
                 id="g28">
                <g
                   id="g30"
                   transform="scale(1.3)">
                  <g
                     id="g32"
                     transform="translate(3.321)">
                    <g
                       id="g34"
                       transform="scale(0.20125)">
                      <g
                         id="g36">
                        <g
                           id="g38" />
                        <g
                           id="g54">
                          <g
                             clip-path="url(#clipPath42)"
                             id="g52">
                            <g
                               transform="matrix(1,0,0,-1,0,172.14323)"
                               id="g50">
                              <g
                                 id="g48">
                                <g
                                   id="g46">
                                <path
                                   d="M 166.309,82.406 C 161.73,73.723 153.824,65.82 133.402,62.023 118.379,59.227 107.277,55.387 103.109,48.074 c -4.578,-8.031 -4.3,-11.398 -4.062,-18.715 0.18,-3.531 0.789,-9.058 1.976,-11.023 1.711,-2.832 2.848,-5.832 2.665,-9.094 -0.368,-4.531 -3.395,-8.121 -9.426,-8.015 -6.473,0.117 -10.137,2.461 -10.524,7.839 -0.476,6.68 1.578,7.379 3.043,12.954 0.996,3.488 0.907,8.71 0.196,13.988 -0.84,6.234 -0.309,8.586 -3.086,16.965 -3.461,10.445 -6.282,15.625 -28.493,16.984 -21.847,1.34 -22.929,1.996 -29.503,2.367 -5.473,0.313 -6.758,0.227 -9.602,-0.844 -3.172,-1.406 -4.508,-1.519 -8.281,-1.55 -4.446,0.144 -6.871,5.718 -6.785,9.937 0.093,4.379 2.128,10.18 6.664,10.594 4.226,0.383 6.191,-0.461 7.957,-1.957 1.976,-1.578 4.488,-1.668 6.75,-1.82 2.8,-0.184 5.933,-0.446 13.156,0.109 7.695,0.59 10.156,1.867 12.578,4.113 5.867,5.434 11.781,10.11 12.723,16.895 1.066,7.719 -3.055,15.941 -7.278,25.019 -3.082,6.621 -3.515,7.121 -6.277,9.254 -3.137,2.418 -5.164,3.012 -7.781,3.809 -3.172,0.949 -6.403,2.297 -8.27,6.281 -2.137,3.707 -1.375,7.863 1.172,11.484 3.227,4.594 10.688,4.75 14.715,1.758 3.066,-2.281 3.644,-5.105 5.234,-9.281 1.637,-4.484 5.352,-7.516 12.141,-11.301 6.875,-3.832 12.785,-7.304 19.656,-9.59 14.02,-4.691 18.852,-4.765 37.391,-4.683 14.777,0.066 19.98,1.101 32.937,0.445 16.442,-0.644 21.887,-4.25 36.551,-0.719 14.274,3.434 22.399,7.446 32.555,12.309 12.32,5.59 21.164,9.012 23.394,16.543 1.703,6.09 7.836,10.422 14.285,11.445 8.555,1.356 13.075,-1.301 16.559,-7.746 3.313,-6.121 3.117,-12.285 0.27,-16.691 -2.993,-4.633 -7.883,-7.266 -14.782,-7.77 -3.558,-0.262 -6.785,0.16 -11.207,-0.629 -4.632,-0.816 -13.617,-4.933 -25.328,-11.039 -7.926,-4.242 -13.117,-9.133 -31.906,-17.207 -19.418,-9.308 -22.313,-14.824 -28.777,-27.086 z"
                                   style="fill:#5a205a;fill-opacity:1;fill-rule:nonzero;stroke:#5a205a;stroke-width:2.45197;stroke-linecap:butt;stroke-linejoin:miter;stroke-miterlimit:4;stroke-dasharray:none;stroke-opacity:1"
                                   id="path44" />
                                </g>
                              </g>
                            </g>
                          </g>
                        </g>
                      </g>
                    </g>
                    <g
                       id="g56"
                       transform="translate(-3.321)" />
                  </g>
                </g>
              </g>
              <g
                 id="g58"
                 transform="translate(169.932,63.781)" />
            </g>
          </g>
          <g
             id="g60" />
          <g
             id="g62" />
          <g
             id="g64" />
          <g
             id="g66" />
          <g
             id="g68" />
          <g
             id="g70" />
          <g
             id="g72" />
          <g
             id="g74" />
          <g
             id="g76">
            <g
               id="g78"
               transform="matrix(0.98482,0.17365,-0.17365,0.98482,-169.932,15.589)">
              <g
                 id="g80">
                <g
                   id="g82"
                   transform="scale(1.3)">
                  <g
                     id="g84"
                     transform="translate(3.321)">
                    <g
                       id="g86"
                       transform="scale(0.20125)">
                      <g
                         id="g88">
                        <g
                           id="g90" />
                        <g
                           id="g106">
                          <g
                             clip-path="url(#clipPath94)"
                             id="g104">
                            <g
                               transform="matrix(1,0,0,-1,0,172.14323)"
                               id="g102">
                              <g
                                 id="g100">
                                <g
                                   id="g98">
                                <path
                                   d="M 166.309,82.406 C 161.73,73.723 153.824,65.82 133.402,62.023 118.379,59.227 107.277,55.387 103.109,48.074 c -4.578,-8.031 -4.3,-11.398 -4.062,-18.715 0.18,-3.531 0.789,-9.058 1.976,-11.023 1.711,-2.832 2.848,-5.832 2.665,-9.094 -0.368,-4.531 -3.395,-8.121 -9.426,-8.015 -6.473,0.117 -10.137,2.461 -10.524,7.839 -0.476,6.68 1.578,7.379 3.043,12.954 0.996,3.488 0.907,8.71 0.196,13.988 -0.84,6.234 -0.309,8.586 -3.086,16.965 -3.461,10.445 -6.282,15.625 -28.493,16.984 -21.847,1.34 -22.929,1.996 -29.503,2.367 -5.473,0.313 -6.758,0.227 -9.602,-0.844 -3.172,-1.406 -4.508,-1.519 -8.281,-1.55 -4.446,0.144 -6.871,5.718 -6.785,9.937 0.093,4.379 2.128,10.18 6.664,10.594 4.226,0.383 6.191,-0.461 7.957,-1.957 1.976,-1.578 4.488,-1.668 6.75,-1.82 2.8,-0.184 5.933,-0.446 13.156,0.109 7.695,0.59 10.156,1.867 12.578,4.113 5.867,5.434 11.781,10.11 12.723,16.895 1.066,7.719 -3.055,15.941 -7.278,25.019 -3.082,6.621 -3.515,7.121 -6.277,9.254 -3.137,2.418 -5.164,3.012 -7.781,3.809 -3.172,0.949 -6.403,2.297 -8.27,6.281 -2.137,3.707 -1.375,7.863 1.172,11.484 3.227,4.594 10.688,4.75 14.715,1.758 3.066,-2.281 3.644,-5.105 5.234,-9.281 1.637,-4.484 5.352,-7.516 12.141,-11.301 6.875,-3.832 12.785,-7.304 19.656,-9.59 14.02,-4.691 18.852,-4.765 37.391,-4.683 14.777,0.066 19.98,1.101 32.937,0.445 16.442,-0.644 21.887,-4.25 36.551,-0.719 14.274,3.434 22.399,7.446 32.555,12.309 12.32,5.59 21.164,9.012 23.394,16.543 1.703,6.09 7.836,10.422 14.285,11.445 8.555,1.356 13.075,-1.301 16.559,-7.746 3.313,-6.121 3.117,-12.285 0.27,-16.691 -2.993,-4.633 -7.883,-7.266 -14.782,-7.77 -3.558,-0.262 -6.785,0.16 -11.207,-0.629 -4.632,-0.816 -13.617,-4.933 -25.328,-11.039 -7.926,-4.242 -13.117,-9.133 -31.906,-17.207 -19.418,-9.308 -22.313,-14.824 -28.777,-27.086 z"
                                   style="fill:#5a205a;fill-opacity:1;fill-rule:nonzero;stroke:#5a205a;stroke-width:2.45197;stroke-linecap:butt;stroke-linejoin:miter;stroke-miterlimit:4;stroke-dasharray:none;stroke-opacity:1"
                                   id="path96" />
                                </g>
                              </g>
                            </g>
                          </g>
                        </g>
                      </g>
                    </g>
                    <g
                       id="g108"
                       transform="translate(-3.321)" />
                  </g>
                </g>
              </g>
              <g
                 id="g110"
                 transform="translate(169.932,-15.589)" />
            </g>
          </g>
          <g
             id="g112" />
          <g
             id="g114" />
          <g
             id="g116" />
          <g
             id="g118" />
          <g
             id="g120" />
          <g
             id="g122" />
          <g
             id="g124" />
          <g
             id="g126" />
          <g
             id="g128">
            <g
               id="g130"
               transform="matrix(0.98482,0.17365,-0.17365,0.98482,-35.286,-103.466)">
              <g
                 id="g132">
                <g
                   id="g134"
                   transform="scale(1.3)">
                  <g
                     id="g136"
                     transform="translate(3.321)">
                    <g
                       id="g138"
                       transform="scale(0.20125)">
                      <g
                         id="g140">
                        <g
                           id="g142" />
                        <g
                           id="g158">
                          <g
                             clip-path="url(#clipPath146)"
                             id="g156">
                            <g
                               transform="matrix(1,0,0,-1,0,172.14323)"
                               id="g154">
                              <g
                                 id="g152">
                                <g
                                   id="g150">
                                <path
                                   d="M 166.309,82.406 C 161.73,73.723 153.824,65.82 133.402,62.023 118.379,59.227 107.277,55.387 103.109,48.074 c -4.578,-8.031 -4.3,-11.398 -4.062,-18.715 0.18,-3.531 0.789,-9.058 1.976,-11.023 1.711,-2.832 2.848,-5.832 2.665,-9.094 -0.368,-4.531 -3.395,-8.121 -9.426,-8.015 -6.473,0.117 -10.137,2.461 -10.524,7.839 -0.476,6.68 1.578,7.379 3.043,12.954 0.996,3.488 0.907,8.71 0.196,13.988 -0.84,6.234 -0.309,8.586 -3.086,16.965 -3.461,10.445 -6.282,15.625 -28.493,16.984 -21.847,1.34 -22.929,1.996 -29.503,2.367 -5.473,0.313 -6.758,0.227 -9.602,-0.844 -3.172,-1.406 -4.508,-1.519 -8.281,-1.55 -4.446,0.144 -6.871,5.718 -6.785,9.937 0.093,4.379 2.128,10.18 6.664,10.594 4.226,0.383 6.191,-0.461 7.957,-1.957 1.976,-1.578 4.488,-1.668 6.75,-1.82 2.8,-0.184 5.933,-0.446 13.156,0.109 7.695,0.59 10.156,1.867 12.578,4.113 5.867,5.434 11.781,10.11 12.723,16.895 1.066,7.719 -3.055,15.941 -7.278,25.019 -3.082,6.621 -3.515,7.121 -6.277,9.254 -3.137,2.418 -5.164,3.012 -7.781,3.809 -3.172,0.949 -6.403,2.297 -8.27,6.281 -2.137,3.707 -1.375,7.863 1.172,11.484 3.227,4.594 10.688,4.75 14.715,1.758 3.066,-2.281 3.644,-5.105 5.234,-9.281 1.637,-4.484 5.352,-7.516 12.141,-11.301 6.875,-3.832 12.785,-7.304 19.656,-9.59 14.02,-4.691 18.852,-4.765 37.391,-4.683 14.777,0.066 19.98,1.101 32.937,0.445 16.442,-0.644 21.887,-4.25 36.551,-0.719 14.274,3.434 22.399,7.446 32.555,12.309 12.32,5.59 21.164,9.012 23.394,16.543 1.703,6.09 7.836,10.422 14.285,11.445 8.555,1.356 13.075,-1.301 16.559,-7.746 3.313,-6.121 3.117,-12.285 0.27,-16.691 -2.993,-4.633 -7.883,-7.266 -14.782,-7.77 -3.558,-0.262 -6.785,0.16 -11.207,-0.629 -4.632,-0.816 -13.617,-4.933 -25.328,-11.039 -7.926,-4.242 -13.117,-9.133 -31.906,-17.207 -19.418,-9.308 -22.313,-14.824 -28.777,-27.086 z"
                                   style="fill:#5a205a;fill-opacity:1;fill-rule:nonzero;stroke:#5a205a;stroke-width:2.45197;stroke-linecap:butt;stroke-linejoin:miter;stroke-miterlimit:4;stroke-dasharray:none;stroke-opacity:1"
                                   id="path148" />
                                </g>
                              </g>
                            </g>
                          </g>
                        </g>
                      </g>
                    </g>
                    <g
                       id="g160"
                       transform="translate(-3.321)" />
                  </g>
                </g>
              </g>
              <g
                 id="g162"
                 transform="translate(35.286,103.466)" />
            </g>
          </g>
          <g
             id="g164" />
          <g
             id="g166" />
          <g
             id="g168" />
          <g
             id="g170" />
          <g
             id="g172" />
          <g
             id="g174" />
          <g
             id="g176" />
          <g
             id="g178" />
          <g
             id="g180">
            <g
               id="g182"
               transform="matrix(0.98482,0.17365,-0.17365,0.98482,-35.286,-24.096)">
              <g
                 id="g184">
                <g
                   id="g186"
                   transform="scale(1.3)">
                  <g
                     id="g188"
                     transform="translate(3.321)">
                    <g
                       id="g190"
                       transform="scale(0.20125)">
                      <g
                         id="g192">
                        <g
                           id="g194" />
                        <g
                           id="g210">
                          <g
                             clip-path="url(#clipPath198)"
                             id="g208">
                            <g
                               transform="matrix(1,0,0,-1,0,172.14323)"
                               id="g206">
                              <g
                                 id="g204">
                                <g
                                   id="g202">
                                <path
                                   d="M 166.309,82.406 C 161.73,73.723 153.824,65.82 133.402,62.023 118.379,59.227 107.277,55.387 103.109,48.074 c -4.578,-8.031 -4.3,-11.398 -4.062,-18.715 0.18,-3.531 0.789,-9.058 1.976,-11.023 1.711,-2.832 2.848,-5.832 2.665,-9.094 -0.368,-4.531 -3.395,-8.121 -9.426,-8.015 -6.473,0.117 -10.137,2.461 -10.524,7.839 -0.476,6.68 1.578,7.379 3.043,12.954 0.996,3.488 0.907,8.71 0.196,13.988 -0.84,6.234 -0.309,8.586 -3.086,16.965 -3.461,10.445 -6.282,15.625 -28.493,16.984 -21.847,1.34 -22.929,1.996 -29.503,2.367 -5.473,0.313 -6.758,0.227 -9.602,-0.844 -3.172,-1.406 -4.508,-1.519 -8.281,-1.55 -4.446,0.144 -6.871,5.718 -6.785,9.937 0.093,4.379 2.128,10.18 6.664,10.594 4.226,0.383 6.191,-0.461 7.957,-1.957 1.976,-1.578 4.488,-1.668 6.75,-1.82 2.8,-0.184 5.933,-0.446 13.156,0.109 7.695,0.59 10.156,1.867 12.578,4.113 5.867,5.434 11.781,10.11 12.723,16.895 1.066,7.719 -3.055,15.941 -7.278,25.019 -3.082,6.621 -3.515,7.121 -6.277,9.254 -3.137,2.418 -5.164,3.012 -7.781,3.809 -3.172,0.949 -6.403,2.297 -8.27,6.281 -2.137,3.707 -1.375,7.863 1.172,11.484 3.227,4.594 10.688,4.75 14.715,1.758 3.066,-2.281 3.644,-5.105 5.234,-9.281 1.637,-4.484 5.352,-7.516 12.141,-11.301 6.875,-3.832 12.785,-7.304 19.656,-9.59 14.02,-4.691 18.852,-4.765 37.391,-4.683 14.777,0.066 19.98,1.101 32.937,0.445 16.442,-0.644 21.887,-4.25 36.551,-0.719 14.274,3.434 22.399,7.446 32.555,12.309 12.32,5.59 21.164,9.012 23.394,16.543 1.703,6.09 7.836,10.422 14.285,11.445 8.555,1.356 13.075,-1.301 16.559,-7.746 3.313,-6.121 3.117,-12.285 0.27,-16.691 -2.993,-4.633 -7.883,-7.266 -14.782,-7.77 -3.558,-0.262 -6.785,0.16 -11.207,-0.629 -4.632,-0.816 -13.617,-4.933 -25.328,-11.039 -7.926,-4.242 -13.117,-9.133 -31.906,-17.207 -19.418,-9.308 -22.313,-14.824 -28.777,-27.086 z"
                                   style="fill:#5a205a;fill-opacity:1;fill-rule:nonzero;stroke:#5a205a;stroke-width:2.45197;stroke-linecap:butt;stroke-linejoin:miter;stroke-miterlimit:4;stroke-dasharray:none;stroke-opacity:1"
                                   id="path200" />
                                </g>
                              </g>
                            </g>
                          </g>
                        </g>
                      </g>
                    </g>
                    <g
                       id="g212"
                       transform="translate(-3.321)" />
                  </g>
                </g>
              </g>
              <g
                 id="g214"
                 transform="translate(35.286,24.096)" />
            </g>
          </g>
          <g
             id="g216" />
          <g
             id="g218" />
          <g
             id="g220" />
          <g
             id="g222" />
          <g
             id="g224" />
          <g
             id="g226" />
          <g
             id="g228" />
          <g
             id="g230" />
          <g
             id="g232">
            <g
               id="g234"
               transform="matrix(0.98482,0.17365,-0.17365,0.98482,-35.286,55.274)">
              <g
                 id="g236">
                <g
                   id="g238"
                   transform="scale(1.3)">
                  <g
                     id="g240"
                     transform="translate(3.321)">
                    <g
                       id="g242"
                       transform="scale(0.20125)">
                      <g
                         id="g244">
                        <g
                           id="g246" />
                        <g
                           id="g262">
                          <g
                             clip-path="url(#clipPath250)"
                             id="g260">
                            <g
                               transform="matrix(1,0,0,-1,0,172.14323)"
                               id="g258">
                              <g
                                 id="g256">
                                <g
                                   id="g254">
                                <path
                                   d="M 166.309,82.406 C 161.73,73.723 153.824,65.82 133.402,62.023 118.379,59.227 107.277,55.387 103.109,48.074 c -4.578,-8.031 -4.3,-11.398 -4.062,-18.715 0.18,-3.531 0.789,-9.058 1.976,-11.023 1.711,-2.832 2.848,-5.832 2.665,-9.094 -0.368,-4.531 -3.395,-8.121 -9.426,-8.015 -6.473,0.117 -10.137,2.461 -10.524,7.839 -0.476,6.68 1.578,7.379 3.043,12.954 0.996,3.488 0.907,8.71 0.196,13.988 -0.84,6.234 -0.309,8.586 -3.086,16.965 -3.461,10.445 -6.282,15.625 -28.493,16.984 -21.847,1.34 -22.929,1.996 -29.503,2.367 -5.473,0.313 -6.758,0.227 -9.602,-0.844 -3.172,-1.406 -4.508,-1.519 -8.281,-1.55 -4.446,0.144 -6.871,5.718 -6.785,9.937 0.093,4.379 2.128,10.18 6.664,10.594 4.226,0.383 6.191,-0.461 7.957,-1.957 1.976,-1.578 4.488,-1.668 6.75,-1.82 2.8,-0.184 5.933,-0.446 13.156,0.109 7.695,0.59 10.156,1.867 12.578,4.113 5.867,5.434 11.781,10.11 12.723,16.895 1.066,7.719 -3.055,15.941 -7.278,25.019 -3.082,6.621 -3.515,7.121 -6.277,9.254 -3.137,2.418 -5.164,3.012 -7.781,3.809 -3.172,0.949 -6.403,2.297 -8.27,6.281 -2.137,3.707 -1.375,7.863 1.172,11.484 3.227,4.594 10.688,4.75 14.715,1.758 3.066,-2.281 3.644,-5.105 5.234,-9.281 1.637,-4.484 5.352,-7.516 12.141,-11.301 6.875,-3.832 12.785,-7.304 19.656,-9.59 14.02,-4.691 18.852,-4.765 37.391,-4.683 14.777,0.066 19.98,1.101 32.937,0.445 16.442,-0.644 21.887,-4.25 36.551,-0.719 14.274,3.434 22.399,7.446 32.555,12.309 12.32,5.59 21.164,9.012 23.394,16.543 1.703,6.09 7.836,10.422 14.285,11.445 8.555,1.356 13.075,-1.301 16.559,-7.746 3.313,-6.121 3.117,-12.285 0.27,-16.691 -2.993,-4.633 -7.883,-7.266 -14.782,-7.77 -3.558,-0.262 -6.785,0.16 -11.207,-0.629 -4.632,-0.816 -13.617,-4.933 -25.328,-11.039 -7.926,-4.242 -13.117,-9.133 -31.906,-17.207 -19.418,-9.308 -22.313,-14.824 -28.777,-27.086 z"
                                   style="fill:#5a205a;fill-opacity:1;fill-rule:nonzero;stroke:#5a205a;stroke-width:2.45197;stroke-linecap:butt;stroke-linejoin:miter;stroke-miterlimit:4;stroke-dasharray:none;stroke-opacity:1"
                                   id="path252" />
                                </g>
                              </g>
                            </g>
                          </g>
                        </g>
                      </g>
                    </g>
                    <g
                       id="g264"
                       transform="translate(-3.321)" />
                  </g>
                </g>
              </g>
              <g
                 id="g266"
                 transform="translate(35.286,-55.274)" />
            </g>
          </g>
          <g
             id="g268" />
          <g
             id="g270" />
          <g
             id="g272" />
          <g
             id="g274" />
          <g
             id="g276" />
          <g
             id="g278" />
          <g
             id="g280" />
          <g
             id="g282" />
          <g
             id="g284">
            <g
               id="g286"
               transform="matrix(0.98482,0.17365,-0.17365,0.98482,99.359,-63.781)">
              <g
                 id="g288">
                <g
                   id="g290"
                   transform="scale(1.3)">
                  <g
                     id="g292"
                     transform="translate(3.321)">
                    <g
                       id="g294"
                       transform="scale(0.20125)">
                      <g
                         id="g296">
                        <g
                           id="g298" />
                        <g
                           id="g314">
                          <g
                             clip-path="url(#clipPath302)"
                             id="g312">
                            <g
                               transform="matrix(1,0,0,-1,0,172.14323)"
                               id="g310">
                              <g
                                 id="g308">
                                <g
                                   id="g306">
                                <path
                                   d="M 166.309,82.406 C 161.73,73.723 153.824,65.82 133.402,62.023 118.379,59.227 107.277,55.387 103.109,48.074 c -4.578,-8.031 -4.3,-11.398 -4.062,-18.715 0.18,-3.531 0.789,-9.058 1.976,-11.023 1.711,-2.832 2.848,-5.832 2.665,-9.094 -0.368,-4.531 -3.395,-8.121 -9.426,-8.015 -6.473,0.117 -10.137,2.461 -10.524,7.839 -0.476,6.68 1.578,7.379 3.043,12.954 0.996,3.488 0.907,8.71 0.196,13.988 -0.84,6.234 -0.309,8.586 -3.086,16.965 -3.461,10.445 -6.282,15.625 -28.493,16.984 -21.847,1.34 -22.929,1.996 -29.503,2.367 -5.473,0.313 -6.758,0.227 -9.602,-0.844 -3.172,-1.406 -4.508,-1.519 -8.281,-1.55 -4.446,0.144 -6.871,5.718 -6.785,9.937 0.093,4.379 2.128,10.18 6.664,10.594 4.226,0.383 6.191,-0.461 7.957,-1.957 1.976,-1.578 4.488,-1.668 6.75,-1.82 2.8,-0.184 5.933,-0.446 13.156,0.109 7.695,0.59 10.156,1.867 12.578,4.113 5.867,5.434 11.781,10.11 12.723,16.895 1.066,7.719 -3.055,15.941 -7.278,25.019 -3.082,6.621 -3.515,7.121 -6.277,9.254 -3.137,2.418 -5.164,3.012 -7.781,3.809 -3.172,0.949 -6.403,2.297 -8.27,6.281 -2.137,3.707 -1.375,7.863 1.172,11.484 3.227,4.594 10.688,4.75 14.715,1.758 3.066,-2.281 3.644,-5.105 5.234,-9.281 1.637,-4.484 5.352,-7.516 12.141,-11.301 6.875,-3.832 12.785,-7.304 19.656,-9.59 14.02,-4.691 18.852,-4.765 37.391,-4.683 14.777,0.066 19.98,1.101 32.937,0.445 16.442,-0.644 21.887,-4.25 36.551,-0.719 14.274,3.434 22.399,7.446 32.555,12.309 12.32,5.59 21.164,9.012 23.394,16.543 1.703,6.09 7.836,10.422 14.285,11.445 8.555,1.356 13.075,-1.301 16.559,-7.746 3.313,-6.121 3.117,-12.285 0.27,-16.691 -2.993,-4.633 -7.883,-7.266 -14.782,-7.77 -3.558,-0.262 -6.785,0.16 -11.207,-0.629 -4.632,-0.816 -13.617,-4.933 -25.328,-11.039 -7.926,-4.242 -13.117,-9.133 -31.906,-17.207 -19.418,-9.308 -22.313,-14.824 -28.777,-27.086 z"
                                   style="fill:#5a205a;fill-opacity:1;fill-rule:nonzero;stroke:#5a205a;stroke-width:2.45197;stroke-linecap:butt;stroke-linejoin:miter;stroke-miterlimit:4;stroke-dasharray:none;stroke-opacity:1"
                                   id="path304" />
                                </g>
                              </g>
                            </g>
                          </g>
                        </g>
                      </g>
                    </g>
                    <g
                       id="g316"
                       transform="translate(-3.321)" />
                  </g>
                </g>
              </g>
              <g
                 id="g318"
                 transform="translate(-99.359,63.781)" />
            </g>
          </g>
          <g
             id="g320" />
          <g
             id="g322" />
          <g
             id="g324" />
          <g
             id="g326" />
          <g
             id="g328" />
          <g
             id="g330" />
          <g
             id="g332" />
          <g
             id="g334" />
          <g
             id="g336">
            <g
               id="g338"
               transform="matrix(0.98482,0.17365,-0.17365,0.98482,99.359,15.589)">
              <g
                 id="g340">
                <g
                   id="g342"
                   transform="scale(1.3)">
                  <g
                     id="g344"
                     transform="translate(3.321)">
                    <g
                       id="g346"
                       transform="scale(0.20125)">
                      <g
                         id="g348">
                        <g
                           id="g350" />
                        <g
                           id="g366">
                          <g
                             clip-path="url(#clipPath354)"
                             id="g364">
                            <g
                               transform="matrix(1,0,0,-1,0,172.14323)"
                               id="g362">
                              <g
                                 id="g360">
                                <g
                                   id="g358">
                                <path
                                   d="M 166.309,82.406 C 161.73,73.723 153.824,65.82 133.402,62.023 118.379,59.227 107.277,55.387 103.109,48.074 c -4.578,-8.031 -4.3,-11.398 -4.062,-18.715 0.18,-3.531 0.789,-9.058 1.976,-11.023 1.711,-2.832 2.848,-5.832 2.665,-9.094 -0.368,-4.531 -3.395,-8.121 -9.426,-8.015 -6.473,0.117 -10.137,2.461 -10.524,7.839 -0.476,6.68 1.578,7.379 3.043,12.954 0.996,3.488 0.907,8.71 0.196,13.988 -0.84,6.234 -0.309,8.586 -3.086,16.965 -3.461,10.445 -6.282,15.625 -28.493,16.984 -21.847,1.34 -22.929,1.996 -29.503,2.367 -5.473,0.313 -6.758,0.227 -9.602,-0.844 -3.172,-1.406 -4.508,-1.519 -8.281,-1.55 -4.446,0.144 -6.871,5.718 -6.785,9.937 0.093,4.379 2.128,10.18 6.664,10.594 4.226,0.383 6.191,-0.461 7.957,-1.957 1.976,-1.578 4.488,-1.668 6.75,-1.82 2.8,-0.184 5.933,-0.446 13.156,0.109 7.695,0.59 10.156,1.867 12.578,4.113 5.867,5.434 11.781,10.11 12.723,16.895 1.066,7.719 -3.055,15.941 -7.278,25.019 -3.082,6.621 -3.515,7.121 -6.277,9.254 -3.137,2.418 -5.164,3.012 -7.781,3.809 -3.172,0.949 -6.403,2.297 -8.27,6.281 -2.137,3.707 -1.375,7.863 1.172,11.484 3.227,4.594 10.688,4.75 14.715,1.758 3.066,-2.281 3.644,-5.105 5.234,-9.281 1.637,-4.484 5.352,-7.516 12.141,-11.301 6.875,-3.832 12.785,-7.304 19.656,-9.59 14.02,-4.691 18.852,-4.765 37.391,-4.683 14.777,0.066 19.98,1.101 32.937,0.445 16.442,-0.644 21.887,-4.25 36.551,-0.719 14.274,3.434 22.399,7.446 32.555,12.309 12.32,5.59 21.164,9.012 23.394,16.543 1.703,6.09 7.836,10.422 14.285,11.445 8.555,1.356 13.075,-1.301 16.559,-7.746 3.313,-6.121 3.117,-12.285 0.27,-16.691 -2.993,-4.633 -7.883,-7.266 -14.782,-7.77 -3.558,-0.262 -6.785,0.16 -11.207,-0.629 -4.632,-0.816 -13.617,-4.933 -25.328,-11.039 -7.926,-4.242 -13.117,-9.133 -31.906,-17.207 -19.418,-9.308 -22.313,-14.824 -28.777,-27.086 z"
                                   style="fill:#5a205a;fill-opacity:1;fill-rule:nonzero;stroke:#5a205a;stroke-width:2.45197;stroke-linecap:butt;stroke-linejoin:miter;stroke-miterlimit:4;stroke-dasharray:none;stroke-opacity:1"
                                   id="path356" />
                                </g>
                              </g>
                            </g>
                          </g>
                        </g>
                      </g>
                    </g>
                    <g
                       id="g368"
                       transform="translate(-3.321)" />
                  </g>
                </g>
              </g>
              <g
                 id="g370"
                 transform="translate(-99.359,-15.589)" />
            </g>
          </g>
          <g
             id="g372" />
          <g
             id="g374" />
          <g
             id="g376" />
          <g
             id="g378" />
          <g
             id="g380" />
          <g
             id="g382" />
          <g
             id="g384">
            <g
               id="g386">
              <path
                 d="m -98.40024,-47.76085 c 35.8676,0 41.07651,-49.86012 76.94411,-49.86012"
                 style="fill:none;stroke:#ffffff;stroke-width:1.99255;stroke-linecap:round;stroke-linejoin:miter;stroke-miterlimit:10;stroke-dasharray:none;stroke-opacity:1"
                 id="path388" />
            </g>
          </g>
          <g
             id="g390">
            <path
               d="m -98.40024,-47.76085 c 35.8676,0 41.07651,-49.86012 76.94411,-49.86012"
               style="fill:none;stroke:#000000;stroke-width:0.99628;stroke-linecap:round;stroke-linejoin:miter;stroke-miterlimit:10;stroke-dasharray:none;stroke-opacity:1"
               id="path392" />
          </g>
          <g
             id="g394">
            <g
               id="g396">
              <path
                 d="m -98.04787,-46.57616 c 31.85154,0 44.74021,28.32633 76.59174,28.32633"
                 style="fill:none;stroke:#ffffff;stroke-width:1.99255;stroke-linecap:round;stroke-linejoin:miter;stroke-miterlimit:10;stroke-dasharray:none;stroke-opacity:1"
                 id="path398" />
            </g>
          </g>
          <g
             id="g400">
            <path
               d="m -98.04787,-46.57616 c 31.85154,0 44.74021,28.32633 76.59174,28.32633"
               style="fill:none;stroke:#000000;stroke-width:0.99628;stroke-linecap:round;stroke-linejoin:miter;stroke-miterlimit:10;stroke-dasharray:none;stroke-opacity:1"
               id="path402" />
          </g>
          <g
             id="g404">
            <g
               id="g406">
              <path
                 d="m -97.69548,-45.3915 c 51.32207,0 24.9173,106.51279 76.23935,106.51279"
                 style="fill:none;stroke:#ffffff;stroke-width:1.99255;stroke-linecap:round;stroke-linejoin:miter;stroke-miterlimit:10;stroke-dasharray:none;stroke-opacity:1"
                 id="path408" />
            </g>
          </g>
          <g
             id="g410">
            <path
               d="m -97.69548,-45.3915 c 51.32207,0 24.9173,106.51279 76.23935,106.51279"
               style="fill:none;stroke:#000000;stroke-width:0.99628;stroke-linecap:round;stroke-linejoin:miter;stroke-miterlimit:10;stroke-dasharray:none;stroke-opacity:1"
               id="path412" />
          </g>
          <g
             id="g414">
            <g
               id="g416">
              <path
                 d="m -98.40024,31.60985 c 47.59519,0 36.35697,-88.33039 83.95215,-88.33039"
                 style="fill:none;stroke:#ffffff;stroke-width:1.99255;stroke-linecap:round;stroke-linejoin:miter;stroke-miterlimit:10;stroke-dasharray:none;stroke-opacity:1"
                 id="path418" />
            </g>
          </g>
          <g
             id="g420">
            <path
               d="m -98.40024,31.60985 c 47.59519,0 36.35697,-88.33039 83.95215,-88.33039"
               style="fill:none;stroke:#000000;stroke-width:0.99628;stroke-linecap:round;stroke-linejoin:miter;stroke-miterlimit:10;stroke-dasharray:none;stroke-opacity:1"
               id="path422" />
          </g>
          <g
             id="g424">
            <g
               id="g426">
              <path
                 d="m -98.04787,32.79454 c 32.85718,0 50.74259,-10.14395 83.59978,-10.14395"
                 style="fill:none;stroke:#ffffff;stroke-width:1.99255;stroke-linecap:round;stroke-linejoin:miter;stroke-miterlimit:10;stroke-dasharray:none;stroke-opacity:1"
                 id="path428" />
            </g>
          </g>
          <g
             id="g430">
            <path
               d="m -98.04787,32.79454 c 32.85718,0 50.74259,-10.14395 83.59978,-10.14395"
               style="fill:none;stroke:#000000;stroke-width:0.99628;stroke-linecap:round;stroke-linejoin:miter;stroke-miterlimit:10;stroke-dasharray:none;stroke-opacity:1"
               id="path432" />
          </g>
          <g
             id="g434">
            <g
               id="g436">
              <path
                 d="m -97.69548,33.97922 c 42.13773,0 41.10966,68.04251 83.24739,68.04251"
                 style="fill:none;stroke:#ffffff;stroke-width:1.99255;stroke-linecap:round;stroke-linejoin:miter;stroke-miterlimit:10;stroke-dasharray:none;stroke-opacity:1"
                 id="path438" />
            </g>
          </g>
          <g
             id="g440">
            <path
               d="m -97.69548,33.97922 c 42.13773,0 41.10966,68.04251 83.24739,68.04251"
               style="fill:none;stroke:#000000;stroke-width:0.99628;stroke-linecap:round;stroke-linejoin:miter;stroke-miterlimit:10;stroke-dasharray:none;stroke-opacity:1"
               id="path442" />
          </g>
          <g
             id="g444">
            <g
               id="g446">
              <path
                 d="m 36.2471,-87.44664 c 42.92809,0 41.02405,70.4119 83.95212,70.4119"
                 style="fill:none;stroke:#ffffff;stroke-width:1.99255;stroke-linecap:round;stroke-linejoin:miter;stroke-miterlimit:10;stroke-dasharray:none;stroke-opacity:1"
                 id="path448" />
            </g>
          </g>
          <g
             id="g450">
            <path
               d="m 36.2471,-87.44664 c 42.92809,0 41.02405,70.4119 83.95212,70.4119"
               style="fill:none;stroke:#000000;stroke-width:0.99628;stroke-linecap:round;stroke-linejoin:miter;stroke-miterlimit:10;stroke-dasharray:none;stroke-opacity:1"
               id="path452" />
          </g>
          <g
             id="g454">
            <g
               id="g456">
              <path
                 d="m 36.95187,-85.07727 c 66.25174,0 16.99561,147.41322 83.24735,147.41322"
                 style="fill:none;stroke:#ffffff;stroke-width:1.99255;stroke-linecap:round;stroke-linejoin:miter;stroke-miterlimit:10;stroke-dasharray:none;stroke-opacity:1"
                 id="path458" />
            </g>
          </g>
          <g
             id="g460">
            <path
               d="m 36.95187,-85.07727 c 66.25174,0 16.99561,147.41322 83.24735,147.41322"
               style="fill:none;stroke:#000000;stroke-width:0.99628;stroke-linecap:round;stroke-linejoin:miter;stroke-miterlimit:10;stroke-dasharray:none;stroke-opacity:1"
               id="path462" />
          </g>
          <g
             id="g464">
            <g
               id="g466">
              <path
                 d="m 36.2471,-8.0755 c 28.32626,0 37.24466,-30.98491 65.57092,-30.98491"
                 style="fill:none;stroke:#ffffff;stroke-width:1.99255;stroke-linecap:round;stroke-linejoin:miter;stroke-miterlimit:10;stroke-dasharray:none;stroke-opacity:1"
                 id="path468" />
            </g>
          </g>
          <g
             id="g470">
            <path
               d="m 36.2471,-8.0755 c 28.32626,0 37.24466,-30.98491 65.57092,-30.98491"
               style="fill:none;stroke:#000000;stroke-width:0.99628;stroke-linecap:round;stroke-linejoin:miter;stroke-miterlimit:10;stroke-dasharray:none;stroke-opacity:1"
               id="path472" />
          </g>
          <g
             id="g474">
            <g
               id="g476">
              <path
                 d="m 36.95187,-5.70613 c 31.10544,0 33.7607,46.01642 64.86615,46.01642"
                 style="fill:none;stroke:#ffffff;stroke-width:1.99255;stroke-linecap:round;stroke-linejoin:miter;stroke-miterlimit:10;stroke-dasharray:none;stroke-opacity:1"
                 id="path478" />
            </g>
          </g>
          <g
             id="g480">
            <path
               d="m 36.95187,-5.70613 c 31.10544,0 33.7607,46.01642 64.86615,46.01642"
               style="fill:none;stroke:#000000;stroke-width:0.99628;stroke-linecap:round;stroke-linejoin:miter;stroke-miterlimit:10;stroke-dasharray:none;stroke-opacity:1"
               id="path482" />
          </g>
          <g
             id="g484">
            <g
               id="g486">
              <path
                 d="m 36.2471,71.29562 c 58.872,0 18.0721,-129.2308 76.9441,-129.2308"
                 style="fill:none;stroke:#ffffff;stroke-width:1.99255;stroke-linecap:round;stroke-linejoin:miter;stroke-miterlimit:10;stroke-dasharray:none;stroke-opacity:1"
                 id="path488" />
            </g>
          </g>
          <g
             id="g490">
            <path
               d="m 36.2471,71.29562 c 58.872,0 18.0721,-129.2308 76.9441,-129.2308"
               style="fill:none;stroke:#000000;stroke-width:0.99628;stroke-linecap:round;stroke-linejoin:miter;stroke-miterlimit:10;stroke-dasharray:none;stroke-opacity:1"
               id="path492" />
          </g>
          <g
             id="g494">
            <g
               id="g496">
              <path
                 d="m 36.95187,73.665 c 36.04195,0 40.19736,-52.22948 76.23933,-52.22948"
                 style="fill:none;stroke:#ffffff;stroke-width:1.99255;stroke-linecap:round;stroke-linejoin:miter;stroke-miterlimit:10;stroke-dasharray:none;stroke-opacity:1"
                 id="path498" />
            </g>
          </g>
          <g
             id="g500">
            <path
               d="m 36.95187,73.665 c 36.04195,0 40.19736,-52.22948 76.23933,-52.22948"
               style="fill:none;stroke:#000000;stroke-width:0.99628;stroke-linecap:round;stroke-linejoin:miter;stroke-miterlimit:10;stroke-dasharray:none;stroke-opacity:1"
               id="path502" />
          </g>
        </g>
      </g>
    </g>
  </g>
</svg>
