<?xml version="1.0" encoding="UTF-8" standalone="no"?>
<!-- Created with Inkscape (http://www.inkscape.org/) -->

<svg
   version="1.1"
   id="svg755"
   width="831.49597"
   height="241.88933"
   viewBox="0 0 831.49597 241.88933"
   sodipodi:docname="hierarchical_xor.pdf"
   xmlns:inkscape="http://www.inkscape.org/namespaces/inkscape"
   xmlns:sodipodi="http://sodipodi.sourceforge.net/DTD/sodipodi-0.dtd"
   xmlns="http://www.w3.org/2000/svg"
   xmlns:svg="http://www.w3.org/2000/svg">
  <defs
     id="defs759">
    <clipPath
       clipPathUnits="userSpaceOnUse"
       id="clipPath795">
      <path
         d="M 0,0 H 281.70416 V 172.14323 H 0 Z"
         id="path793" />
    </clipPath>
    <clipPath
       clipPathUnits="userSpaceOnUse"
       id="clipPath847">
      <path
         d="M 0,0 H 281.70416 V 172.14323 H 0 Z"
         id="path845" />
    </clipPath>
    <clipPath
       clipPathUnits="userSpaceOnUse"
       id="clipPath899">
      <path
         d="M 0,0 H 281.70416 V 172.14323 H 0 Z"
         id="path897" />
    </clipPath>
    <clipPath
       clipPathUnits="userSpaceOnUse"
       id="clipPath951">
      <path
         d="M 0,0 H 281.70416 V 172.14323 H 0 Z"
         id="path949" />
    </clipPath>
    <clipPath
       clipPathUnits="userSpaceOnUse"
       id="clipPath1003">
      <path
         d="M 0,0 H 281.70416 V 172.14323 H 0 Z"
         id="path1001" />
    </clipPath>
  </defs>
  <sodipodi:namedview
     id="namedview757"
     pagecolor="#ffffff"
     bordercolor="#666666"
     borderopacity="1.0"
     inkscape:showpageshadow="2"
     inkscape:pageopacity="0.0"
     inkscape:pagecheckerboard="0"
     inkscape:deskcolor="#d1d1d1" />
  <g
     id="g761"
     inkscape:groupmode="layer"
     inkscape:label="hierarchical_xor2"
     transform="matrix(1.3333333,0,0,-1.3333333,0,241.88933)">
    <g
       id="g763"
       transform="translate(311.811,90.709)">
      <g
         id="g765">
        <g
           id="g767">
          <g
             id="g769">
            <path
               d="M -311.8149,-90.7097 V 90.7097 H 311.8149 V -90.7097 Z"
               style="fill:#ffffff;fill-opacity:1;fill-rule:nonzero;stroke:none"
               id="path771" />
          </g>
          <g
             id="g773" />
          <g
             id="g775" />
          <g
             id="g777">
            <g
               id="g779"
               transform="matrix(0.98482,0.17365,-0.17365,0.98482,-235.301,-71.196)">
              <g
                 id="g781">
                <g
                   id="g783"
                   transform="scale(1.7)">
                  <g
                     id="g785"
                     transform="translate(3.321)">
                    <g
                       id="g787"
                       transform="scale(0.20125)">
                      <g
                         id="g789">
                        <g
                           id="g791" />
                        <g
                           id="g807">
                          <g
                             clip-path="url(#clipPath795)"
                             id="g805">
                            <g
                               transform="matrix(1,0,0,-1,0,172.14323)"
                               id="g803">
                              <g
                                 id="g801">
                                <g
                                   id="g799">
                                <path
                                   d="M 166.309,82.406 C 161.73,73.723 153.824,65.82 133.402,62.023 118.379,59.227 107.277,55.387 103.109,48.074 c -4.578,-8.031 -4.3,-11.398 -4.062,-18.715 0.18,-3.531 0.789,-9.058 1.976,-11.023 1.711,-2.832 2.848,-5.832 2.665,-9.094 -0.368,-4.531 -3.395,-8.121 -9.426,-8.015 -6.473,0.117 -10.137,2.461 -10.524,7.839 -0.476,6.68 1.578,7.379 3.043,12.954 0.996,3.488 0.907,8.71 0.196,13.988 -0.84,6.234 -0.309,8.586 -3.086,16.965 -3.461,10.445 -6.282,15.625 -28.493,16.984 -21.847,1.34 -22.929,1.996 -29.503,2.367 -5.473,0.313 -6.758,0.227 -9.602,-0.844 -3.172,-1.406 -4.508,-1.519 -8.281,-1.55 -4.446,0.144 -6.871,5.718 -6.785,9.937 0.093,4.379 2.128,10.18 6.664,10.594 4.226,0.383 6.191,-0.461 7.957,-1.957 1.976,-1.578 4.488,-1.668 6.75,-1.82 2.8,-0.184 5.933,-0.446 13.156,0.109 7.695,0.59 10.156,1.867 12.578,4.113 5.867,5.434 11.781,10.11 12.723,16.895 1.066,7.719 -3.055,15.941 -7.278,25.019 -3.082,6.621 -3.515,7.121 -6.277,9.254 -3.137,2.418 -5.164,3.012 -7.781,3.809 -3.172,0.949 -6.403,2.297 -8.27,6.281 -2.137,3.707 -1.375,7.863 1.172,11.484 3.227,4.594 10.688,4.75 14.715,1.758 3.066,-2.281 3.644,-5.105 5.234,-9.281 1.637,-4.484 5.352,-7.516 12.141,-11.301 6.875,-3.832 12.785,-7.304 19.656,-9.59 14.02,-4.691 18.852,-4.765 37.391,-4.683 14.777,0.066 19.98,1.101 32.937,0.445 16.442,-0.644 21.887,-4.25 36.551,-0.719 14.274,3.434 22.399,7.446 32.555,12.309 12.32,5.59 21.164,9.012 23.394,16.543 1.703,6.09 7.836,10.422 14.285,11.445 8.555,1.356 13.075,-1.301 16.559,-7.746 3.313,-6.121 3.117,-12.285 0.27,-16.691 -2.993,-4.633 -7.883,-7.266 -14.782,-7.77 -3.558,-0.262 -6.785,0.16 -11.207,-0.629 -4.632,-0.816 -13.617,-4.933 -25.328,-11.039 -7.926,-4.242 -13.117,-9.133 -31.906,-17.207 -19.418,-9.308 -22.313,-14.824 -28.777,-27.086 z"
                                   style="fill:#5a205a;fill-opacity:1;fill-rule:nonzero;stroke:#5a205a;stroke-width:2.45197;stroke-linecap:butt;stroke-linejoin:miter;stroke-miterlimit:4;stroke-dasharray:none;stroke-opacity:1"
                                   id="path797" />
                                </g>
                              </g>
                            </g>
                          </g>
                        </g>
                      </g>
                    </g>
                    <g
                       id="g809"
                       transform="translate(-3.321)" />
                  </g>
                </g>
              </g>
              <g
                 id="g811"
                 transform="translate(235.301,71.196)" />
            </g>
          </g>
          <g
             id="g813" />
          <g
             id="g815" />
          <g
             id="g817" />
          <g
             id="g819" />
          <g
             id="g821" />
          <g
             id="g823" />
          <g
             id="g825" />
          <g
             id="g827" />
          <g
             id="g829">
            <g
               id="g831"
               transform="matrix(0.98482,0.17365,-0.17365,0.98482,-235.301,8.174)">
              <g
                 id="g833">
                <g
                   id="g835"
                   transform="scale(1.7)">
                  <g
                     id="g837"
                     transform="translate(3.321)">
                    <g
                       id="g839"
                       transform="scale(0.20125)">
                      <g
                         id="g841">
                        <g
                           id="g843" />
                        <g
                           id="g859">
                          <g
                             clip-path="url(#clipPath847)"
                             id="g857">
                            <g
                               transform="matrix(1,0,0,-1,0,172.14323)"
                               id="g855">
                              <g
                                 id="g853">
                                <g
                                   id="g851">
                                <path
                                   d="M 166.309,82.406 C 161.73,73.723 153.824,65.82 133.402,62.023 118.379,59.227 107.277,55.387 103.109,48.074 c -4.578,-8.031 -4.3,-11.398 -4.062,-18.715 0.18,-3.531 0.789,-9.058 1.976,-11.023 1.711,-2.832 2.848,-5.832 2.665,-9.094 -0.368,-4.531 -3.395,-8.121 -9.426,-8.015 -6.473,0.117 -10.137,2.461 -10.524,7.839 -0.476,6.68 1.578,7.379 3.043,12.954 0.996,3.488 0.907,8.71 0.196,13.988 -0.84,6.234 -0.309,8.586 -3.086,16.965 -3.461,10.445 -6.282,15.625 -28.493,16.984 -21.847,1.34 -22.929,1.996 -29.503,2.367 -5.473,0.313 -6.758,0.227 -9.602,-0.844 -3.172,-1.406 -4.508,-1.519 -8.281,-1.55 -4.446,0.144 -6.871,5.718 -6.785,9.937 0.093,4.379 2.128,10.18 6.664,10.594 4.226,0.383 6.191,-0.461 7.957,-1.957 1.976,-1.578 4.488,-1.668 6.75,-1.82 2.8,-0.184 5.933,-0.446 13.156,0.109 7.695,0.59 10.156,1.867 12.578,4.113 5.867,5.434 11.781,10.11 12.723,16.895 1.066,7.719 -3.055,15.941 -7.278,25.019 -3.082,6.621 -3.515,7.121 -6.277,9.254 -3.137,2.418 -5.164,3.012 -7.781,3.809 -3.172,0.949 -6.403,2.297 -8.27,6.281 -2.137,3.707 -1.375,7.863 1.172,11.484 3.227,4.594 10.688,4.75 14.715,1.758 3.066,-2.281 3.644,-5.105 5.234,-9.281 1.637,-4.484 5.352,-7.516 12.141,-11.301 6.875,-3.832 12.785,-7.304 19.656,-9.59 14.02,-4.691 18.852,-4.765 37.391,-4.683 14.777,0.066 19.98,1.101 32.937,0.445 16.442,-0.644 21.887,-4.25 36.551,-0.719 14.274,3.434 22.399,7.446 32.555,12.309 12.32,5.59 21.164,9.012 23.394,16.543 1.703,6.09 7.836,10.422 14.285,11.445 8.555,1.356 13.075,-1.301 16.559,-7.746 3.313,-6.121 3.117,-12.285 0.27,-16.691 -2.993,-4.633 -7.883,-7.266 -14.782,-7.77 -3.558,-0.262 -6.785,0.16 -11.207,-0.629 -4.632,-0.816 -13.617,-4.933 -25.328,-11.039 -7.926,-4.242 -13.117,-9.133 -31.906,-17.207 -19.418,-9.308 -22.313,-14.824 -28.777,-27.086 z"
                                   style="fill:#5a205a;fill-opacity:1;fill-rule:nonzero;stroke:#5a205a;stroke-width:2.45197;stroke-linecap:butt;stroke-linejoin:miter;stroke-miterlimit:4;stroke-dasharray:none;stroke-opacity:1"
                                   id="path849" />
                                </g>
                              </g>
                            </g>
                          </g>
                        </g>
                      </g>
                    </g>
                    <g
                       id="g861"
                       transform="translate(-3.321)" />
                  </g>
                </g>
              </g>
              <g
                 id="g863"
                 transform="translate(235.301,-8.174)" />
            </g>
          </g>
          <g
             id="g865" />
          <g
             id="g867" />
          <g
             id="g869" />
          <g
             id="g871" />
          <g
             id="g873" />
          <g
             id="g875" />
          <g
             id="g877" />
          <g
             id="g879" />
          <g
             id="g881">
            <g
               id="g883"
               transform="matrix(0.98482,0.17365,-0.17365,0.98482,-43.963,-71.196)">
              <g
                 id="g885">
                <g
                   id="g887"
                   transform="scale(1.7)">
                  <g
                     id="g889"
                     transform="translate(3.321)">
                    <g
                       id="g891"
                       transform="scale(0.20125)">
                      <g
                         id="g893">
                        <g
                           id="g895" />
                        <g
                           id="g911">
                          <g
                             clip-path="url(#clipPath899)"
                             id="g909">
                            <g
                               transform="matrix(1,0,0,-1,0,172.14323)"
                               id="g907">
                              <g
                                 id="g905">
                                <g
                                   id="g903">
                                <path
                                   d="M 166.309,82.406 C 161.73,73.723 153.824,65.82 133.402,62.023 118.379,59.227 107.277,55.387 103.109,48.074 c -4.578,-8.031 -4.3,-11.398 -4.062,-18.715 0.18,-3.531 0.789,-9.058 1.976,-11.023 1.711,-2.832 2.848,-5.832 2.665,-9.094 -0.368,-4.531 -3.395,-8.121 -9.426,-8.015 -6.473,0.117 -10.137,2.461 -10.524,7.839 -0.476,6.68 1.578,7.379 3.043,12.954 0.996,3.488 0.907,8.71 0.196,13.988 -0.84,6.234 -0.309,8.586 -3.086,16.965 -3.461,10.445 -6.282,15.625 -28.493,16.984 -21.847,1.34 -22.929,1.996 -29.503,2.367 -5.473,0.313 -6.758,0.227 -9.602,-0.844 -3.172,-1.406 -4.508,-1.519 -8.281,-1.55 -4.446,0.144 -6.871,5.718 -6.785,9.937 0.093,4.379 2.128,10.18 6.664,10.594 4.226,0.383 6.191,-0.461 7.957,-1.957 1.976,-1.578 4.488,-1.668 6.75,-1.82 2.8,-0.184 5.933,-0.446 13.156,0.109 7.695,0.59 10.156,1.867 12.578,4.113 5.867,5.434 11.781,10.11 12.723,16.895 1.066,7.719 -3.055,15.941 -7.278,25.019 -3.082,6.621 -3.515,7.121 -6.277,9.254 -3.137,2.418 -5.164,3.012 -7.781,3.809 -3.172,0.949 -6.403,2.297 -8.27,6.281 -2.137,3.707 -1.375,7.863 1.172,11.484 3.227,4.594 10.688,4.75 14.715,1.758 3.066,-2.281 3.644,-5.105 5.234,-9.281 1.637,-4.484 5.352,-7.516 12.141,-11.301 6.875,-3.832 12.785,-7.304 19.656,-9.59 14.02,-4.691 18.852,-4.765 37.391,-4.683 14.777,0.066 19.98,1.101 32.937,0.445 16.442,-0.644 21.887,-4.25 36.551,-0.719 14.274,3.434 22.399,7.446 32.555,12.309 12.32,5.59 21.164,9.012 23.394,16.543 1.703,6.09 7.836,10.422 14.285,11.445 8.555,1.356 13.075,-1.301 16.559,-7.746 3.313,-6.121 3.117,-12.285 0.27,-16.691 -2.993,-4.633 -7.883,-7.266 -14.782,-7.77 -3.558,-0.262 -6.785,0.16 -11.207,-0.629 -4.632,-0.816 -13.617,-4.933 -25.328,-11.039 -7.926,-4.242 -13.117,-9.133 -31.906,-17.207 -19.418,-9.308 -22.313,-14.824 -28.777,-27.086 z"
                                   style="fill:#5a205a;fill-opacity:1;fill-rule:nonzero;stroke:#5a205a;stroke-width:2.45197;stroke-linecap:butt;stroke-linejoin:miter;stroke-miterlimit:4;stroke-dasharray:none;stroke-opacity:1"
                                   id="path901" />
                                </g>
                              </g>
                            </g>
                          </g>
                        </g>
                      </g>
                    </g>
                    <g
                       id="g913"
                       transform="translate(-3.321)" />
                  </g>
                </g>
              </g>
              <g
                 id="g915"
                 transform="translate(43.963,71.196)" />
            </g>
          </g>
          <g
             id="g917" />
          <g
             id="g919" />
          <g
             id="g921" />
          <g
             id="g923" />
          <g
             id="g925" />
          <g
             id="g927" />
          <g
             id="g929" />
          <g
             id="g931" />
          <g
             id="g933">
            <g
               id="g935"
               transform="matrix(0.98482,0.17365,-0.17365,0.98482,-43.963,8.174)">
              <g
                 id="g937">
                <g
                   id="g939"
                   transform="scale(1.7)">
                  <g
                     id="g941"
                     transform="translate(3.321)">
                    <g
                       id="g943"
                       transform="scale(0.20125)">
                      <g
                         id="g945">
                        <g
                           id="g947" />
                        <g
                           id="g963">
                          <g
                             clip-path="url(#clipPath951)"
                             id="g961">
                            <g
                               transform="matrix(1,0,0,-1,0,172.14323)"
                               id="g959">
                              <g
                                 id="g957">
                                <g
                                   id="g955">
                                <path
                                   d="M 166.309,82.406 C 161.73,73.723 153.824,65.82 133.402,62.023 118.379,59.227 107.277,55.387 103.109,48.074 c -4.578,-8.031 -4.3,-11.398 -4.062,-18.715 0.18,-3.531 0.789,-9.058 1.976,-11.023 1.711,-2.832 2.848,-5.832 2.665,-9.094 -0.368,-4.531 -3.395,-8.121 -9.426,-8.015 -6.473,0.117 -10.137,2.461 -10.524,7.839 -0.476,6.68 1.578,7.379 3.043,12.954 0.996,3.488 0.907,8.71 0.196,13.988 -0.84,6.234 -0.309,8.586 -3.086,16.965 -3.461,10.445 -6.282,15.625 -28.493,16.984 -21.847,1.34 -22.929,1.996 -29.503,2.367 -5.473,0.313 -6.758,0.227 -9.602,-0.844 -3.172,-1.406 -4.508,-1.519 -8.281,-1.55 -4.446,0.144 -6.871,5.718 -6.785,9.937 0.093,4.379 2.128,10.18 6.664,10.594 4.226,0.383 6.191,-0.461 7.957,-1.957 1.976,-1.578 4.488,-1.668 6.75,-1.82 2.8,-0.184 5.933,-0.446 13.156,0.109 7.695,0.59 10.156,1.867 12.578,4.113 5.867,5.434 11.781,10.11 12.723,16.895 1.066,7.719 -3.055,15.941 -7.278,25.019 -3.082,6.621 -3.515,7.121 -6.277,9.254 -3.137,2.418 -5.164,3.012 -7.781,3.809 -3.172,0.949 -6.403,2.297 -8.27,6.281 -2.137,3.707 -1.375,7.863 1.172,11.484 3.227,4.594 10.688,4.75 14.715,1.758 3.066,-2.281 3.644,-5.105 5.234,-9.281 1.637,-4.484 5.352,-7.516 12.141,-11.301 6.875,-3.832 12.785,-7.304 19.656,-9.59 14.02,-4.691 18.852,-4.765 37.391,-4.683 14.777,0.066 19.98,1.101 32.937,0.445 16.442,-0.644 21.887,-4.25 36.551,-0.719 14.274,3.434 22.399,7.446 32.555,12.309 12.32,5.59 21.164,9.012 23.394,16.543 1.703,6.09 7.836,10.422 14.285,11.445 8.555,1.356 13.075,-1.301 16.559,-7.746 3.313,-6.121 3.117,-12.285 0.27,-16.691 -2.993,-4.633 -7.883,-7.266 -14.782,-7.77 -3.558,-0.262 -6.785,0.16 -11.207,-0.629 -4.632,-0.816 -13.617,-4.933 -25.328,-11.039 -7.926,-4.242 -13.117,-9.133 -31.906,-17.207 -19.418,-9.308 -22.313,-14.824 -28.777,-27.086 z"
                                   style="fill:#5a205a;fill-opacity:1;fill-rule:nonzero;stroke:#5a205a;stroke-width:2.45197;stroke-linecap:butt;stroke-linejoin:miter;stroke-miterlimit:4;stroke-dasharray:none;stroke-opacity:1"
                                   id="path953" />
                                </g>
                              </g>
                            </g>
                          </g>
                        </g>
                      </g>
                    </g>
                    <g
                       id="g965"
                       transform="translate(-3.321)" />
                  </g>
                </g>
              </g>
              <g
                 id="g967"
                 transform="translate(43.963,-8.174)" />
            </g>
          </g>
          <g
             id="g969" />
          <g
             id="g971" />
          <g
             id="g973" />
          <g
             id="g975" />
          <g
             id="g977" />
          <g
             id="g979" />
          <g
             id="g981" />
          <g
             id="g983" />
          <g
             id="g985">
            <g
               id="g987"
               transform="matrix(0.98482,0.17365,-0.17365,0.98482,147.376,-31.511)">
              <g
                 id="g989">
                <g
                   id="g991"
                   transform="scale(1.7)">
                  <g
                     id="g993"
                     transform="translate(3.321)">
                    <g
                       id="g995"
                       transform="scale(0.20125)">
                      <g
                         id="g997">
                        <g
                           id="g999" />
                        <g
                           id="g1015">
                          <g
                             clip-path="url(#clipPath1003)"
                             id="g1013">
                            <g
                               transform="matrix(1,0,0,-1,0,172.14323)"
                               id="g1011">
                              <g
                                 id="g1009">
                                <g
                                   id="g1007">
                                <path
                                   d="M 166.309,82.406 C 161.73,73.723 153.824,65.82 133.402,62.023 118.379,59.227 107.277,55.387 103.109,48.074 c -4.578,-8.031 -4.3,-11.398 -4.062,-18.715 0.18,-3.531 0.789,-9.058 1.976,-11.023 1.711,-2.832 2.848,-5.832 2.665,-9.094 -0.368,-4.531 -3.395,-8.121 -9.426,-8.015 -6.473,0.117 -10.137,2.461 -10.524,7.839 -0.476,6.68 1.578,7.379 3.043,12.954 0.996,3.488 0.907,8.71 0.196,13.988 -0.84,6.234 -0.309,8.586 -3.086,16.965 -3.461,10.445 -6.282,15.625 -28.493,16.984 -21.847,1.34 -22.929,1.996 -29.503,2.367 -5.473,0.313 -6.758,0.227 -9.602,-0.844 -3.172,-1.406 -4.508,-1.519 -8.281,-1.55 -4.446,0.144 -6.871,5.718 -6.785,9.937 0.093,4.379 2.128,10.18 6.664,10.594 4.226,0.383 6.191,-0.461 7.957,-1.957 1.976,-1.578 4.488,-1.668 6.75,-1.82 2.8,-0.184 5.933,-0.446 13.156,0.109 7.695,0.59 10.156,1.867 12.578,4.113 5.867,5.434 11.781,10.11 12.723,16.895 1.066,7.719 -3.055,15.941 -7.278,25.019 -3.082,6.621 -3.515,7.121 -6.277,9.254 -3.137,2.418 -5.164,3.012 -7.781,3.809 -3.172,0.949 -6.403,2.297 -8.27,6.281 -2.137,3.707 -1.375,7.863 1.172,11.484 3.227,4.594 10.688,4.75 14.715,1.758 3.066,-2.281 3.644,-5.105 5.234,-9.281 1.637,-4.484 5.352,-7.516 12.141,-11.301 6.875,-3.832 12.785,-7.304 19.656,-9.59 14.02,-4.691 18.852,-4.765 37.391,-4.683 14.777,0.066 19.98,1.101 32.937,0.445 16.442,-0.644 21.887,-4.25 36.551,-0.719 14.274,3.434 22.399,7.446 32.555,12.309 12.32,5.59 21.164,9.012 23.394,16.543 1.703,6.09 7.836,10.422 14.285,11.445 8.555,1.356 13.075,-1.301 16.559,-7.746 3.313,-6.121 3.117,-12.285 0.27,-16.691 -2.993,-4.633 -7.883,-7.266 -14.782,-7.77 -3.558,-0.262 -6.785,0.16 -11.207,-0.629 -4.632,-0.816 -13.617,-4.933 -25.328,-11.039 -7.926,-4.242 -13.117,-9.133 -31.906,-17.207 -19.418,-9.308 -22.313,-14.824 -28.777,-27.086 z"
                                   style="fill:#5a205a;fill-opacity:1;fill-rule:nonzero;stroke:#5a205a;stroke-width:2.45197;stroke-linecap:butt;stroke-linejoin:miter;stroke-miterlimit:4;stroke-dasharray:none;stroke-opacity:1"
                                   id="path1005" />
                                </g>
                              </g>
                            </g>
                          </g>
                        </g>
                      </g>
                    </g>
                    <g
                       id="g1017"
                       transform="translate(-3.321)" />
                  </g>
                </g>
              </g>
              <g
                 id="g1019"
                 transform="translate(-147.376,31.511)" />
            </g>
          </g>
          <g
             id="g1021" />
          <g
             id="g1023" />
          <g
             id="g1025" />
          <g
             id="g1027" />
          <g
             id="g1029" />
          <g
             id="g1031" />
          <g
             id="g1033">
            <g
               id="g1035">
              <path
                 d="m -141.7606,-50.2456 c 45.5455,0 70.33769,-13.30486 115.88317,-13.30486"
                 style="fill:none;stroke:#ffffff;stroke-width:1.99255;stroke-linecap:round;stroke-linejoin:miter;stroke-miterlimit:10;stroke-dasharray:none;stroke-opacity:1"
                 id="path1037" />
            </g>
          </g>
          <g
             id="g1039">
            <path
               d="m -141.7606,-50.2456 c 45.5455,0 70.33769,-13.30486 115.88317,-13.30486"
               style="fill:none;stroke:#000000;stroke-width:0.99628;stroke-linecap:round;stroke-linejoin:miter;stroke-miterlimit:10;stroke-dasharray:none;stroke-opacity:1"
               id="path1041" />
          </g>
          <g
             id="g1043">
            <g
               id="g1045">
              <path
                 d="m -140.83899,-47.1472 c 51.20769,0 63.75388,62.96744 114.96156,62.96744"
                 style="fill:none;stroke:#ffffff;stroke-width:1.99255;stroke-linecap:round;stroke-linejoin:miter;stroke-miterlimit:10;stroke-dasharray:none;stroke-opacity:1"
                 id="path1047" />
            </g>
          </g>
          <g
             id="g1049">
            <path
               d="m -140.83899,-47.1472 c 51.20769,0 63.75388,62.96744 114.96156,62.96744"
               style="fill:none;stroke:#000000;stroke-width:0.99628;stroke-linecap:round;stroke-linejoin:miter;stroke-miterlimit:10;stroke-dasharray:none;stroke-opacity:1"
               id="path1051" />
          </g>
          <g
             id="g1053">
            <g
               id="g1055">
              <path
                 d="m -141.7606,29.12509 c 51.15342,0 73.89407,-39.19052 125.0475,-39.19052"
                 style="fill:none;stroke:#ffffff;stroke-width:1.99255;stroke-linecap:round;stroke-linejoin:miter;stroke-miterlimit:10;stroke-dasharray:none;stroke-opacity:1"
                 id="path1057" />
            </g>
          </g>
          <g
             id="g1059">
            <path
               d="m -141.7606,29.12509 c 51.15342,0 73.89407,-39.19052 125.0475,-39.19052"
               style="fill:none;stroke:#000000;stroke-width:0.99628;stroke-linecap:round;stroke-linejoin:miter;stroke-miterlimit:10;stroke-dasharray:none;stroke-opacity:1"
               id="path1061" />
          </g>
          <g
             id="g1063">
            <g
               id="g1065">
              <path
                 d="m -140.83899,32.22351 c 50.56998,0 73.55589,37.08176 124.12589,37.08176"
                 style="fill:none;stroke:#ffffff;stroke-width:1.99255;stroke-linecap:round;stroke-linejoin:miter;stroke-miterlimit:10;stroke-dasharray:none;stroke-opacity:1"
                 id="path1067" />
            </g>
          </g>
          <g
             id="g1069">
            <path
               d="m -140.83899,32.22351 c 50.56998,0 73.55589,37.08176 124.12589,37.08176"
               style="fill:none;stroke:#000000;stroke-width:0.99628;stroke-linecap:round;stroke-linejoin:miter;stroke-miterlimit:10;stroke-dasharray:none;stroke-opacity:1"
               id="path1071" />
          </g>
          <g
             id="g1073">
            <g
               id="g1075">
              <path
                 d="m 50.04117,-48.69637 c 46.08731,0 69.33502,24.83126 115.42235,24.83126"
                 style="fill:none;stroke:#ffffff;stroke-width:1.99255;stroke-linecap:round;stroke-linejoin:miter;stroke-miterlimit:10;stroke-dasharray:none;stroke-opacity:1"
                 id="path1077" />
            </g>
          </g>
          <g
             id="g1079">
            <path
               d="m 50.04117,-48.69637 c 46.08731,0 69.33502,24.83126 115.42235,24.83126"
               style="fill:none;stroke:#bf0040;stroke-width:0.99628;stroke-linecap:round;stroke-linejoin:miter;stroke-miterlimit:10;stroke-dasharray:none;stroke-opacity:1"
               id="path1081" />
          </g>
          <g
             id="g1083">
            <g
               id="g1085">
              <path
                 d="m 50.04117,30.67433 c 48.77501,0 75.81164,-1.05443 124.58665,-1.05443"
                 style="fill:none;stroke:#ffffff;stroke-width:1.99255;stroke-linecap:round;stroke-linejoin:miter;stroke-miterlimit:10;stroke-dasharray:none;stroke-opacity:1"
                 id="path1087" />
            </g>
          </g>
          <g
             id="g1089">
            <path
               d="m 50.04117,30.67433 c 48.77501,0 75.81164,-1.05443 124.58665,-1.05443"
               style="fill:none;stroke:#000000;stroke-width:0.99628;stroke-linecap:round;stroke-linejoin:miter;stroke-miterlimit:10;stroke-dasharray:none;stroke-opacity:1"
               id="path1091" />
          </g>
          <g
             id="g1093">
            <g
               id="g1095" />
            <g
               id="g1097"
               transform="translate(-203.919,-40.871)">
              <g
                 id="g1099">
                <g
                   id="g1101"
                   transform="translate(-107.892,-49.838)">
                  <text
                     xml:space="preserve"
                     transform="matrix(1,0,0,-1,107.892,49.838)"
                     style="font-variant:normal;font-weight:normal;font-size:8.9664px;font-family:CMSS9;-inkscape-font-specification:CMSS9;writing-mode:lr-tb;fill:#ffffff;fill-opacity:1;fill-rule:nonzero;stroke:none"
                     id="text1105"><tspan
                       x="0 2.5733569 12.165611"
                       y="0"
                       sodipodi:role="line"
                       id="tspan1103">IN1</tspan></text>
                  <g
                     id="g1107"
                     transform="translate(107.892,49.838)" />
                </g>
              </g>
              <g
                 id="g1109"
                 transform="translate(203.919,40.871)" />
            </g>
          </g>
          <g
             id="g1111">
            <g
               id="g1113" />
            <g
               id="g1115"
               transform="translate(-203.919,38.499)">
              <g
                 id="g1117">
                <g
                   id="g1119"
                   transform="translate(-107.892,-129.208)">
                  <text
                     xml:space="preserve"
                     transform="matrix(1,0,0,-1,107.892,129.208)"
                     style="font-variant:normal;font-weight:normal;font-size:8.9664px;font-family:CMSS9;-inkscape-font-specification:CMSS9;writing-mode:lr-tb;fill:#ffffff;fill-opacity:1;fill-rule:nonzero;stroke:none"
                     id="text1123"><tspan
                       x="0 2.5733569 12.165611"
                       y="0"
                       sodipodi:role="line"
                       id="tspan1121">IN2</tspan></text>
                  <g
                     id="g1125"
                     transform="translate(107.892,129.208)" />
                </g>
              </g>
              <g
                 id="g1127"
                 transform="translate(203.919,-38.499)" />
            </g>
          </g>
          <g
             id="g1129">
            <g
               id="g1131" />
            <g
               id="g1133"
               transform="translate(-13.864,-40.871)">
              <g
                 id="g1135">
                <g
                   id="g1137"
                   transform="translate(-297.947,-49.838)">
                  <text
                     xml:space="preserve"
                     transform="matrix(1,0,0,-1,297.947,49.838)"
                     style="font-variant:normal;font-weight:normal;font-size:8.9664px;font-family:CMSS9;-inkscape-font-specification:CMSS9;writing-mode:lr-tb;fill:#ffffff;fill-opacity:1;fill-rule:nonzero;stroke:none"
                     id="text1141"><tspan
                       x="0 6.157227 12.674006"
                       y="0"
                       sodipodi:role="line"
                       id="tspan1139">AND</tspan></text>
                  <g
                     id="g1143"
                     transform="translate(297.947,49.838)" />
                </g>
              </g>
              <g
                 id="g1145"
                 transform="translate(13.864,40.871)" />
            </g>
          </g>
          <g
             id="g1147">
            <g
               id="g1149" />
            <g
               id="g1151"
               transform="translate(-10.584,38.499)">
              <g
                 id="g1153">
                <g
                   id="g1155"
                   transform="translate(-301.227,-129.208)">
                  <text
                     xml:space="preserve"
                     transform="matrix(1,0,0,-1,301.227,129.208)"
                     style="font-variant:normal;font-weight:normal;font-size:8.9664px;font-family:CMSS9;-inkscape-font-specification:CMSS9;writing-mode:lr-tb;fill:#ffffff;fill-opacity:1;fill-rule:nonzero;stroke:none"
                     id="text1159"><tspan
                       x="0 6.8081875"
                       y="0"
                       sodipodi:role="line"
                       id="tspan1157">OR</tspan></text>
                  <g
                     id="g1161"
                     transform="translate(301.227,129.208)" />
                </g>
              </g>
              <g
                 id="g1163"
                 transform="translate(10.584,-38.499)" />
            </g>
          </g>
          <g
             id="g1165">
            <g
               id="g1167" />
            <g
               id="g1169"
               transform="translate(177.423,-1.186)">
              <g
                 id="g1171">
                <g
                   id="g1173"
                   transform="translate(-489.234,-89.523)">
                  <text
                     xml:space="preserve"
                     transform="matrix(1,0,0,-1,489.234,89.523)"
                     style="font-variant:normal;font-weight:normal;font-size:8.9664px;font-family:CMSS9;-inkscape-font-specification:CMSS9;writing-mode:lr-tb;fill:#ffffff;fill-opacity:1;fill-rule:nonzero;stroke:none"
                     id="text1177"><tspan
                       x="0 6.8081875 13.145639"
                       y="0"
                       sodipodi:role="line"
                       id="tspan1175">OUT</tspan></text>
                  <g
                     id="g1179"
                     transform="translate(489.234,89.523)" />
                </g>
              </g>
              <g
                 id="g1181"
                 transform="translate(-177.423,1.186)" />
            </g>
          </g>
          <g
             id="g1183" />
          <g
             id="g1185" />
          <g
             id="g1187">
            <path
               d="m 170.3416,-16.89857 c -2.56484,1.79591 -6.82782,0.13294 -9.52176,-3.71441 -2.69394,-3.84735 -2.79862,-8.42201 -0.23378,-10.21794 2.56484,-1.79591 6.82782,-0.13293 9.52176,3.71442 2.69394,3.84733 2.79861,8.42201 0.23378,10.21793 z"
               style="fill:none;stroke:#000000;stroke-width:0.3985;stroke-linecap:butt;stroke-linejoin:miter;stroke-miterlimit:10;stroke-dasharray:2.98883, 2.98883;stroke-dashoffset:0;stroke-opacity:1"
               id="path1189" />
          </g>
          <g
             id="g1191" />
          <g
             id="g1193" />
          <path
             d="m 170.34128,-16.89894 25.51213,-8.50403"
             style="fill:none;stroke:#000000;stroke-width:0.3985;stroke-linecap:butt;stroke-linejoin:miter;stroke-miterlimit:10;stroke-dasharray:none;stroke-opacity:1"
             id="path1195" />
          <path
             d="M 160.58574,-30.83128 186.09787,-56.3434"
             style="fill:none;stroke:#000000;stroke-width:0.3985;stroke-linecap:butt;stroke-linejoin:miter;stroke-miterlimit:10;stroke-dasharray:none;stroke-opacity:1"
             id="path1197" />
          <g
             id="g1199">
            <g
               id="g1201">
              <path
                 d="m 192.88809,-56.10953 1.32356,-0.5807 1.99682,-2.09024 2.64713,-1.16149 1.99682,-2.09024 2.64715,-1.16148 1.99681,-2.09024 1.90502,0.7431 2.09027,1.99682 1.16145,2.64715 2.09026,1.99681 1.16147,2.64716 2.09025,1.99681 1.16146,2.64715 2.09025,1.99682 1.16147,2.64715 2.09026,1.99681 -0.74312,1.90451 -1.99682,2.09024 -2.64715,1.16149 -1.99681,2.09024 -2.64714,1.16148 -1.99681,2.09024 -1.90491,-0.74377 -2.09026,-1.99682 -1.16145,-2.64715 -2.09025,-1.99681 -1.16147,-2.64716 -2.09026,-1.99681 -1.16147,-2.64715 -2.09025,-1.99682 -1.16146,-2.64715 -1.04515,-0.99842 -1.62559,-2.32142"
                 style="fill:#5a205a;fill-opacity:1;fill-rule:nonzero;stroke:none"
                 id="path1203" />
            </g>
            <g
               id="g1205"
               transform="rotate(144.99977,111.77479,8.0998176)">
              <g
                 id="g1207" />
              <g
                 id="g1209"
                 transform="translate(-207.981,49.377)" />
            </g>
          </g>
          <g
             id="g1211">
            <g
               id="g1213">
              <g
                 id="g1215">
                <path
                   d="m 199.79701,-54.8913 5.80506,-4.06472 10.56839,15.09318 -5.80506,4.06474 z"
                   style="fill:none;stroke:#ffffff;stroke-width:1.99255;stroke-linecap:round;stroke-linejoin:miter;stroke-miterlimit:10;stroke-dasharray:none;stroke-opacity:1"
                   id="path1217" />
              </g>
            </g>
            <path
               d="m 199.79701,-54.8913 5.80506,-4.06472 10.56839,15.09318 -5.80506,4.06474 z"
               style="fill:none;stroke:#000000;stroke-width:0.3985;stroke-linecap:butt;stroke-linejoin:miter;stroke-miterlimit:10;stroke-dasharray:none;stroke-opacity:1"
               id="path1219" />
            <g
               id="g1221"
               transform="rotate(144.99977,111.77479,8.0998176)">
              <g
                 id="g1223" />
              <g
                 id="g1225"
                 transform="translate(-207.981,49.377)" />
            </g>
          </g>
          <g
             id="g1227">
            <g
               id="g1229">
              <path
                 d="m 201.96487,-56.13725 1.7249,-1.20783 c 1.02593,-0.71835 2.43993,-0.46901 3.15828,0.55692 l 1.20783,1.7249 c 0.71835,1.02592 0.46901,2.43992 -0.5569,3.15828 l -1.72492,1.20782 c -1.02592,0.71836 -2.43991,0.46901 -3.15828,-0.55691 l -1.20782,-1.7249 c -0.71836,-1.02593 -0.46901,-2.43993 0.55691,-3.15828 z"
                 style="fill:#000000;fill-opacity:1;fill-rule:nonzero;stroke:#000000;stroke-width:0.3985;stroke-linecap:butt;stroke-linejoin:miter;stroke-miterlimit:10;stroke-dasharray:none;stroke-opacity:1"
                 id="path1231" />
            </g>
            <g
               id="g1233"
               transform="rotate(144.99977,110.88092,5.2651386)">
              <g
                 id="g1235" />
              <g
                 id="g1237"
                 transform="translate(-204.729,54.021)" />
            </g>
          </g>
          <g
             id="g1239">
            <g
               id="g1241">
              <path
                 d="m 205.21669,-51.4932 1.7249,-1.20782 c 1.02592,-0.71835 2.43991,-0.46902 3.15828,0.5569 l 1.20783,1.72492 c 0.71835,1.02592 0.469,2.4399 -0.55692,3.15826 l -1.7249,1.20782 c -1.02593,0.71837 -2.43993,0.46903 -3.15828,-0.5569 l -1.20783,-1.72491 c -0.71835,-1.02591 -0.469,-2.43991 0.55692,-3.15827 z"
                 style="fill:#000000;fill-opacity:1;fill-rule:nonzero;stroke:#000000;stroke-width:0.3985;stroke-linecap:butt;stroke-linejoin:miter;stroke-miterlimit:10;stroke-dasharray:none;stroke-opacity:1"
                 id="path1243" />
            </g>
            <g
               id="g1245"
               transform="rotate(144.99977,111.77479,8.0998176)">
              <g
                 id="g1247" />
              <g
                 id="g1249"
                 transform="translate(-207.981,49.377)" />
            </g>
          </g>
          <g
             id="g1251">
            <g
               id="g1253">
              <path
                 d="m 208.46849,-46.84915 1.72491,-1.20783 c 1.02591,-0.71835 2.43992,-0.46901 3.15827,0.55692 l 1.20783,1.7249 c 0.71835,1.02592 0.469,2.43992 -0.5569,3.15828 l -1.72492,1.20782 c -1.02593,0.71836 -2.43991,0.46901 -3.15826,-0.55691 l -1.20784,-1.7249 c -0.71836,-1.02593 -0.46901,-2.43993 0.55691,-3.15828 z"
                 style="fill:#000000;fill-opacity:1;fill-rule:nonzero;stroke:#000000;stroke-width:0.3985;stroke-linecap:butt;stroke-linejoin:miter;stroke-miterlimit:10;stroke-dasharray:none;stroke-opacity:1"
                 id="path1255" />
            </g>
            <g
               id="g1257"
               transform="rotate(144.99977,112.66866,10.934497)">
              <g
                 id="g1259" />
              <g
                 id="g1261"
                 transform="translate(-211.233,44.733)" />
            </g>
          </g>
          <g
             id="g1263">
            <g
               id="g1265">
              <path
                 d="m 209.84818,-44.97765 1.63198,-1.14273 1.14275,1.63199 -1.63201,1.14273 z"
                 style="fill:#bf8040;fill-opacity:1;fill-rule:nonzero;stroke:#000000;stroke-width:0.3985;stroke-linecap:butt;stroke-linejoin:miter;stroke-miterlimit:10;stroke-dasharray:none;stroke-opacity:1"
                 id="path1267" />
            </g>
            <g
               id="g1269"
               transform="matrix(-0.24574,0.17207,-0.17207,-0.24574,211.233,-44.733)">
              <g
                 id="g1271" />
              <g
                 id="g1273"
                 transform="translate(-211.233,44.733)" />
            </g>
          </g>
          <g
             id="g1275" />
          <g
             id="g1277">
            <g
               id="g1279">
              <path
                 d="m 207.98373,-49.37706 c -10.16244,7.11583 -18.18437,7.05756 -28.34681,14.17339"
                 style="fill:none;stroke:#ffffff;stroke-width:0.99628;stroke-linecap:round;stroke-linejoin:miter;stroke-miterlimit:10;stroke-dasharray:none;stroke-opacity:1"
                 id="path1281" />
            </g>
          </g>
          <g
             id="g1283">
            <path
               d="m 207.98373,-49.37706 c -10.16244,7.11583 -18.18437,7.05756 -28.34681,14.17339"
               style="fill:none;stroke:#000000;stroke-width:0.49814;stroke-linecap:round;stroke-linejoin:miter;stroke-miterlimit:10;stroke-dasharray:none;stroke-opacity:1"
               id="path1285" />
          </g>
          <g
             id="g1287">
            <g
               id="g1289">
              <path
                 d="m 204.73192,-54.02112 c -10.04987,7.037 -15.04512,11.78044 -25.095,18.81745"
                 style="fill:none;stroke:#ffffff;stroke-width:0.99628;stroke-linecap:round;stroke-linejoin:miter;stroke-miterlimit:10;stroke-dasharray:none;stroke-opacity:1"
                 id="path1291" />
            </g>
          </g>
          <g
             id="g1293">
            <path
               d="m 204.73192,-54.02112 c -10.04987,7.037 -15.04512,11.78044 -25.095,18.81745"
               style="fill:none;stroke:#000000;stroke-width:0.49814;stroke-linecap:round;stroke-linejoin:miter;stroke-miterlimit:10;stroke-dasharray:none;stroke-opacity:1"
               id="path1295" />
          </g>
          <g
             id="g1297">
            <g
               id="g1299">
              <g
                 id="g1301">
                <g
                   id="g1303"
                   transform="matrix(0.0975,0.13925,-0.13925,0.0975,213.089,-52.954)">
                  <g
                     id="g1305" />
                  <g
                     id="g1307"
                     transform="translate(-213.089,52.954)" />
                </g>
              </g>
              <g
                 id="g1309">
                <g
                   id="g1311">
                  <path
                     d="m 213.09216,-52.95387 -0.78946,0.55276"
                     style="fill:none;stroke:#ffffff;stroke-width:0.28346;stroke-linecap:round;stroke-linejoin:miter;stroke-miterlimit:10;stroke-dasharray:none;stroke-opacity:1"
                     id="path1313" />
                </g>
                <g
                   id="g1315">
                  <path
                     d="m 212.26299,-54.13808 1.65835,2.36841"
                     style="fill:none;stroke:#ffffff;stroke-width:0.28346;stroke-linecap:round;stroke-linejoin:miter;stroke-miterlimit:10;stroke-dasharray:none;stroke-opacity:1"
                     id="path1317" />
                </g>
                <g
                   id="g1319">
                  <path
                     d="m 212.93413,-54.01973 1.10556,1.5789"
                     style="fill:none;stroke:#ffffff;stroke-width:0.28346;stroke-linecap:round;stroke-linejoin:miter;stroke-miterlimit:10;stroke-dasharray:none;stroke-opacity:1"
                     id="path1321" />
                </g>
                <g
                   id="g1323">
                  <path
                     d="m 213.60521,-53.9014 0.55281,0.78949"
                     style="fill:none;stroke:#ffffff;stroke-width:0.28346;stroke-linecap:round;stroke-linejoin:miter;stroke-miterlimit:10;stroke-dasharray:none;stroke-opacity:1"
                     id="path1325" />
                </g>
              </g>
            </g>
          </g>
          <g
             id="g1327">
            <g
               id="g1329">
              <g
                 id="g1331">
                <g
                   id="g1333"
                   transform="matrix(0.0975,0.13925,-0.13925,0.0975,214.809,-39.624)">
                  <g
                     id="g1335" />
                  <g
                     id="g1337"
                     transform="translate(-214.809,39.624)" />
                </g>
              </g>
              <g
                 id="g1339">
                <g
                   id="g1341">
                  <path
                     d="m 215.60167,-40.17735 -1.5789,1.10555"
                     style="fill:none;stroke:#ffffff;stroke-width:0.28346;stroke-linecap:round;stroke-linejoin:miter;stroke-miterlimit:10;stroke-dasharray:none;stroke-opacity:1"
                     id="path1343" />
                </g>
                <g
                   id="g1345">
                  <path
                     d="m 214.25945,-40.41403 1.10554,1.57892"
                     style="fill:none;stroke:#ffffff;stroke-width:0.28346;stroke-linecap:round;stroke-linejoin:miter;stroke-miterlimit:10;stroke-dasharray:none;stroke-opacity:1"
                     id="path1347" />
                </g>
              </g>
            </g>
          </g>
          <g
             id="g1349">
            <g
               id="g1351">
              <g
                 id="g1353">
                <g
                   id="g1355"
                   transform="matrix(0.0975,0.13925,-0.13925,0.0975,201.153,-59.129)">
                  <g
                     id="g1357" />
                  <g
                     id="g1359"
                     transform="translate(-201.153,59.129)" />
                </g>
              </g>
              <g
                 id="g1361">
                <g
                   id="g1363">
                  <path
                     d="m 200.60248,-59.91902 1.10554,1.57892"
                     style="fill:none;stroke:#ffffff;stroke-width:0.28346;stroke-linecap:round;stroke-linejoin:miter;stroke-miterlimit:10;stroke-dasharray:none;stroke-opacity:1"
                     id="path1365" />
                </g>
              </g>
            </g>
          </g>
        </g>
      </g>
    </g>
  </g>
</svg>
