<?xml version="1.0" encoding="UTF-8" standalone="no"?>
<!-- Created with Inkscape (http://www.inkscape.org/) -->

<svg
   width="99.378967mm"
   height="60.72831mm"
   viewBox="0 0 99.37897 60.72831"
   version="1.1"
   id="svg5"
   xml:space="preserve"
   inkscape:version="1.2.1 (9c6d41e410, 2022-07-14, custom)"
   sodipodi:docname="neuron_filled.svg"
   xmlns:inkscape="http://www.inkscape.org/namespaces/inkscape"
   xmlns:sodipodi="http://sodipodi.sourceforge.net/DTD/sodipodi-0.dtd"
   xmlns="http://www.w3.org/2000/svg"
   xmlns:svg="http://www.w3.org/2000/svg"><sodipodi:namedview
     id="namedview7"
     pagecolor="#ffffff"
     bordercolor="#666666"
     borderopacity="1.0"
     inkscape:showpageshadow="2"
     inkscape:pageopacity="0.0"
     inkscape:pagecheckerboard="0"
     inkscape:deskcolor="#d1d1d1"
     inkscape:document-units="mm"
     showgrid="false"
     inkscape:zoom="2.070118"
     inkscape:cx="196.36561"
     inkscape:cy="107.24026"
     inkscape:window-width="1920"
     inkscape:window-height="997"
     inkscape:window-x="0"
     inkscape:window-y="83"
     inkscape:window-maximized="1"
     inkscape:current-layer="layer1" /><defs
     id="defs2" /><g
     inkscape:label="Layer 1"
     inkscape:groupmode="layer"
     id="layer1"
     transform="translate(-34.135261,-107.61458)"><path
       id="path233"
       style="opacity:1;fill:#5a205a;fill-opacity:1;stroke:#5a205a;stroke-width:0.864999;stroke-linecap:butt;stroke-linejoin:miter;stroke-dasharray:none;stroke-opacity:1"
       d="m 92.805361,136.68504 c -1.614941,-3.0632 -4.403938,-5.85005 -11.608362,-7.19048 -5.300822,-0.98624 -9.216158,-2.34086 -10.687272,-4.92085 -1.615102,-2.83251 -1.516843,-4.02104 -1.432529,-6.60196 0.06361,-1.24578 0.27819,-3.19606 0.696882,-3.88903 0.603402,-0.99869 1.004497,-2.05736 0.939715,-3.2075 -0.130071,-1.59845 -1.197742,-2.86483 -3.324541,-2.82735 -2.284178,0.0403 -3.577241,0.86779 -3.712436,2.76458 -0.168028,2.35743 0.555716,2.60336 1.073317,4.57066 0.350393,1.23013 0.319029,3.07236 0.06802,4.93468 -0.296305,2.19836 -0.108657,3.02915 -1.087591,5.98393 -1.220965,3.68531 -2.21679,5.51251 -10.051931,5.99268 -7.706841,0.47231 -8.089111,0.70309 -10.408726,0.83511 -1.929659,0.10982 -2.382952,0.0789 -3.387384,-0.29844 -1.119077,-0.49572 -1.58982,-0.53514 -2.921461,-0.54709 -1.56803,0.0512 -2.423445,2.01704 -2.392447,3.50581 0.03218,1.54537 0.750859,3.59086 2.350636,3.73679 1.490385,0.13596 2.18434,-0.1621 2.806156,-0.68937 0.697439,-0.55738 1.583737,-0.58879 2.381714,-0.6427 0.988543,-0.0641 2.093911,-0.15765 4.640812,0.0383 2.715396,0.20896 3.582807,0.65959 4.437643,1.45105 2.070636,1.91713 4.156473,3.56654 4.48789,5.9611 0.376691,2.72167 -1.076437,5.62258 -2.567029,8.8263 -1.08654,2.33529 -1.239404,2.51143 -2.214036,3.26332 -1.107269,0.85421 -1.822101,1.06321 -2.744885,1.34458 -1.119816,0.33455 -2.258785,0.80993 -2.917572,2.21578 -0.753931,1.30799 -0.484789,2.77315 0.413295,4.05168 1.137894,1.61993 3.770103,1.67498 5.19109,0.61933 1.082148,-0.80392 1.286097,-1.80089 1.846064,-3.27421 0.577406,-1.58169 1.888591,-2.6504 4.283664,-3.98604 2.425728,-1.35273 4.510756,-2.57722 6.933997,-3.38396 4.946167,-1.6548 6.650519,-1.68067 13.190151,-1.65153 5.213404,0.0232 7.049628,0.38789 11.620415,0.15621 5.799771,-0.22609 7.721431,-1.49796 12.89385,-0.25331 5.03562,1.21173 7.90221,2.62739 11.48509,4.34215 4.34641,1.97205 7.46637,3.179 8.25225,5.83643 0.60149,2.14832 2.76424,3.67691 5.04024,4.03761 3.01806,0.47829 4.6118,-0.45845 5.84145,-2.73211 1.16786,-2.15939 1.09989,-4.33419 0.0953,-5.88898 -1.05548,-1.63355 -2.78162,-2.56339 -5.21522,-2.74131 -1.25524,-0.0918 -2.39359,0.0573 -3.9532,-0.22183 -1.63411,-0.28756 -4.80405,-1.74033 -8.93499,-3.89355 -2.79658,-1.49652 -4.62818,-3.22233 -11.25645,-6.07027 -6.849252,-3.28473 -7.871,-5.23016 -10.151589,-9.55594 z"
       sodipodi:nodetypes="ssscscsscssssccssccsssssccsscscscsccsssscccss" /></g></svg>
