<?xml version="1.0" encoding="UTF-8" standalone="no"?>
<!-- Created with Inkscape (http://www.inkscape.org/) -->

<svg
   width="98.32724mm"
   height="62.107586mm"
   viewBox="0 0 98.327243 62.107586"
   version="1.1"
   id="svg5"
   xml:space="preserve"
   inkscape:version="1.2.1 (9c6d41e410, 2022-07-14, custom)"
   sodipodi:docname="neuron.svg"
   xmlns:inkscape="http://www.inkscape.org/namespaces/inkscape"
   xmlns:sodipodi="http://sodipodi.sourceforge.net/DTD/sodipodi-0.dtd"
   xmlns="http://www.w3.org/2000/svg"
   xmlns:svg="http://www.w3.org/2000/svg"><sodipodi:namedview
     id="namedview7"
     pagecolor="#ffffff"
     bordercolor="#666666"
     borderopacity="1.0"
     inkscape:showpageshadow="2"
     inkscape:pageopacity="0.0"
     inkscape:pagecheckerboard="0"
     inkscape:deskcolor="#d1d1d1"
     inkscape:document-units="mm"
     showgrid="false"
     inkscape:zoom="256"
     inkscape:cx="370.31836"
     inkscape:cy="202.83203"
     inkscape:window-width="1920"
     inkscape:window-height="1017"
     inkscape:window-x="0"
     inkscape:window-y="63"
     inkscape:window-maximized="1"
     inkscape:current-layer="layer1" /><defs
     id="defs2" /><g
     inkscape:label="Layer 1"
     inkscape:groupmode="layer"
     id="layer1"
     transform="translate(-34.314604,-106.8839)"><path
       id="path233"
       style="opacity:1;fill:none;stroke:#000000;stroke-width:0.864999;stroke-linecap:butt;stroke-linejoin:miter;stroke-dasharray:none;stroke-opacity:1"
       d="m 92.805361,136.68504 c -1.614941,-3.0632 -4.403938,-5.85005 -11.608362,-7.19048 -5.300822,-0.98624 -9.216158,-2.34086 -10.687272,-4.92085 -1.615102,-2.83251 -1.516843,-4.02104 -1.432529,-6.60196 0.06361,-1.24578 0.27819,-3.19606 0.696882,-3.88903 0.603402,-0.99869 1.004497,-2.05736 0.939715,-3.2075 -0.130071,-1.59845 -1.197742,-2.86483 -3.324541,-2.82735 -2.284178,0.0403 -3.577241,0.86779 -3.712436,2.76458 -0.168028,2.35743 0.555716,2.60336 1.073317,4.57066 0.350393,1.23013 0.319029,3.07236 0.06802,4.93468 -0.296305,2.19836 -0.108657,3.02915 -1.087591,5.98393 -1.220965,3.68531 -2.21679,5.51251 -10.051931,5.99268 -7.706841,0.47231 -8.089111,0.70309 -10.408726,0.83511 -1.929659,0.10982 -2.382952,0.0789 -3.387384,-0.29844 -1.119077,-0.49572 -1.58982,-0.53514 -2.921461,-0.54709 -1.56803,0.0512 -2.423445,2.01704 -2.392447,3.50581 0.03218,1.54537 0.750859,3.59086 2.350636,3.73679 1.490385,0.13596 2.18434,-0.1621 2.806156,-0.68937 0.697439,-0.55738 1.583737,-0.58879 2.381714,-0.6427 0.988543,-0.0641 2.093911,-0.15765 4.640812,0.0383 2.715396,0.20896 3.582807,0.65959 4.437643,1.45105 2.070636,1.91713 4.156473,3.56654 4.48789,5.9611 0.376691,2.72167 -1.076437,5.62258 -2.567029,8.8263 -1.08654,2.33529 -1.239404,2.51143 -2.214036,3.26332 -1.107269,0.85421 -1.822101,1.06321 -2.744885,1.34458 -1.119816,0.33455 -2.258785,0.80993 -2.917572,2.21578 -0.753931,1.30799 -0.484789,2.77315 0.413295,4.05168 1.137894,1.61993 3.770103,1.67498 5.19109,0.61933 1.082148,-0.80392 1.286097,-1.80089 1.846064,-3.27421 0.577406,-1.58169 1.888591,-2.6504 4.283664,-3.98604 2.425728,-1.35273 4.510756,-2.57722 6.933997,-3.38396 4.946167,-1.6548 6.650519,-1.68067 13.190151,-1.65153 5.213404,0.0232 7.049628,0.38789 11.620415,0.15621 5.799771,-0.22609 7.721431,-1.49796 12.89385,-0.25331 5.03562,1.21173 7.90221,2.62739 11.48509,4.34215 4.34641,1.97205 7.46637,3.179 8.25225,5.83643 0.60149,2.14832 2.76424,3.67691 5.04024,4.03761 3.01806,0.47829 4.6118,-0.45845 5.84145,-2.73211 1.16786,-2.15939 1.09989,-4.33419 0.0953,-5.88898 -1.05548,-1.63355 -2.78162,-2.56339 -5.21522,-2.74131 -1.25524,-0.0918 -2.39359,0.0573 -3.9532,-0.22183 -1.63411,-0.28756 -4.80405,-1.74033 -8.93499,-3.89355 -2.79658,-1.49652 -4.62818,-3.22233 -11.25645,-6.07027 -6.849252,-3.28473 -7.871,-5.23016 -10.151589,-9.55594 z"
       sodipodi:nodetypes="ssscscsscssssccssccsssssccsscscscsccsssscccss" /><path
       style="fill:#5a205a;fill-opacity:1;fill-rule:evenodd;stroke-width:1.4554;stroke-linejoin:round;stroke-dasharray:1.4554, 8.73241"
       d="m 349.36596,228.38487 c -7.73232,-0.84074 -14.92912,-5.73976 -17.65181,-12.01598 -4.92454,-11.3518 -7.3494,-13.27518 -30.15439,-23.91812 -24.45873,-11.41474 -35.45047,-15.46822 -50.1536,-18.49543 -7.88149,-1.62271 -16.99832,-1.58393 -29.62618,0.12603 -9.44971,1.2796 -11.42124,1.33381 -49.2201,1.3534 -38.97411,0.0202 -39.4379,0.0341 -45.43217,1.35886 -12.32667,2.72431 -23.02711,6.73855 -34.263672,12.85391 -11.212739,6.1024 -15.62678,8.86397 -18.857147,11.79765 -3.639259,3.30504 -5.239648,5.86163 -7.685452,12.27741 -2.839149,7.44758 -6.176034,10.08409 -12.762859,10.08409 -6.385047,0 -10.30301,-3.31911 -11.669898,-9.88619 -0.589529,-2.83233 -0.524618,-3.44238 0.657339,-6.17788 1.663916,-3.85095 4.723774,-6.61986 9.059327,-8.19792 1.872943,-0.68171 4.514073,-1.64724 5.869175,-2.14562 3.623447,-1.33263 9.21708,-5.6802 11.072556,-8.60599 2.275416,-3.58795 9.458696,-19.30539 11.556109,-25.28546 3.489028,-9.94774 3.495791,-17.45391 0.02206,-24.4495 -1.344618,-2.70784 -3.543958,-5.30551 -9.203742,-10.87069 -8.012882,-7.87895 -10.240781,-9.31019 -16.545816,-10.62938 -5.69145,-1.1908 -19.742528,-1.70399 -26.251415,-0.95876 -4.628675,0.52995 -5.966132,0.93691 -8.77318,2.66952 -2.895604,1.78725 -3.782579,2.04425 -7.055262,2.04425 -4.5789882,0 -6.0860672,-1.00034 -7.9161302,-5.25444 -2.3918076,-5.5599 -1.4799752,-12.54768 2.1290092,-16.315545 1.3640441,-1.424093 1.9316045,-1.592415 5.369404,-1.592415 2.60944,0 5.174981,0.464968 7.987628,1.44765 4.990026,1.74341 11.422681,1.90397 24.432343,0.60984 4.618004,-0.459371 14.259353,-1.245375 21.42522,-1.746679 15.691113,-1.097701 20.952951,-1.740284 26.520474,-3.238741 11.429309,-3.076105 16.147039,-7.861851 20.598769,-20.89575 2.09205,-6.125176 3.00137,-10.866907 4.14845,-21.63253 1.26698,-11.890928 0.96087,-18.231834 -1.16013,-24.03099 -3.85806,-10.548551 -4.05566,-15.122593 -0.81287,-18.8159326 2.1201,-2.4146624 4.61652,-3.2805791 9.65166,-3.3478089 10.21868,-0.1364412 13.60893,7.0121265 8.56375,18.0572505 -2.63463,5.767824 -3.80333,12.39288 -3.80941,21.594554 -0.005,8.113344 0.67107,11.140577 4.06248,18.180904 3.595,7.462954 6.91933,10.665312 15.26325,14.703225 6.84935,3.314632 12.60806,5.04806 26.12639,7.864295 17.69217,3.685758 27.77972,7.943059 35.4314,14.953303 4.29333,3.93342 6.60436,7.21235 11.7992,16.74093 2.04968,3.75959 5.22243,8.7553 7.05057,11.10157 5.99006,7.68781 16.81915,15.0928 32.14536,21.9812 10.92906,4.91208 17.68709,8.48223 29.09594,15.37086 11.72934,7.08214 28.42055,15.51238 37.10102,18.73862 6.59478,2.45107 11.14561,3.26637 18.26494,3.27228 9.218,0.008 15.72058,2.032 20.10664,6.25953 7.62231,7.34682 7.11631,19.68378 -1.1707,28.54326 -3.84077,4.10609 -7.96996,5.32411 -15.33453,4.52336 z"
       id="path2409"
       transform="matrix(0.26458333,0,0,0.26458333,34.314604,106.8839)" /><path
       style="fill:#5a205a;fill-opacity:1;fill-rule:evenodd;stroke-width:0.059123;stroke-linejoin:round;stroke-dasharray:0.059123, 0.354738"
       d="m 191.73812,176.0439 c -2.70176,-0.0366 -5.19668,-0.11923 -11.5852,-0.38364 -1.23556,-0.0511 -2.68048,-0.10975 -3.21093,-0.13025 -0.53045,-0.0205 -1.17087,-0.0457 -1.42316,-0.0559 -0.30029,-0.0122 0.47147,-0.0201 2.23471,-0.0228 6.82887,-0.0105 18.72673,-0.0514 21.23324,-0.073 10.51399,-0.0908 14.62368,-0.27366 19.57963,-0.87131 0.52398,-0.0632 1.83128,-0.23125 2.90512,-0.37347 2.08993,-0.27679 3.44419,-0.44437 4.66937,-0.57778 0.42048,-0.0458 0.79891,-0.0879 0.84095,-0.0936 0.0749,-0.0101 0.0764,-0.009 0.0764,0.0812 0,0.11015 0.1439,0.0794 -1.15264,0.24613 -0.54985,0.0707 -1.68779,0.21899 -2.52875,0.32952 -7.45674,0.98007 -11.8254,1.39533 -17.07789,1.62334 -0.45282,0.0197 -1.02973,0.0463 -1.28201,0.0591 -2.01964,0.10278 -4.7322,0.19273 -7.09227,0.23518 -1.08957,0.0196 -4.94539,0.0242 -6.18662,0.007 z"
       id="path2411"
       transform="matrix(0.26458333,0,0,0.26458333,34.314604,106.8839)" /><path
       style="fill:#5a205a;fill-opacity:1;fill-rule:evenodd;stroke-width:0.0356291;stroke-linejoin:round;stroke-dasharray:0.0356291, 0.213775"
       d="m 52.854294,224.32357 c -1.453827,-0.0872 -2.747476,-0.34775 -3.979467,-0.80135 -1.977106,-0.72795 -3.573549,-1.90849 -4.685617,-3.46492 -0.789616,-1.10514 -1.529293,-2.44905 -2.007672,-3.64771 -0.05545,-0.13894 -0.100816,-0.25536 -0.100816,-0.25871 0,-0.003 0.0909,-0.006 0.202004,-0.006 l 0.202005,2e-4 0.07634,0.21598 c 0.04199,0.11878 0.135183,0.36269 0.207106,0.54201 1.061992,2.64785 2.710107,4.5369 4.940322,5.66254 1.279609,0.64585 2.728143,1.03776 4.373219,1.1832 0.532538,0.0471 0.794782,0.0568 1.530982,0.0566 0.88894,-1.7e-4 1.393094,-0.0253 2.13345,-0.10633 2.371112,-0.25953 4.245526,-1.00244 5.802105,-2.2996 0.242667,-0.20223 0.630875,-0.56013 0.770048,-0.70993 l 0.104627,-0.11263 v 0.30581 0.3058 l -0.11695,0.10567 c -1.060667,0.95833 -2.291872,1.68512 -3.745943,2.21125 -1.170721,0.4236 -2.42211,0.68521 -3.820365,0.79865 -0.322703,0.0262 -1.559739,0.0388 -1.885375,0.0193 z"
       id="path2413"
       transform="matrix(0.26458333,0,0,0.26458333,34.314604,106.8839)" /><path
       style="fill:#5a205a;fill-opacity:1;fill-rule:evenodd;stroke-width:0.122418;stroke-linejoin:round;stroke-dasharray:0.122418, 0.734508"
       d=""
       id="path2415"
       transform="matrix(0.26458333,0,0,0.26458333,34.314604,106.8839)" /><path
       style="fill:#5a205a;fill-opacity:1;fill-rule:evenodd;stroke-width:0.122418;stroke-linejoin:round;stroke-dasharray:0.122418, 0.734508"
       d="m 42.033453,215.97123 c -0.118304,-0.28314 -0.400004,-1.25491 -0.503302,-1.73622 -0.179433,-0.83605 -0.255514,-1.55312 -0.256077,-2.41354 -0.0013,-1.914 0.325986,-3.19755 1.309407,-5.13595 1.01647,-2.00354 1.51002,-2.72424 2.637097,-3.85074 1.339162,-1.33847 2.759573,-2.2313 4.868109,-3.05992 0.83194,-0.32694 1.294519,-0.48068 3.975394,-1.32121 3.382341,-1.06046 5.384568,-1.99953 7.866081,-3.68928 2.384514,-1.62371 4.632098,-3.57072 5.608167,-4.8582 1.244739,-1.64186 2.46549,-3.91834 4.831928,-9.01068 0.202952,-0.43673 0.296701,-0.58841 0.370872,-0.60004 0.05459,-0.009 0.09926,-10e-4 0.09926,0.0163 0,0.0694 -1.385873,2.92636 -2.267798,4.67505 -1.92526,3.81741 -2.320812,4.41923 -4.037538,6.14289 -1.058194,1.06248 -2.009887,1.88882 -3.252245,2.82389 -1.857422,1.39799 -3.722914,2.53942 -5.151746,3.15217 -0.281279,0.12062 -1.894381,0.72425 -3.58467,1.34139 -1.690289,0.61715 -3.301252,1.21249 -3.579919,1.32299 -1.548284,0.61396 -3.102125,1.51821 -4.378823,2.54826 -0.498231,0.40197 -1.661595,1.57278 -2.064689,2.0779 -0.496673,0.62238 -1.116301,1.57858 -1.491419,2.30153 -0.656672,1.26558 -1.238427,2.74503 -1.414237,3.59653 -0.226779,1.09835 -0.0012,2.9583 0.613698,5.06088 0.09793,0.33485 0.189291,0.64718 0.203014,0.69406 0.02056,0.0702 -0.0065,0.0852 -0.153686,0.0852 -0.156631,0 -0.187046,-0.0201 -0.24688,-0.16333 z"
       id="path2417"
       transform="matrix(0.26458333,0,0,0.26458333,34.314604,106.8839)" /><path
       style="fill:#5a205a;fill-opacity:1;fill-rule:evenodd;stroke-width:0.122418;stroke-linejoin:round;stroke-dasharray:0.122418, 0.734508"
       d="m 62.467618,220.84486 c -0.0017,-0.2783 0.0026,-0.287 0.314358,-0.64449 0.937089,-1.07449 1.837669,-2.53088 2.627977,-4.2499 0.355386,-0.77301 0.478474,-1.07232 1.41114,-3.43137 0.747035,-1.88952 1.886689,-4.4299 1.956159,-4.36043 0.01479,0.0148 -0.03761,0.15514 -0.116438,0.31188 -0.385528,0.76659 -0.698346,1.56698 -1.796079,4.59551 -1.627877,4.49114 -2.427403,6.03547 -3.919925,7.57153 l -0.475505,0.48937 z"
       id="path2419"
       transform="matrix(0.26458333,0,0,0.26458333,34.314604,106.8839)" /><path
       style="fill:#5a205a;fill-opacity:1;fill-rule:evenodd;stroke-width:0.122418;stroke-linejoin:round;stroke-dasharray:0.122418, 0.734508"
       d="m 69.692803,206.51319 c 0.06377,-0.16618 0.928516,-1.39761 1.359133,-1.93545 1.662595,-2.07658 4.078485,-4.24561 6.853918,-6.15356 2.890338,-1.98694 7.211625,-4.5237 14.19791,-8.33471 7.838151,-4.27569 14.602046,-7.25986 22.015286,-9.71292 2.07358,-0.68616 6.60405,-2.03814 6.82977,-2.03814 0.0342,0 0.062,0.0383 0.0619,0.0852 0,0.0694 -0.19251,0.1388 -1.03501,0.37356 -3.20532,0.89316 -8.70256,2.65802 -11.2984,3.62731 -4.87995,1.82217 -9.742823,4.1472 -16.695292,7.98234 -1.66363,0.9177 -6.818917,3.79744 -8.109613,4.53003 -5.297898,3.00704 -8.628797,5.38872 -11.23058,8.03015 -1.127082,1.14426 -2.010969,2.21873 -2.748393,3.34102 -0.180602,0.27485 -0.25756,0.35355 -0.200609,0.20514 z"
       id="path2421"
       transform="matrix(0.26458333,0,0,0.26458333,34.314604,106.8839)" /><path
       style="fill:#5a205a;fill-opacity:1;fill-rule:evenodd;stroke-width:0.122418;stroke-linejoin:round;stroke-dasharray:0.122418, 0.734508"
       d="m 72.662415,180.26827 c 0.01238,-0.0301 0.432543,-0.93138 0.933704,-2.00292 4.802155,-10.26757 6.63769,-14.90927 7.889943,-19.95208 1.073652,-4.32359 1.353228,-7.90787 0.918261,-11.77248 -0.01706,-0.15154 -0.01809,-0.26383 -0.0023,-0.24952 0.01579,0.0143 0.07827,0.43074 0.138842,0.92542 0.09819,0.80195 0.1102,1.12107 0.110819,2.94508 5.5e-4,1.6239 -0.0169,2.20634 -0.08465,2.82497 -0.502279,4.58665 -1.664234,8.74204 -4.099299,14.65992 -1.349324,3.27923 -3.239125,7.56398 -5.116649,11.60099 -0.403459,0.8675 -0.497869,1.03451 -0.59534,1.05315 -0.07331,0.014 -0.107581,0.002 -0.09334,-0.0325 z"
       id="path2423"
       transform="matrix(0.26458333,0,0,0.26458333,34.314604,106.8839)" /><path
       style="fill:#5a205a;fill-opacity:1;fill-rule:evenodd;stroke-width:0.0326137;stroke-linejoin:round;stroke-dasharray:0.0326137, 0.195682"
       d="m 11.405893,121.83664 c -0.542603,-0.0243 -1.363123,-0.0856 -1.6414625,-0.12263 -1.8578299,-0.24716 -3.435621,-1.40796 -4.7258217,-3.47681 -0.2055493,-0.3296 -0.4712367,-0.8146 -0.6428492,-1.17349 -0.1096586,-0.22933 -0.2548988,-0.55089 -0.2685152,-0.59449 l -0.00912,-0.0292 0.2117342,1.8e-4 0.2117342,1.7e-4 0.08299,0.18473 c 0.140184,0.31205 0.4719179,0.9757 0.6209668,1.24228 0.7701816,1.37749 1.5278446,2.18217 2.5354348,2.69275 0.3330343,0.16877 0.604182,0.27534 0.9742071,0.3829 0.6493668,0.18877 1.3901995,0.29714 2.4106425,0.35263 0.403234,0.0219 2.09764,0.0216 2.530318,-5e-4 1.300358,-0.0664 2.077826,-0.21638 2.974546,-0.57385 0.666343,-0.26564 1.355868,-0.63568 2.585664,-1.38762 0.772751,-0.47249 1.121887,-0.67463 1.609963,-0.93214 1.597683,-0.84293 2.997953,-1.24015 5.611174,-1.59175 0.189125,-0.0254 0.377439,-0.051 0.418476,-0.0567 l 0.07461,-0.0104 v 0.0693 c 0,0.0594 -0.0035,0.0693 -0.02462,0.0693 -0.04399,0 -0.636791,0.0641 -0.903162,0.0976 -1.973024,0.2485 -3.536593,0.69392 -4.891948,1.39359 -0.708905,0.36595 -1.295387,0.75688 -1.959374,1.30603 -1.707673,1.41235 -3.428935,2.03508 -5.968356,2.15925 -0.310941,0.0152 -1.468932,0.0145 -1.817236,-0.001 z"
       id="path2425"
       transform="matrix(0.26458333,0,0,0.26458333,34.314604,106.8839)" /><path
       style="fill:#5a205a;fill-opacity:1;fill-rule:evenodd;stroke-width:0.00981791;stroke-linejoin:round;stroke-dasharray:0.00981791, 0.0589075"
       d="m 26.966894,116.87084 c 0.0021,-0.006 0.0038,-0.0371 0.0038,-0.0701 v -0.0601 l 0.0127,-0.002 c 0.06185,-0.0106 1.042834,-0.12719 1.34668,-0.16008 1.496732,-0.16201 3.451346,-0.26699 5.712891,-0.30683 0.293393,-0.005 0.746131,-0.0117 0.813476,-0.0117 l 0.05176,-2e-5 v 0.0816 0.0816 l -0.07129,0.002 c -0.03921,10e-4 -0.174121,0.005 -0.299805,0.008 -0.342633,0.009 -0.922566,0.0281 -1.058593,0.035 -0.02256,0.001 -0.107813,0.005 -0.189454,0.008 -0.134876,0.005 -0.232073,0.01 -0.484375,0.0214 -0.766673,0.0359 -1.404169,0.0736 -2.875,0.17002 -0.245942,0.0161 -1.121922,0.0739 -1.302734,0.0859 -0.649543,0.0432 -1.157429,0.0816 -1.522792,0.11522 -0.154958,0.0142 -0.142021,0.0141 -0.137267,0.002 z"
       id="path2427"
       transform="matrix(0.26458333,0,0,0.26458333,34.314604,106.8839)" /><path
       style="fill:#5a205a;fill-opacity:1;fill-rule:evenodd;stroke-width:0.0410959;stroke-linejoin:round;stroke-dasharray:0.0410959, 0.246575"
       d="m 4.0983067,116.3973 c -0.1152234,-0.21876 -0.4511137,-1.15235 -0.6397489,-1.77815 -0.6975459,-2.31413 -0.9927031,-4.92288 -0.7927029,-7.00632 0.1492836,-1.55512 0.5659127,-3.19811 1.1700868,-4.61427 0.8153242,-1.9111 1.9306305,-3.404551 3.2306544,-4.326023 l 0.1665562,-0.118056 0.3811958,2.47e-4 0.3811958,2.48e-4 -0.1683534,0.0897 C 7.4568287,98.84199 7.1981503,99.048177 6.7104578,99.534795 6.5072651,99.73754 6.246978,100.01379 6.1320416,100.14868 c -1.2060056,1.41542 -2.0960984,3.22048 -2.6083048,5.28949 -0.2515713,1.0162 -0.3991673,2.03778 -0.4594738,3.18023 -0.024262,0.45962 -0.010146,1.66564 0.024592,2.10108 0.1577527,1.97744 0.5977529,3.77664 1.3344048,5.45651 0.053756,0.12259 0.097738,0.22897 0.097738,0.2364 0,0.007 -0.091714,0.0135 -0.2038098,0.0135 -0.1774625,0 -0.2057581,-0.004 -0.2188812,-0.0286 z"
       id="path2429"
       transform="matrix(0.26458333,0,0,0.26458333,34.314604,106.8839)" /><path
       style="fill:#5a205a;fill-opacity:1;fill-rule:evenodd;stroke-width:0.0410959;stroke-linejoin:round;stroke-dasharray:0.0410959, 0.246575"
       d="m 22.212569,100.26461 c -0.918376,-0.21564 -1.427604,-0.363771 -2.534375,-0.737237 -0.945111,-0.318917 -1.584313,-0.507902 -2.379042,-0.703385 -1.610272,-0.396084 -2.990556,-0.596076 -4.578225,-0.663345 -0.519112,-0.02199 -2.279331,-0.01103 -2.7224094,0.01695 -0.8629502,0.05451 -1.375059,0.142044 -1.8316089,0.313081 l -0.1720022,0.06444 -0.3747578,-0.0044 -0.3747577,-0.0044 0.1379898,-0.08409 c 0.7886807,-0.480588 1.5402268,-0.729534 2.4352779,-0.806674 0.3070023,-0.02646 2.4464723,0.01511 3.3927923,0.06592 2.552534,0.137054 4.195723,0.549346 6.89877,1.730968 0.500895,0.218964 1.59397,0.606372 2.421189,0.858112 0.219614,0.0668 0.06913,0.0451 -0.318841,-0.0459 z"
       id="path2431"
       transform="matrix(0.26458333,0,0,0.26458333,34.314604,106.8839)" /><path
       style="fill:#5a205a;fill-opacity:1;fill-rule:evenodd;stroke-width:0.00981791;stroke-linejoin:round;stroke-dasharray:0.00981791, 0.0589075"
       d="m 51.765625,117.33171 c -0.122029,-0.0181 -0.670181,-0.0881 -0.974609,-0.12447 -1.656871,-0.1982 -3.485407,-0.35649 -6.025391,-0.52162 -0.588679,-0.0383 -1.547421,-0.0942 -1.976563,-0.11535 -0.02363,-10e-4 -0.05571,-0.003 -0.07129,-0.004 l -0.02832,-0.002 v -0.0817 -0.0817 h 0.0088 c 0.0078,0 0.276975,0.0123 0.516602,0.0235 2.99599,0.14082 5.865672,0.37076 8.09375,0.64854 0.240001,0.0299 0.48967,0.062 0.500976,0.0645 l 0.0088,0.002 v 0.0995 0.0995 l -0.0088,-4.9e-4 c -0.0048,-2.7e-4 -0.02461,-0.003 -0.04395,-0.006 z"
       id="path2433"
       transform="matrix(0.26458333,0,0,0.26458333,34.314604,106.8839)" /><path
       style="fill:#5a205a;fill-opacity:1;fill-rule:evenodd;stroke-width:0.0331337;stroke-linejoin:round;stroke-dasharray:0.0331337, 0.198802"
       d="m 67.213053,98.207118 c 0,-0.109855 0.0042,-0.146062 0.01687,-0.146062 0.0093,0 0.191696,-0.01173 0.405375,-0.02606 0.671216,-0.04502 3.017154,-0.194037 4.567489,-0.29013 2.510721,-0.155619 3.713794,-0.240287 5.161108,-0.36322 8.998584,-0.764326 15.481409,-2.086346 20.337672,-4.147391 0.168435,-0.07148 0.309328,-0.129973 0.313094,-0.129973 0.0038,0 0.0069,0.03441 0.0069,0.07646 v 0.07646 l -0.286728,0.120291 c -1.450036,0.608335 -3.143918,1.187516 -4.920521,1.682449 -5.428133,1.512191 -10.278806,2.162366 -23.320563,3.125843 -0.344403,0.02544 -0.961363,0.06991 -1.371022,0.0988 -0.409659,0.0289 -0.781911,0.05615 -0.827228,0.06056 l -0.08239,0.008 z"
       id="path2435"
       transform="matrix(0.26458333,0,0,0.26458333,34.314604,106.8839)" /><path
       style="fill:#5a205a;fill-opacity:1;fill-rule:evenodd;stroke-width:0.0232292;stroke-linejoin:round;stroke-dasharray:0.0232292, 0.139375"
       d="m 37.509463,100.68244 c 0,-0.099 9.46e-4,-0.10421 0.01902,-0.10421 0.02376,0 0.661966,-0.0557 1.06232,-0.0927 0.851598,-0.0787 1.69307,-0.1623 2.975988,-0.2955 2.953533,-0.306645 3.677228,-0.380498 4.935334,-0.503649 3.541672,-0.346682 7.753794,-0.703917 12.072622,-1.023893 l 0.533737,-0.03954 v 0.159545 c 0,0.157992 -2.04e-4,0.159588 -0.02079,0.163934 -0.01144,0.0024 -0.137247,0.01301 -0.279577,0.02354 -1.168801,0.08651 -5.024122,0.396583 -7.130356,0.573468 -3.170832,0.266292 -5.143884,0.443122 -7.426107,0.665545 -2.633724,0.25669 -4.528845,0.4214 -6.210757,0.53981 -0.25416,0.0179 -0.477706,0.0337 -0.496768,0.0352 l -0.03466,0.003 z"
       id="path2437"
       transform="matrix(0.26458333,0,0,0.26458333,34.314604,106.8839)" /><path
       style="fill:#5a205a;fill-opacity:1;fill-rule:evenodd;stroke-width:0.0913867;stroke-linejoin:round;stroke-dasharray:0.0913867, 0.54832"
       d="m 59.139558,98.771971 c 0,-0.09202 0.01669,-0.145503 0.04545,-0.14561 0.025,-9.3e-5 0.839008,-0.05696 1.808911,-0.126362 1.855082,-0.132748 6.063233,-0.418869 6.160564,-0.418869 0.04065,0 0.057,0.03568 0.057,0.124366 v 0.124366 l -0.22725,0.02199 c -0.124988,0.0121 -1.258057,0.09573 -2.517931,0.185849 -1.259874,0.09012 -2.926788,0.212422 -3.704252,0.27178 -0.777464,0.05936 -1.460578,0.107925 -1.518031,0.107925 -0.09763,0 -0.104459,-0.0095 -0.104459,-0.14544 z"
       id="path2439"
       transform="matrix(0.26458333,0,0,0.26458333,34.314604,106.8839)" /><path
       style="fill:#5a205a;fill-opacity:1;fill-rule:evenodd;stroke-width:0.0913867;stroke-linejoin:round;stroke-dasharray:0.0913867, 0.54832"
       d="m 109.24365,82.761004 c 0,-0.0069 0.16994,-0.362782 0.37765,-0.79083 1.07682,-2.219159 2.07642,-4.823612 3.29907,-8.595671 1.60787,-4.960549 2.45235,-8.517935 2.95627,-12.453304 0.11347,-0.886107 0.26109,-2.331002 0.47736,-4.672262 0.0924,-0.9999 0.21152,-2.218869 0.26479,-2.70882 l 0.0968,-0.890821 0.13713,-0.01133 0.13714,-0.01133 -0.02,0.138591 c -0.011,0.07623 -0.0937,0.809435 -0.18383,1.629353 -0.722,6.569947 -1.41636,10.859931 -2.36405,14.605696 -0.8559,3.383007 -2.33066,7.679176 -3.71699,10.828132 -0.54714,1.242802 -1.46139,3.077435 -1.46139,2.932599 z"
       id="path2441"
       transform="matrix(0.26458333,0,0,0.26458333,34.314604,106.8839)" /><path
       style="fill:#5a205a;fill-opacity:1;fill-rule:evenodd;stroke-width:0.00981791;stroke-linejoin:round;stroke-dasharray:0.00981791, 0.0589075"
       d="m 98.020743,93.184238 c -6.66e-4,-0.0419 -0.0025,-0.07743 -0.004,-0.07895 -0.0015,-0.0015 -0.01698,0.003 -0.03433,0.0099 -0.01735,0.007 -0.03229,0.01198 -0.0332,0.01108 -9.04e-4,-9.04e-4 0.05585,-0.02693 0.126128,-0.05784 0.867202,-0.38143 1.722088,-0.809448 2.494959,-1.249157 1.35752,-0.772331 2.58009,-1.637612 3.66797,-2.596024 l 0.0781,-0.06883 0.0868,-8.1e-5 0.0868,-8.1e-5 -0.0516,0.04798 c -0.2444,0.22724 -0.61475,0.547383 -0.9188,0.794235 -1.49691,1.215333 -3.21414,2.250339 -5.195314,3.1313 -0.0947,0.04211 -0.285766,0.126056 -0.297617,0.13076 -0.0035,0.0014 -0.005,-0.01742 -0.0059,-0.07434 z"
       id="path2443"
       transform="matrix(0.26458333,0,0,0.26458333,34.314604,106.8839)" /><path
       style="fill:#5a205a;fill-opacity:1;fill-rule:evenodd;stroke-width:0.0193185;stroke-linejoin:round;stroke-dasharray:0.0193185, 0.115911"
       d="m 112.57635,15.50475 c 0,-0.04535 0.017,-0.318545 0.0348,-0.558878 0.18473,-2.491933 0.93569,-4.383799 2.28637,-5.7599773 0.39555,-0.4030129 0.75628,-0.7012632 1.2375,-1.0231488 0.3161,-0.2114367 0.60818,-0.3797732 0.99153,-0.5714608 0.91919,-0.4596261 1.95584,-0.807854 3.18209,-1.0689172 1.35148,-0.2877228 3.01542,-0.4589429 4.68668,-0.4822629 l 0.36318,-0.00507 v 0.2303413 0.2303414 l -0.45541,9.708e-4 c -1.33586,0.00285 -2.60973,0.081156 -3.66441,0.2252619 -2.08344,0.2846688 -3.61073,0.8640375 -4.88844,1.854401 -0.48917,0.3791524 -0.99026,0.8634561 -1.44494,1.3965278 -1.26513,1.4832418 -1.93776,3.0818938 -2.11339,5.0229498 -0.008,0.093 -0.019,0.236544 -0.0236,0.318979 -0.005,0.08243 -0.0101,0.16804 -0.0123,0.190234 l -0.004,0.04035 h -0.0878 -0.0878 z"
       id="path2445"
       transform="matrix(0.26458333,0,0,0.26458333,34.314604,106.8839)" /><path
       style="fill:#5a205a;fill-opacity:1;fill-rule:evenodd;stroke-width:0.0193185;stroke-linejoin:round;stroke-dasharray:0.0193185, 0.115911"
       d="m 114.46393,25.647024 c -0.55406,-1.29278 -0.77131,-1.82766 -0.9915,-2.441111 -0.54702,-1.523998 -0.827,-2.935295 -0.91897,-4.632141 -0.0206,-0.379457 -0.0245,-0.525149 -0.0285,-1.064543 -0.005,-0.639515 0.005,-1.15821 0.0329,-1.677519 l 0.005,-0.09416 h 0.0913 0.0913 l 2e-5,0.305528 c 2.1e-4,2.267749 0.5511,5.015972 1.76527,8.806496 0.0781,0.243778 0.33229,1.017928 0.3464,1.054935 0.003,0.0075 -0.0277,0.0096 -0.13754,0.0096 h -0.1412 l -0.11447,-0.267096 z"
       id="path2447"
       transform="matrix(0.26458333,0,0,0.26458333,34.314604,106.8839)" /><path
       style="fill:#5a205a;fill-opacity:1;fill-rule:evenodd;stroke-width:0.0193185;stroke-linejoin:round;stroke-dasharray:0.0193185, 0.115911"
       d="m 132.65475,25.904717 c 0.0677,-0.176076 0.36497,-0.865583 0.54777,-1.270354 0.56524,-1.251614 0.92019,-2.144222 1.26841,-3.189785 0.66805,-2.005899 1.01803,-3.816206 1.06878,-5.52832 l 0.005,-0.178705 h 0.20757 0.20756 l -0.005,0.420821 c -0.006,0.519452 -0.0235,0.852071 -0.0712,1.331639 -0.14822,1.489065 -0.51682,2.993722 -1.11752,4.561777 -0.43833,1.1442 -1.0235,2.359814 -1.73344,3.600998 l -0.14729,0.257489 -0.11751,0.0021 c -0.0928,0.0017 -0.11673,7.6e-5 -0.11375,-0.0077 z"
       id="path2449"
       transform="matrix(0.26458333,0,0,0.26458333,34.314604,106.8839)" /><path
       style="fill:#5a205a;fill-opacity:1;fill-rule:evenodd;stroke-width:0.0329747;stroke-linejoin:round;stroke-dasharray:0.0329747, 0.197848"
       d="m 135.54147,15.320445 c -0.0104,-0.546104 -0.0409,-0.942735 -0.10836,-1.41364 -0.32879,-2.293626 -1.35571,-4.1066216 -3.04295,-5.3722441 -0.63947,-0.4796742 -1.44576,-0.9132328 -2.26592,-1.2184236 -0.97852,-0.3641185 -2.08317,-0.6108813 -3.264,-0.7291277 -0.49697,-0.049765 -1.06706,-0.086029 -1.3546,-0.086167 l -0.14104,-6.75e-5 V 6.2711819 6.0415884 l 0.23943,1.98e-5 c 0.2766,2.28e-5 0.67992,0.018034 1.04629,0.046725 1.78389,0.1396985 3.39761,0.5985622 4.70585,1.3381195 2.24003,1.2663049 3.72299,3.3611403 4.33252,6.1201363 0.14841,0.671776 0.26239,1.573268 0.26326,2.082167 l 1.9e-4,0.108237 h -0.20135 -0.20135 z"
       id="path2451"
       transform="matrix(0.26458333,0,0,0.26458333,34.314604,106.8839)" /><path
       style="fill:#5a205a;fill-opacity:1;fill-rule:evenodd;stroke-width:0.0329747;stroke-linejoin:round;stroke-dasharray:0.0329747, 0.197848"
       d="m 129.52351,50.494166 c -10e-6,-0.02706 -0.009,-0.235169 -0.0192,-0.462467 -0.0985,-2.124209 -0.0985,-5.166264 6e-5,-7.635623 0.11673,-2.924709 0.37081,-5.512673 0.77991,-7.943934 0.084,-0.499344 0.21594,-1.224953 0.22958,-1.262765 0.004,-0.0097 0.0292,-0.0164 0.0631,-0.0164 h 0.0572 l -0.0373,0.232873 c -0.1307,0.816683 -0.31694,2.220125 -0.42959,3.237268 -0.18962,1.712126 -0.36163,3.85873 -0.42053,5.247851 -0.0359,0.845588 -0.11079,3.338548 -0.13272,4.414755 -0.0166,0.816606 -0.008,3.07486 0.013,3.53574 0.007,0.151531 0.0169,0.371449 0.0219,0.488706 l 0.009,0.213194 h -0.0674 -0.0674 z"
       id="path2453"
       transform="matrix(0.26458333,0,0,0.26458333,34.314604,106.8839)" /><path
       style="fill:#5a205a;fill-opacity:1;fill-rule:evenodd;stroke-width:0.0329747;stroke-linejoin:round;stroke-dasharray:0.0329747, 0.197848"
       d="m 164.36269,84.528659 c -6.5984,-1.669262 -10.62376,-3.089877 -15.68371,-5.535043 -3.4993,-1.690998 -6.0756,-3.253103 -8.03657,-4.872873 -0.98427,-0.813007 -1.9151,-1.72451 -2.7212,-2.664692 -0.89054,-1.038676 -1.67191,-2.137482 -2.50965,-3.52918 l -0.27245,-0.452627 0.0471,-0.0042 c 0.0259,-0.0023 0.0543,-0.0014 0.0632,0.002 0.009,0.0034 0.0624,0.08791 0.11908,0.187829 1.17827,2.077824 2.81321,4.044808 4.83443,5.81626 2.88597,2.529342 6.64791,4.75441 11.3616,6.720028 3.07309,1.281485 6.70299,2.501752 10.68593,3.592293 0.85586,0.234338 2.02027,0.540398 2.69937,0.709516 l 0.27223,0.0678 v 0.08364 c 0,0.07829 -0.002,0.08358 -0.0295,0.08265 -0.0162,-5.51e-4 -0.38965,-0.0921 -0.82982,-0.203456 z"
       id="path2455"
       transform="matrix(0.26458333,0,0,0.26458333,34.314604,106.8839)" /><path
       style="fill:#5a205a;fill-opacity:1;fill-rule:evenodd;stroke-width:0.0329747;stroke-linejoin:round;stroke-dasharray:0.0329747, 0.197848"
       d="m 199.85128,94.731551 c -5.42276,-2.731061 -12.38947,-5.026054 -21.50962,-7.085756 -1.25009,-0.28232 -2.06477,-0.45817 -4.16549,-0.899121 -1.46364,-0.307226 -2.69621,-0.571863 -4.01132,-0.861246 l -0.37719,-0.083 v -0.08203 c 0,-0.04512 0.003,-0.08203 0.006,-0.08203 0.003,0 0.12891,0.02685 0.27879,0.05966 1.86991,0.409354 4.07666,0.855228 6.39283,1.29167 1.7401,0.327892 2.56737,0.492197 3.73909,0.742623 6.83432,1.460667 12.74099,3.336731 17.8099,5.656743 0.59818,0.273783 0.99978,0.465728 1.71539,0.819863 l 0.7183,0.355467 v 0.233814 c 0,0.128598 -0.001,0.233109 -0.003,0.232247 -0.002,-8.62e-4 -0.26895,-0.135369 -0.59367,-0.298903 z"
       id="path2457"
       transform="matrix(0.26458333,0,0,0.26458333,34.314604,106.8839)" /><path
       style="fill:#5a205a;fill-opacity:1;fill-rule:evenodd;stroke-width:0.0156549;stroke-linejoin:round;stroke-dasharray:0.0156549, 0.0939297"
       d="m 365.95992,222.79214 v -0.3714 l 0.0861,-0.10722 c 1.64863,-2.05374 2.96215,-4.34176 3.84649,-6.70022 l 0.0525,-0.14015 0.14698,-0.002 c 0.0808,-9.2e-4 0.14697,-5.4e-4 0.14697,8.4e-4 0,0.009 -0.17474,0.46416 -0.26459,0.6891 -0.20896,0.52312 -0.41203,0.99012 -0.66088,1.51978 -0.10188,0.21684 -0.43664,0.88867 -0.54468,1.09313 -0.71914,1.36082 -1.468,2.57866 -2.23479,3.6344 -0.16497,0.22713 -0.43271,0.58019 -0.54718,0.72154 l -0.0269,0.0333 z"
       id="path2459"
       transform="matrix(0.26458333,0,0,0.26458333,34.314604,106.8839)" /><path
       style="fill:#5a205a;fill-opacity:1;fill-rule:evenodd;stroke-width:0.0157505;stroke-linejoin:round;stroke-dasharray:0.0157505, 0.0945032"
       d="m 352.57786,229.00512 c -1.34566,-0.0404 -2.75662,-0.17854 -4.31773,-0.42288 -2.75371,-0.43101 -5.50295,-1.35945 -7.96492,-2.6898 -0.10857,-0.0587 -0.22278,-0.12098 -0.2538,-0.13849 l -0.0564,-0.0318 0.41529,-1.2e-4 0.41529,-1.1e-4 0.16751,0.0882 c 0.3368,0.17726 0.85331,0.42965 1.22658,0.59937 1.98176,0.90108 4.0872,1.53025 6.20085,1.85301 0.82163,0.12546 1.97939,0.23973 3.0832,0.30431 0.46904,0.0274 1.13173,0.0502 1.46483,0.0503 l 0.15823,4e-5 v 0.1974 0.1974 l -0.18956,-9.8e-4 c -0.10426,-5.5e-4 -0.26148,-0.003 -0.34937,-0.006 z"
       id="path2461"
       transform="matrix(0.26458333,0,0,0.26458333,34.314604,106.8839)" /><path
       style="fill:#5a205a;fill-opacity:1;fill-rule:evenodd;stroke-width:0.0177913;stroke-linejoin:round;stroke-dasharray:0.0177913, 0.106748"
       d="m 353.11956,228.82157 v -0.19818 l 0.35923,-0.005 c 0.50976,-0.007 0.83673,-0.0184 1.24407,-0.0439 2.99279,-0.18718 5.34705,-0.96835 7.46345,-2.47645 1.05813,-0.754 2.04174,-1.6697 3.13116,-2.91495 0.15214,-0.17389 0.3817,-0.4436 0.4762,-0.55946 l 0.0563,-0.069 h 0.0551 0.0551 v 0.30467 0.30468 l -0.0865,0.10765 c -0.27425,0.34139 -0.6084,0.72697 -0.91833,1.05965 -0.1526,0.16381 -0.55593,0.56875 -0.73299,0.73592 -1.20077,1.13368 -2.48118,1.99398 -3.91446,2.63007 -1.54264,0.68464 -3.29137,1.10305 -5.23463,1.25247 -0.5014,0.0386 -0.94723,0.057 -1.57322,0.065 l -0.38047,0.005 z"
       id="path2463"
       transform="matrix(0.26458333,0,0,0.26458333,34.314604,106.8839)" /></g></svg>
