<?xml version="1.0" encoding="UTF-8" standalone="no"?>
<!-- Created with Inkscape (http://www.inkscape.org/) -->

<svg
   version="1.1"
   id="svg2552"
   width="831.49597"
   height="377.952"
   viewBox="0 0 831.49597 377.952"
   sodipodi:docname="synfirering.pdf"
   xmlns:inkscape="http://www.inkscape.org/namespaces/inkscape"
   xmlns:sodipodi="http://sodipodi.sourceforge.net/DTD/sodipodi-0.dtd"
   xmlns="http://www.w3.org/2000/svg"
   xmlns:svg="http://www.w3.org/2000/svg">
  <defs
     id="defs2556">
    <clipPath
       clipPathUnits="userSpaceOnUse"
       id="clipPath2592">
      <path
         d="M 0,0 H 281.70416 V 172.14323 H 0 Z"
         id="path2590" />
    </clipPath>
    <clipPath
       clipPathUnits="userSpaceOnUse"
       id="clipPath2644">
      <path
         d="M 0,0 H 281.70416 V 172.14323 H 0 Z"
         id="path2642" />
    </clipPath>
    <clipPath
       clipPathUnits="userSpaceOnUse"
       id="clipPath2696">
      <path
         d="M 0,0 H 281.70416 V 172.14323 H 0 Z"
         id="path2694" />
    </clipPath>
    <clipPath
       clipPathUnits="userSpaceOnUse"
       id="clipPath2748">
      <path
         d="M 0,0 H 281.70416 V 172.14323 H 0 Z"
         id="path2746" />
    </clipPath>
    <clipPath
       clipPathUnits="userSpaceOnUse"
       id="clipPath2800">
      <path
         d="M 0,0 H 281.70416 V 172.14323 H 0 Z"
         id="path2798" />
    </clipPath>
    <clipPath
       clipPathUnits="userSpaceOnUse"
       id="clipPath2852">
      <path
         d="M 0,0 H 281.70416 V 172.14323 H 0 Z"
         id="path2850" />
    </clipPath>
    <clipPath
       clipPathUnits="userSpaceOnUse"
       id="clipPath2904">
      <path
         d="M 0,0 H 281.70416 V 172.14323 H 0 Z"
         id="path2902" />
    </clipPath>
  </defs>
  <sodipodi:namedview
     id="namedview2554"
     pagecolor="#ffffff"
     bordercolor="#666666"
     borderopacity="1.0"
     inkscape:showpageshadow="2"
     inkscape:pageopacity="0.0"
     inkscape:pagecheckerboard="0"
     inkscape:deskcolor="#d1d1d1" />
  <g
     id="g2558"
     inkscape:groupmode="layer"
     inkscape:label="synfirering5"
     transform="matrix(1.3333333,0,0,-1.3333333,0,377.952)">
    <g
       id="g2560"
       transform="translate(311.811,141.732)">
      <g
         id="g2562">
        <g
           id="g2564">
          <g
             id="g2566">
            <path
               d="M -311.8149,-141.73404 V 141.73404 H 311.8149 V -141.73404 Z"
               style="fill:#ffffff;fill-opacity:1;fill-rule:nonzero;stroke:none"
               id="path2568" />
          </g>
          <g
             id="g2570" />
          <g
             id="g2572" />
          <g
             id="g2574">
            <g
               id="g2576"
               transform="matrix(0.94788,-0.31847,0.31847,0.94788,62.678,80.97)">
              <g
                 id="g2578">
                <g
                   id="g2580"
                   transform="scale(1.3)">
                  <g
                     id="g2582"
                     transform="translate(3.321)">
                    <g
                       id="g2584"
                       transform="scale(0.20125)">
                      <g
                         id="g2586">
                        <g
                           id="g2588" />
                        <g
                           id="g2604">
                          <g
                             clip-path="url(#clipPath2592)"
                             id="g2602">
                            <g
                               transform="matrix(1,0,0,-1,0,172.14323)"
                               id="g2600">
                              <g
                                 id="g2598">
                                <g
                                   id="g2596">
                                <path
                                   d="M 166.309,82.406 C 161.73,73.723 153.824,65.82 133.402,62.023 118.379,59.227 107.277,55.387 103.109,48.074 c -4.578,-8.031 -4.3,-11.398 -4.062,-18.715 0.18,-3.531 0.789,-9.058 1.976,-11.023 1.711,-2.832 2.848,-5.832 2.665,-9.094 -0.368,-4.531 -3.395,-8.121 -9.426,-8.015 -6.473,0.117 -10.137,2.461 -10.524,7.839 -0.476,6.68 1.578,7.379 3.043,12.954 0.996,3.488 0.907,8.71 0.196,13.988 -0.84,6.234 -0.309,8.586 -3.086,16.965 -3.461,10.445 -6.282,15.625 -28.493,16.984 -21.847,1.34 -22.929,1.996 -29.503,2.367 -5.473,0.313 -6.758,0.227 -9.602,-0.844 -3.172,-1.406 -4.508,-1.519 -8.281,-1.55 -4.446,0.144 -6.871,5.718 -6.785,9.937 0.093,4.379 2.128,10.18 6.664,10.594 4.226,0.383 6.191,-0.461 7.957,-1.957 1.976,-1.578 4.488,-1.668 6.75,-1.82 2.8,-0.184 5.933,-0.446 13.156,0.109 7.695,0.59 10.156,1.867 12.578,4.113 5.867,5.434 11.781,10.11 12.723,16.895 1.066,7.719 -3.055,15.941 -7.278,25.019 -3.082,6.621 -3.515,7.121 -6.277,9.254 -3.137,2.418 -5.164,3.012 -7.781,3.809 -3.172,0.949 -6.403,2.297 -8.27,6.281 -2.137,3.707 -1.375,7.863 1.172,11.484 3.227,4.594 10.688,4.75 14.715,1.758 3.066,-2.281 3.644,-5.105 5.234,-9.281 1.637,-4.484 5.352,-7.516 12.141,-11.301 6.875,-3.832 12.785,-7.304 19.656,-9.59 14.02,-4.691 18.852,-4.765 37.391,-4.683 14.777,0.066 19.98,1.101 32.937,0.445 16.442,-0.644 21.887,-4.25 36.551,-0.719 14.274,3.434 22.399,7.446 32.555,12.309 12.32,5.59 21.164,9.012 23.394,16.543 1.703,6.09 7.836,10.422 14.285,11.445 8.555,1.356 13.075,-1.301 16.559,-7.746 3.313,-6.121 3.117,-12.285 0.27,-16.691 -2.993,-4.633 -7.883,-7.266 -14.782,-7.77 -3.558,-0.262 -6.785,0.16 -11.207,-0.629 -4.632,-0.816 -13.617,-4.933 -25.328,-11.039 -7.926,-4.242 -13.117,-9.133 -31.906,-17.207 -19.418,-9.308 -22.313,-14.824 -28.777,-27.086 z"
                                   style="fill:#5a205a;fill-opacity:1;fill-rule:nonzero;stroke:#5a205a;stroke-width:2.45197;stroke-linecap:butt;stroke-linejoin:miter;stroke-miterlimit:4;stroke-dasharray:none;stroke-opacity:1"
                                   id="path2594" />
                                </g>
                              </g>
                            </g>
                          </g>
                        </g>
                      </g>
                    </g>
                    <g
                       id="g2606"
                       transform="translate(-3.321)" />
                  </g>
                </g>
              </g>
              <g
                 id="g2608"
                 transform="translate(-62.678,-80.97)" />
            </g>
          </g>
          <g
             id="g2610" />
          <g
             id="g2612" />
          <g
             id="g2614" />
          <g
             id="g2616" />
          <g
             id="g2618" />
          <g
             id="g2620" />
          <g
             id="g2622" />
          <g
             id="g2624" />
          <g
             id="g2626">
            <g
               id="g2628"
               transform="matrix(0.84,0.54253,-0.54253,0.84,-51.942,77.384)">
              <g
                 id="g2630">
                <g
                   id="g2632"
                   transform="scale(1.3)">
                  <g
                     id="g2634"
                     transform="translate(3.32)">
                    <g
                       id="g2636"
                       transform="scale(0.20125)">
                      <g
                         id="g2638">
                        <g
                           id="g2640" />
                        <g
                           id="g2656">
                          <g
                             clip-path="url(#clipPath2644)"
                             id="g2654">
                            <g
                               transform="matrix(1,0,0,-1,0,172.14323)"
                               id="g2652">
                              <g
                                 id="g2650">
                                <g
                                   id="g2648">
                                <path
                                   d="M 166.309,82.406 C 161.73,73.723 153.824,65.82 133.402,62.023 118.379,59.227 107.277,55.387 103.109,48.074 c -4.578,-8.031 -4.3,-11.398 -4.062,-18.715 0.18,-3.531 0.789,-9.058 1.976,-11.023 1.711,-2.832 2.848,-5.832 2.665,-9.094 -0.368,-4.531 -3.395,-8.121 -9.426,-8.015 -6.473,0.117 -10.137,2.461 -10.524,7.839 -0.476,6.68 1.578,7.379 3.043,12.954 0.996,3.488 0.907,8.71 0.196,13.988 -0.84,6.234 -0.309,8.586 -3.086,16.965 -3.461,10.445 -6.282,15.625 -28.493,16.984 -21.847,1.34 -22.929,1.996 -29.503,2.367 -5.473,0.313 -6.758,0.227 -9.602,-0.844 -3.172,-1.406 -4.508,-1.519 -8.281,-1.55 -4.446,0.144 -6.871,5.718 -6.785,9.937 0.093,4.379 2.128,10.18 6.664,10.594 4.226,0.383 6.191,-0.461 7.957,-1.957 1.976,-1.578 4.488,-1.668 6.75,-1.82 2.8,-0.184 5.933,-0.446 13.156,0.109 7.695,0.59 10.156,1.867 12.578,4.113 5.867,5.434 11.781,10.11 12.723,16.895 1.066,7.719 -3.055,15.941 -7.278,25.019 -3.082,6.621 -3.515,7.121 -6.277,9.254 -3.137,2.418 -5.164,3.012 -7.781,3.809 -3.172,0.949 -6.403,2.297 -8.27,6.281 -2.137,3.707 -1.375,7.863 1.172,11.484 3.227,4.594 10.688,4.75 14.715,1.758 3.066,-2.281 3.644,-5.105 5.234,-9.281 1.637,-4.484 5.352,-7.516 12.141,-11.301 6.875,-3.832 12.785,-7.304 19.656,-9.59 14.02,-4.691 18.852,-4.765 37.391,-4.683 14.777,0.066 19.98,1.101 32.937,0.445 16.442,-0.644 21.887,-4.25 36.551,-0.719 14.274,3.434 22.399,7.446 32.555,12.309 12.32,5.59 21.164,9.012 23.394,16.543 1.703,6.09 7.836,10.422 14.285,11.445 8.555,1.356 13.075,-1.301 16.559,-7.746 3.313,-6.121 3.117,-12.285 0.27,-16.691 -2.993,-4.633 -7.883,-7.266 -14.782,-7.77 -3.558,-0.262 -6.785,0.16 -11.207,-0.629 -4.632,-0.816 -13.617,-4.933 -25.328,-11.039 -7.926,-4.242 -13.117,-9.133 -31.906,-17.207 -19.418,-9.308 -22.313,-14.824 -28.777,-27.086 z"
                                   style="fill:#5a205a;fill-opacity:1;fill-rule:nonzero;stroke:#5a205a;stroke-width:2.45197;stroke-linecap:butt;stroke-linejoin:miter;stroke-miterlimit:4;stroke-dasharray:none;stroke-opacity:1"
                                   id="path2646" />
                                </g>
                              </g>
                            </g>
                          </g>
                        </g>
                      </g>
                    </g>
                    <g
                       id="g2658"
                       transform="translate(-3.32)" />
                  </g>
                </g>
              </g>
              <g
                 id="g2660"
                 transform="translate(51.942,-77.384)" />
            </g>
          </g>
          <g
             id="g2662" />
          <g
             id="g2664" />
          <g
             id="g2666" />
          <g
             id="g2668" />
          <g
             id="g2670" />
          <g
             id="g2672" />
          <g
             id="g2674" />
          <g
             id="g2676" />
          <g
             id="g2678">
            <g
               id="g2680"
               transform="matrix(0.09953,0.99498,-0.99498,0.09953,-127.455,15.524)">
              <g
                 id="g2682">
                <g
                   id="g2684"
                   transform="scale(1.3)">
                  <g
                     id="g2686"
                     transform="translate(3.321)">
                    <g
                       id="g2688"
                       transform="scale(0.20125)">
                      <g
                         id="g2690">
                        <g
                           id="g2692" />
                        <g
                           id="g2708">
                          <g
                             clip-path="url(#clipPath2696)"
                             id="g2706">
                            <g
                               transform="matrix(1,0,0,-1,0,172.14323)"
                               id="g2704">
                              <g
                                 id="g2702">
                                <g
                                   id="g2700">
                                <path
                                   d="M 166.309,82.406 C 161.73,73.723 153.824,65.82 133.402,62.023 118.379,59.227 107.277,55.387 103.109,48.074 c -4.578,-8.031 -4.3,-11.398 -4.062,-18.715 0.18,-3.531 0.789,-9.058 1.976,-11.023 1.711,-2.832 2.848,-5.832 2.665,-9.094 -0.368,-4.531 -3.395,-8.121 -9.426,-8.015 -6.473,0.117 -10.137,2.461 -10.524,7.839 -0.476,6.68 1.578,7.379 3.043,12.954 0.996,3.488 0.907,8.71 0.196,13.988 -0.84,6.234 -0.309,8.586 -3.086,16.965 -3.461,10.445 -6.282,15.625 -28.493,16.984 -21.847,1.34 -22.929,1.996 -29.503,2.367 -5.473,0.313 -6.758,0.227 -9.602,-0.844 -3.172,-1.406 -4.508,-1.519 -8.281,-1.55 -4.446,0.144 -6.871,5.718 -6.785,9.937 0.093,4.379 2.128,10.18 6.664,10.594 4.226,0.383 6.191,-0.461 7.957,-1.957 1.976,-1.578 4.488,-1.668 6.75,-1.82 2.8,-0.184 5.933,-0.446 13.156,0.109 7.695,0.59 10.156,1.867 12.578,4.113 5.867,5.434 11.781,10.11 12.723,16.895 1.066,7.719 -3.055,15.941 -7.278,25.019 -3.082,6.621 -3.515,7.121 -6.277,9.254 -3.137,2.418 -5.164,3.012 -7.781,3.809 -3.172,0.949 -6.403,2.297 -8.27,6.281 -2.137,3.707 -1.375,7.863 1.172,11.484 3.227,4.594 10.688,4.75 14.715,1.758 3.066,-2.281 3.644,-5.105 5.234,-9.281 1.637,-4.484 5.352,-7.516 12.141,-11.301 6.875,-3.832 12.785,-7.304 19.656,-9.59 14.02,-4.691 18.852,-4.765 37.391,-4.683 14.777,0.066 19.98,1.101 32.937,0.445 16.442,-0.644 21.887,-4.25 36.551,-0.719 14.274,3.434 22.399,7.446 32.555,12.309 12.32,5.59 21.164,9.012 23.394,16.543 1.703,6.09 7.836,10.422 14.285,11.445 8.555,1.356 13.075,-1.301 16.559,-7.746 3.313,-6.121 3.117,-12.285 0.27,-16.691 -2.993,-4.633 -7.883,-7.266 -14.782,-7.77 -3.558,-0.262 -6.785,0.16 -11.207,-0.629 -4.632,-0.816 -13.617,-4.933 -25.328,-11.039 -7.926,-4.242 -13.117,-9.133 -31.906,-17.207 -19.418,-9.308 -22.313,-14.824 -28.777,-27.086 z"
                                   style="fill:#5a205a;fill-opacity:1;fill-rule:nonzero;stroke:#5a205a;stroke-width:2.45197;stroke-linecap:butt;stroke-linejoin:miter;stroke-miterlimit:4;stroke-dasharray:none;stroke-opacity:1"
                                   id="path2698" />
                                </g>
                              </g>
                            </g>
                          </g>
                        </g>
                      </g>
                    </g>
                    <g
                       id="g2710"
                       transform="translate(-3.321)" />
                  </g>
                </g>
              </g>
              <g
                 id="g2712"
                 transform="translate(127.455,-15.524)" />
            </g>
          </g>
          <g
             id="g2714" />
          <g
             id="g2716" />
          <g
             id="g2718" />
          <g
             id="g2720" />
          <g
             id="g2722" />
          <g
             id="g2724" />
          <g
             id="g2726" />
          <g
             id="g2728" />
          <g
             id="g2730">
            <g
               id="g2732"
               transform="matrix(-0.71584,0.6982,-0.6982,-0.71584,-106.989,-58.022)">
              <g
                 id="g2734">
                <g
                   id="g2736"
                   transform="scale(1.3)">
                  <g
                     id="g2738"
                     transform="translate(3.321)">
                    <g
                       id="g2740"
                       transform="scale(0.20125)">
                      <g
                         id="g2742">
                        <g
                           id="g2744" />
                        <g
                           id="g2760">
                          <g
                             clip-path="url(#clipPath2748)"
                             id="g2758">
                            <g
                               transform="matrix(1,0,0,-1,0,172.14323)"
                               id="g2756">
                              <g
                                 id="g2754">
                                <g
                                   id="g2752">
                                <path
                                   d="M 166.309,82.406 C 161.73,73.723 153.824,65.82 133.402,62.023 118.379,59.227 107.277,55.387 103.109,48.074 c -4.578,-8.031 -4.3,-11.398 -4.062,-18.715 0.18,-3.531 0.789,-9.058 1.976,-11.023 1.711,-2.832 2.848,-5.832 2.665,-9.094 -0.368,-4.531 -3.395,-8.121 -9.426,-8.015 -6.473,0.117 -10.137,2.461 -10.524,7.839 -0.476,6.68 1.578,7.379 3.043,12.954 0.996,3.488 0.907,8.71 0.196,13.988 -0.84,6.234 -0.309,8.586 -3.086,16.965 -3.461,10.445 -6.282,15.625 -28.493,16.984 -21.847,1.34 -22.929,1.996 -29.503,2.367 -5.473,0.313 -6.758,0.227 -9.602,-0.844 -3.172,-1.406 -4.508,-1.519 -8.281,-1.55 -4.446,0.144 -6.871,5.718 -6.785,9.937 0.093,4.379 2.128,10.18 6.664,10.594 4.226,0.383 6.191,-0.461 7.957,-1.957 1.976,-1.578 4.488,-1.668 6.75,-1.82 2.8,-0.184 5.933,-0.446 13.156,0.109 7.695,0.59 10.156,1.867 12.578,4.113 5.867,5.434 11.781,10.11 12.723,16.895 1.066,7.719 -3.055,15.941 -7.278,25.019 -3.082,6.621 -3.515,7.121 -6.277,9.254 -3.137,2.418 -5.164,3.012 -7.781,3.809 -3.172,0.949 -6.403,2.297 -8.27,6.281 -2.137,3.707 -1.375,7.863 1.172,11.484 3.227,4.594 10.688,4.75 14.715,1.758 3.066,-2.281 3.644,-5.105 5.234,-9.281 1.637,-4.484 5.352,-7.516 12.141,-11.301 6.875,-3.832 12.785,-7.304 19.656,-9.59 14.02,-4.691 18.852,-4.765 37.391,-4.683 14.777,0.066 19.98,1.101 32.937,0.445 16.442,-0.644 21.887,-4.25 36.551,-0.719 14.274,3.434 22.399,7.446 32.555,12.309 12.32,5.59 21.164,9.012 23.394,16.543 1.703,6.09 7.836,10.422 14.285,11.445 8.555,1.356 13.075,-1.301 16.559,-7.746 3.313,-6.121 3.117,-12.285 0.27,-16.691 -2.993,-4.633 -7.883,-7.266 -14.782,-7.77 -3.558,-0.262 -6.785,0.16 -11.207,-0.629 -4.632,-0.816 -13.617,-4.933 -25.328,-11.039 -7.926,-4.242 -13.117,-9.133 -31.906,-17.207 -19.418,-9.308 -22.313,-14.824 -28.777,-27.086 z"
                                   style="fill:#5a205a;fill-opacity:1;fill-rule:nonzero;stroke:#5a205a;stroke-width:2.45197;stroke-linecap:butt;stroke-linejoin:miter;stroke-miterlimit:4;stroke-dasharray:none;stroke-opacity:1"
                                   id="path2750" />
                                </g>
                              </g>
                            </g>
                          </g>
                        </g>
                      </g>
                    </g>
                    <g
                       id="g2762"
                       transform="translate(-3.321)" />
                  </g>
                </g>
              </g>
              <g
                 id="g2764"
                 transform="translate(106.989,58.022)" />
            </g>
          </g>
          <g
             id="g2766" />
          <g
             id="g2768" />
          <g
             id="g2770" />
          <g
             id="g2772" />
          <g
             id="g2774" />
          <g
             id="g2776" />
          <g
             id="g2778" />
          <g
             id="g2780" />
          <g
             id="g2782">
            <g
               id="g2784"
               transform="matrix(-0.9922,-0.12433,0.12433,-0.9922,-5.956,-87.878)">
              <g
                 id="g2786">
                <g
                   id="g2788"
                   transform="scale(1.3)">
                  <g
                     id="g2790"
                     transform="translate(3.321)">
                    <g
                       id="g2792"
                       transform="scale(0.20125)">
                      <g
                         id="g2794">
                        <g
                           id="g2796" />
                        <g
                           id="g2812">
                          <g
                             clip-path="url(#clipPath2800)"
                             id="g2810">
                            <g
                               transform="matrix(1,0,0,-1,0,172.14323)"
                               id="g2808">
                              <g
                                 id="g2806">
                                <g
                                   id="g2804">
                                <path
                                   d="M 166.309,82.406 C 161.73,73.723 153.824,65.82 133.402,62.023 118.379,59.227 107.277,55.387 103.109,48.074 c -4.578,-8.031 -4.3,-11.398 -4.062,-18.715 0.18,-3.531 0.789,-9.058 1.976,-11.023 1.711,-2.832 2.848,-5.832 2.665,-9.094 -0.368,-4.531 -3.395,-8.121 -9.426,-8.015 -6.473,0.117 -10.137,2.461 -10.524,7.839 -0.476,6.68 1.578,7.379 3.043,12.954 0.996,3.488 0.907,8.71 0.196,13.988 -0.84,6.234 -0.309,8.586 -3.086,16.965 -3.461,10.445 -6.282,15.625 -28.493,16.984 -21.847,1.34 -22.929,1.996 -29.503,2.367 -5.473,0.313 -6.758,0.227 -9.602,-0.844 -3.172,-1.406 -4.508,-1.519 -8.281,-1.55 -4.446,0.144 -6.871,5.718 -6.785,9.937 0.093,4.379 2.128,10.18 6.664,10.594 4.226,0.383 6.191,-0.461 7.957,-1.957 1.976,-1.578 4.488,-1.668 6.75,-1.82 2.8,-0.184 5.933,-0.446 13.156,0.109 7.695,0.59 10.156,1.867 12.578,4.113 5.867,5.434 11.781,10.11 12.723,16.895 1.066,7.719 -3.055,15.941 -7.278,25.019 -3.082,6.621 -3.515,7.121 -6.277,9.254 -3.137,2.418 -5.164,3.012 -7.781,3.809 -3.172,0.949 -6.403,2.297 -8.27,6.281 -2.137,3.707 -1.375,7.863 1.172,11.484 3.227,4.594 10.688,4.75 14.715,1.758 3.066,-2.281 3.644,-5.105 5.234,-9.281 1.637,-4.484 5.352,-7.516 12.141,-11.301 6.875,-3.832 12.785,-7.304 19.656,-9.59 14.02,-4.691 18.852,-4.765 37.391,-4.683 14.777,0.066 19.98,1.101 32.937,0.445 16.442,-0.644 21.887,-4.25 36.551,-0.719 14.274,3.434 22.399,7.446 32.555,12.309 12.32,5.59 21.164,9.012 23.394,16.543 1.703,6.09 7.836,10.422 14.285,11.445 8.555,1.356 13.075,-1.301 16.559,-7.746 3.313,-6.121 3.117,-12.285 0.27,-16.691 -2.993,-4.633 -7.883,-7.266 -14.782,-7.77 -3.558,-0.262 -6.785,0.16 -11.207,-0.629 -4.632,-0.816 -13.617,-4.933 -25.328,-11.039 -7.926,-4.242 -13.117,-9.133 -31.906,-17.207 -19.418,-9.308 -22.313,-14.824 -28.777,-27.086 z"
                                   style="fill:#5a205a;fill-opacity:1;fill-rule:nonzero;stroke:#5a205a;stroke-width:2.45197;stroke-linecap:butt;stroke-linejoin:miter;stroke-miterlimit:4;stroke-dasharray:none;stroke-opacity:1"
                                   id="path2802" />
                                </g>
                              </g>
                            </g>
                          </g>
                        </g>
                      </g>
                    </g>
                    <g
                       id="g2814"
                       transform="translate(-3.321)" />
                  </g>
                </g>
              </g>
              <g
                 id="g2816"
                 transform="translate(5.956,87.878)" />
            </g>
          </g>
          <g
             id="g2818" />
          <g
             id="g2820" />
          <g
             id="g2822" />
          <g
             id="g2824" />
          <g
             id="g2826" />
          <g
             id="g2828" />
          <g
             id="g2830" />
          <g
             id="g2832" />
          <g
             id="g2834">
            <g
               id="g2836"
               transform="matrix(-0.5214,-0.85324,0.85324,-0.5214,99.56,-51.558)">
              <g
                 id="g2838">
                <g
                   id="g2840"
                   transform="scale(1.3)">
                  <g
                     id="g2842"
                     transform="translate(3.321)">
                    <g
                       id="g2844"
                       transform="scale(0.20125)">
                      <g
                         id="g2846">
                        <g
                           id="g2848" />
                        <g
                           id="g2864">
                          <g
                             clip-path="url(#clipPath2852)"
                             id="g2862">
                            <g
                               transform="matrix(1,0,0,-1,0,172.14323)"
                               id="g2860">
                              <g
                                 id="g2858">
                                <g
                                   id="g2856">
                                <path
                                   d="M 166.309,82.406 C 161.73,73.723 153.824,65.82 133.402,62.023 118.379,59.227 107.277,55.387 103.109,48.074 c -4.578,-8.031 -4.3,-11.398 -4.062,-18.715 0.18,-3.531 0.789,-9.058 1.976,-11.023 1.711,-2.832 2.848,-5.832 2.665,-9.094 -0.368,-4.531 -3.395,-8.121 -9.426,-8.015 -6.473,0.117 -10.137,2.461 -10.524,7.839 -0.476,6.68 1.578,7.379 3.043,12.954 0.996,3.488 0.907,8.71 0.196,13.988 -0.84,6.234 -0.309,8.586 -3.086,16.965 -3.461,10.445 -6.282,15.625 -28.493,16.984 -21.847,1.34 -22.929,1.996 -29.503,2.367 -5.473,0.313 -6.758,0.227 -9.602,-0.844 -3.172,-1.406 -4.508,-1.519 -8.281,-1.55 -4.446,0.144 -6.871,5.718 -6.785,9.937 0.093,4.379 2.128,10.18 6.664,10.594 4.226,0.383 6.191,-0.461 7.957,-1.957 1.976,-1.578 4.488,-1.668 6.75,-1.82 2.8,-0.184 5.933,-0.446 13.156,0.109 7.695,0.59 10.156,1.867 12.578,4.113 5.867,5.434 11.781,10.11 12.723,16.895 1.066,7.719 -3.055,15.941 -7.278,25.019 -3.082,6.621 -3.515,7.121 -6.277,9.254 -3.137,2.418 -5.164,3.012 -7.781,3.809 -3.172,0.949 -6.403,2.297 -8.27,6.281 -2.137,3.707 -1.375,7.863 1.172,11.484 3.227,4.594 10.688,4.75 14.715,1.758 3.066,-2.281 3.644,-5.105 5.234,-9.281 1.637,-4.484 5.352,-7.516 12.141,-11.301 6.875,-3.832 12.785,-7.304 19.656,-9.59 14.02,-4.691 18.852,-4.765 37.391,-4.683 14.777,0.066 19.98,1.101 32.937,0.445 16.442,-0.644 21.887,-4.25 36.551,-0.719 14.274,3.434 22.399,7.446 32.555,12.309 12.32,5.59 21.164,9.012 23.394,16.543 1.703,6.09 7.836,10.422 14.285,11.445 8.555,1.356 13.075,-1.301 16.559,-7.746 3.313,-6.121 3.117,-12.285 0.27,-16.691 -2.993,-4.633 -7.883,-7.266 -14.782,-7.77 -3.558,-0.262 -6.785,0.16 -11.207,-0.629 -4.632,-0.816 -13.617,-4.933 -25.328,-11.039 -7.926,-4.242 -13.117,-9.133 -31.906,-17.207 -19.418,-9.308 -22.313,-14.824 -28.777,-27.086 z"
                                   style="fill:#5a205a;fill-opacity:1;fill-rule:nonzero;stroke:#5a205a;stroke-width:2.45197;stroke-linecap:butt;stroke-linejoin:miter;stroke-miterlimit:4;stroke-dasharray:none;stroke-opacity:1"
                                   id="path2854" />
                                </g>
                              </g>
                            </g>
                          </g>
                        </g>
                      </g>
                    </g>
                    <g
                       id="g2866"
                       transform="translate(-3.321)" />
                  </g>
                </g>
              </g>
              <g
                 id="g2868"
                 transform="translate(-99.56,51.558)" />
            </g>
          </g>
          <g
             id="g2870" />
          <g
             id="g2872" />
          <g
             id="g2874" />
          <g
             id="g2876" />
          <g
             id="g2878" />
          <g
             id="g2880" />
          <g
             id="g2882" />
          <g
             id="g2884" />
          <g
             id="g2886">
            <g
               id="g2888"
               transform="matrix(0.34203,-0.9397,0.9397,0.34203,130.113,23.587)">
              <g
                 id="g2890">
                <g
                   id="g2892"
                   transform="scale(1.3)">
                  <g
                     id="g2894"
                     transform="translate(3.321)">
                    <g
                       id="g2896"
                       transform="scale(0.20125)">
                      <g
                         id="g2898">
                        <g
                           id="g2900" />
                        <g
                           id="g2916">
                          <g
                             clip-path="url(#clipPath2904)"
                             id="g2914">
                            <g
                               transform="matrix(1,0,0,-1,0,172.14323)"
                               id="g2912">
                              <g
                                 id="g2910">
                                <g
                                   id="g2908">
                                <path
                                   d="M 166.309,82.406 C 161.73,73.723 153.824,65.82 133.402,62.023 118.379,59.227 107.277,55.387 103.109,48.074 c -4.578,-8.031 -4.3,-11.398 -4.062,-18.715 0.18,-3.531 0.789,-9.058 1.976,-11.023 1.711,-2.832 2.848,-5.832 2.665,-9.094 -0.368,-4.531 -3.395,-8.121 -9.426,-8.015 -6.473,0.117 -10.137,2.461 -10.524,7.839 -0.476,6.68 1.578,7.379 3.043,12.954 0.996,3.488 0.907,8.71 0.196,13.988 -0.84,6.234 -0.309,8.586 -3.086,16.965 -3.461,10.445 -6.282,15.625 -28.493,16.984 -21.847,1.34 -22.929,1.996 -29.503,2.367 -5.473,0.313 -6.758,0.227 -9.602,-0.844 -3.172,-1.406 -4.508,-1.519 -8.281,-1.55 -4.446,0.144 -6.871,5.718 -6.785,9.937 0.093,4.379 2.128,10.18 6.664,10.594 4.226,0.383 6.191,-0.461 7.957,-1.957 1.976,-1.578 4.488,-1.668 6.75,-1.82 2.8,-0.184 5.933,-0.446 13.156,0.109 7.695,0.59 10.156,1.867 12.578,4.113 5.867,5.434 11.781,10.11 12.723,16.895 1.066,7.719 -3.055,15.941 -7.278,25.019 -3.082,6.621 -3.515,7.121 -6.277,9.254 -3.137,2.418 -5.164,3.012 -7.781,3.809 -3.172,0.949 -6.403,2.297 -8.27,6.281 -2.137,3.707 -1.375,7.863 1.172,11.484 3.227,4.594 10.688,4.75 14.715,1.758 3.066,-2.281 3.644,-5.105 5.234,-9.281 1.637,-4.484 5.352,-7.516 12.141,-11.301 6.875,-3.832 12.785,-7.304 19.656,-9.59 14.02,-4.691 18.852,-4.765 37.391,-4.683 14.777,0.066 19.98,1.101 32.937,0.445 16.442,-0.644 21.887,-4.25 36.551,-0.719 14.274,3.434 22.399,7.446 32.555,12.309 12.32,5.59 21.164,9.012 23.394,16.543 1.703,6.09 7.836,10.422 14.285,11.445 8.555,1.356 13.075,-1.301 16.559,-7.746 3.313,-6.121 3.117,-12.285 0.27,-16.691 -2.993,-4.633 -7.883,-7.266 -14.782,-7.77 -3.558,-0.262 -6.785,0.16 -11.207,-0.629 -4.632,-0.816 -13.617,-4.933 -25.328,-11.039 -7.926,-4.242 -13.117,-9.133 -31.906,-17.207 -19.418,-9.308 -22.313,-14.824 -28.777,-27.086 z"
                                   style="fill:#5a205a;fill-opacity:1;fill-rule:nonzero;stroke:#5a205a;stroke-width:2.45197;stroke-linecap:butt;stroke-linejoin:miter;stroke-miterlimit:4;stroke-dasharray:none;stroke-opacity:1"
                                   id="path2906" />
                                </g>
                              </g>
                            </g>
                          </g>
                        </g>
                      </g>
                    </g>
                    <g
                       id="g2918"
                       transform="translate(-3.321)" />
                  </g>
                </g>
              </g>
              <g
                 id="g2920"
                 transform="translate(-130.113,-23.587)" />
            </g>
          </g>
          <g
             id="g2922" />
          <g
             id="g2924" />
          <g
             id="g2926" />
          <g
             id="g2928" />
          <g
             id="g2930" />
          <g
             id="g2932" />
          <g
             id="g2934">
            <g
               id="g2936">
              <path
                 d="M 76.6594,101.50542 C 49.06818,106.37035 33.69038,131.39513 7.61209,121.16039"
                 style="fill:none;stroke:#ffffff;stroke-width:1.99255;stroke-linecap:round;stroke-linejoin:miter;stroke-miterlimit:10;stroke-dasharray:none;stroke-opacity:1"
                 id="path2938" />
            </g>
          </g>
          <g
             id="g2940">
            <path
               d="M 76.6594,101.50542 C 49.06818,106.37035 33.69038,131.39513 7.61209,121.16039"
               style="fill:none;stroke:#000000;stroke-width:0.99628;stroke-linecap:round;stroke-linejoin:miter;stroke-miterlimit:10;stroke-dasharray:none;stroke-opacity:1"
               id="path2942" />
          </g>
          <g
             id="g2944">
            <g
               id="g2946">
              <path
                 d="M -59.28116,101.11801 C -78.7435,83.94234 -116.90115,114.18314 -124.5522,89.37859"
                 style="fill:none;stroke:#ffffff;stroke-width:1.99255;stroke-linecap:round;stroke-linejoin:miter;stroke-miterlimit:10;stroke-dasharray:none;stroke-opacity:1"
                 id="path2948" />
            </g>
          </g>
          <g
             id="g2950">
            <path
               d="M -59.28116,101.11801 C -78.7435,83.94234 -116.90115,114.18314 -124.5522,89.37859"
               style="fill:none;stroke:#000000;stroke-width:0.99628;stroke-linecap:round;stroke-linejoin:miter;stroke-miterlimit:10;stroke-dasharray:none;stroke-opacity:1"
               id="path2952" />
          </g>
          <g
             id="g2954">
            <g
               id="g2956">
              <path
                 d="m -150.58728,24.5835 c 0.71034,-14.24016 -20.36498,-22.50623 -12.33351,-34.28656"
                 style="fill:none;stroke:#ffffff;stroke-width:1.99255;stroke-linecap:round;stroke-linejoin:miter;stroke-miterlimit:10;stroke-dasharray:none;stroke-opacity:1"
                 id="path2958" />
            </g>
          </g>
          <g
             id="g2960">
            <path
               d="m -150.58728,24.5835 c 0.71034,-14.24016 -20.36498,-22.50623 -12.33351,-34.28656"
               style="fill:none;stroke:#000000;stroke-width:0.99628;stroke-linecap:round;stroke-linejoin:miter;stroke-miterlimit:10;stroke-dasharray:none;stroke-opacity:1"
               id="path2962" />
          </g>
          <g
             id="g2964">
            <g
               id="g2966">
              <path
                 d="m -128.49582,-70.45816 c 18.62154,-13.38776 27.01859,-29.30784 49.88876,-31.02164"
                 style="fill:none;stroke:#ffffff;stroke-width:1.99255;stroke-linecap:round;stroke-linejoin:miter;stroke-miterlimit:10;stroke-dasharray:none;stroke-opacity:1"
                 id="path2968" />
            </g>
          </g>
          <g
             id="g2970">
            <path
               d="m -128.49582,-70.45816 c 18.62154,-13.38776 27.01859,-29.30784 49.88876,-31.02164"
               style="fill:none;stroke:#000000;stroke-width:0.99628;stroke-linecap:round;stroke-linejoin:miter;stroke-miterlimit:10;stroke-dasharray:none;stroke-opacity:1"
               id="path2972" />
          </g>
          <g
             id="g2974">
            <g
               id="g2976">
              <path
                 d="m -9.64252,-112.44681 c 28.09027,7.90303 54.69324,-25.78282 74.54164,-4.39149"
                 style="fill:none;stroke:#ffffff;stroke-width:1.99255;stroke-linecap:round;stroke-linejoin:miter;stroke-miterlimit:10;stroke-dasharray:none;stroke-opacity:1"
                 id="path2978" />
            </g>
          </g>
          <g
             id="g2980">
            <path
               d="m -9.64252,-112.44681 c 28.09027,7.90303 54.69324,-25.78282 74.54164,-4.39149"
               style="fill:none;stroke:#000000;stroke-width:0.99628;stroke-linecap:round;stroke-linejoin:miter;stroke-miterlimit:10;stroke-dasharray:none;stroke-opacity:1"
               id="path2982" />
          </g>
          <g
             id="g2984">
            <g
               id="g2986">
              <path
                 d="m 116.46983,-69.75766 c 7.58697,17.9986 45.98358,6.22482 43.0728,25.53873"
                 style="fill:none;stroke:#ffffff;stroke-width:1.99255;stroke-linecap:round;stroke-linejoin:miter;stroke-miterlimit:10;stroke-dasharray:none;stroke-opacity:1"
                 id="path2988" />
            </g>
          </g>
          <g
             id="g2990">
            <path
               d="m 116.46983,-69.75766 c 7.58697,17.9986 45.98358,6.22482 43.0728,25.53873"
               style="fill:none;stroke:#000000;stroke-width:0.99628;stroke-linecap:round;stroke-linejoin:miter;stroke-miterlimit:10;stroke-dasharray:none;stroke-opacity:1"
               id="path2992" />
          </g>
          <g
             id="g2994">
            <g
               id="g2996">
              <path
                 d="m 154.88744,25.45992 c -7.82479,14.36878 -6.68218,28.06236 -20.85198,36.24343"
                 style="fill:none;stroke:#ffffff;stroke-width:1.99255;stroke-linecap:round;stroke-linejoin:miter;stroke-miterlimit:10;stroke-dasharray:none;stroke-opacity:1"
                 id="path2998" />
            </g>
          </g>
          <g
             id="g3000">
            <path
               d="m 154.88744,25.45992 c -7.82479,14.36878 -6.68218,28.06236 -20.85198,36.24343"
               style="fill:none;stroke:#000000;stroke-width:0.99628;stroke-linecap:round;stroke-linejoin:miter;stroke-miterlimit:10;stroke-dasharray:none;stroke-opacity:1"
               id="path3002" />
          </g>
        </g>
      </g>
    </g>
  </g>
</svg>
