<?xml version="1.0" encoding="UTF-8" standalone="no"?>
<!-- Created with Inkscape (http://www.inkscape.org/) -->

<svg
   version="1.1"
   id="svg2090"
   width="831.49597"
   height="377.952"
   viewBox="0 0 831.49597 377.952"
   sodipodi:docname="synfirering.pdf"
   xmlns:inkscape="http://www.inkscape.org/namespaces/inkscape"
   xmlns:sodipodi="http://sodipodi.sourceforge.net/DTD/sodipodi-0.dtd"
   xmlns="http://www.w3.org/2000/svg"
   xmlns:svg="http://www.w3.org/2000/svg">
  <defs
     id="defs2094">
    <clipPath
       clipPathUnits="userSpaceOnUse"
       id="clipPath2128">
      <path
         d="M 0,0 H 281.70416 V 172.14323 H 0 Z"
         id="path2126" />
    </clipPath>
    <clipPath
       clipPathUnits="userSpaceOnUse"
       id="clipPath2178">
      <path
         d="M 0,0 H 281.70416 V 172.14323 H 0 Z"
         id="path2176" />
    </clipPath>
    <clipPath
       clipPathUnits="userSpaceOnUse"
       id="clipPath2228">
      <path
         d="M 0,0 H 281.70416 V 172.14323 H 0 Z"
         id="path2226" />
    </clipPath>
    <clipPath
       clipPathUnits="userSpaceOnUse"
       id="clipPath2278">
      <path
         d="M 0,0 H 281.70416 V 172.14323 H 0 Z"
         id="path2276" />
    </clipPath>
    <clipPath
       clipPathUnits="userSpaceOnUse"
       id="clipPath2328">
      <path
         d="M 0,0 H 281.70416 V 172.14323 H 0 Z"
         id="path2326" />
    </clipPath>
    <clipPath
       clipPathUnits="userSpaceOnUse"
       id="clipPath2378">
      <path
         d="M 0,0 H 281.70416 V 172.14323 H 0 Z"
         id="path2376" />
    </clipPath>
    <clipPath
       clipPathUnits="userSpaceOnUse"
       id="clipPath2428">
      <path
         d="M 0,0 H 281.70416 V 172.14323 H 0 Z"
         id="path2426" />
    </clipPath>
  </defs>
  <sodipodi:namedview
     id="namedview2092"
     pagecolor="#ffffff"
     bordercolor="#666666"
     borderopacity="1.0"
     inkscape:showpageshadow="2"
     inkscape:pageopacity="0.0"
     inkscape:pagecheckerboard="0"
     inkscape:deskcolor="#d1d1d1" />
  <g
     id="g2096"
     inkscape:groupmode="layer"
     inkscape:label="synfirering5"
     transform="matrix(1.3333333,0,0,-1.3333333,0,377.952)">
    <g
       id="g2098"
       transform="translate(311.811,141.732)">
      <g
         id="g2100">
        <g
           id="g2102">
          <g
             id="g2104">
            <path
               d="M -311.8149,-141.73404 V 141.73404 H 311.8149 V -141.73404 Z"
               style="fill:#ffffff;fill-opacity:1;fill-rule:nonzero;stroke:none"
               id="path2106" />
          </g>
          <g
             id="g2108" />
          <g
             id="g2110">
            <g
               id="g2112"
               transform="matrix(0.94788,-0.31847,0.31847,0.94788,62.678,80.97)">
              <g
                 id="g2114">
                <g
                   id="g2116"
                   transform="scale(1.3)">
                  <g
                     id="g2118"
                     transform="translate(3.321)">
                    <g
                       id="g2120"
                       transform="scale(0.20125)">
                      <g
                         id="g2122">
                        <g
                           id="g2124" />
                        <g
                           id="g2140">
                          <g
                             clip-path="url(#clipPath2128)"
                             id="g2138">
                            <g
                               transform="matrix(1,0,0,-1,0,172.14323)"
                               id="g2136">
                              <g
                                 id="g2134">
                                <g
                                   id="g2132">
                                <path
                                   d="M 166.309,82.406 C 161.73,73.723 153.824,65.82 133.402,62.023 118.379,59.227 107.277,55.387 103.109,48.074 c -4.578,-8.031 -4.3,-11.398 -4.062,-18.715 0.18,-3.531 0.789,-9.058 1.976,-11.023 1.711,-2.832 2.848,-5.832 2.665,-9.094 -0.368,-4.531 -3.395,-8.121 -9.426,-8.015 -6.473,0.117 -10.137,2.461 -10.524,7.839 -0.476,6.68 1.578,7.379 3.043,12.954 0.996,3.488 0.907,8.71 0.196,13.988 -0.84,6.234 -0.309,8.586 -3.086,16.965 -3.461,10.445 -6.282,15.625 -28.493,16.984 -21.847,1.34 -22.929,1.996 -29.503,2.367 -5.473,0.313 -6.758,0.227 -9.602,-0.844 -3.172,-1.406 -4.508,-1.519 -8.281,-1.55 -4.446,0.144 -6.871,5.718 -6.785,9.937 0.093,4.379 2.128,10.18 6.664,10.594 4.226,0.383 6.191,-0.461 7.957,-1.957 1.976,-1.578 4.488,-1.668 6.75,-1.82 2.8,-0.184 5.933,-0.446 13.156,0.109 7.695,0.59 10.156,1.867 12.578,4.113 5.867,5.434 11.781,10.11 12.723,16.895 1.066,7.719 -3.055,15.941 -7.278,25.019 -3.082,6.621 -3.515,7.121 -6.277,9.254 -3.137,2.418 -5.164,3.012 -7.781,3.809 -3.172,0.949 -6.403,2.297 -8.27,6.281 -2.137,3.707 -1.375,7.863 1.172,11.484 3.227,4.594 10.688,4.75 14.715,1.758 3.066,-2.281 3.644,-5.105 5.234,-9.281 1.637,-4.484 5.352,-7.516 12.141,-11.301 6.875,-3.832 12.785,-7.304 19.656,-9.59 14.02,-4.691 18.852,-4.765 37.391,-4.683 14.777,0.066 19.98,1.101 32.937,0.445 16.442,-0.644 21.887,-4.25 36.551,-0.719 14.274,3.434 22.399,7.446 32.555,12.309 12.32,5.59 21.164,9.012 23.394,16.543 1.703,6.09 7.836,10.422 14.285,11.445 8.555,1.356 13.075,-1.301 16.559,-7.746 3.313,-6.121 3.117,-12.285 0.27,-16.691 -2.993,-4.633 -7.883,-7.266 -14.782,-7.77 -3.558,-0.262 -6.785,0.16 -11.207,-0.629 -4.632,-0.816 -13.617,-4.933 -25.328,-11.039 -7.926,-4.242 -13.117,-9.133 -31.906,-17.207 -19.418,-9.308 -22.313,-14.824 -28.777,-27.086 z"
                                   style="fill:#5a205a;fill-opacity:1;fill-rule:nonzero;stroke:#5a205a;stroke-width:2.45197;stroke-linecap:butt;stroke-linejoin:miter;stroke-miterlimit:4;stroke-dasharray:none;stroke-opacity:1"
                                   id="path2130" />
                                </g>
                              </g>
                            </g>
                          </g>
                        </g>
                      </g>
                    </g>
                    <g
                       id="g2142"
                       transform="translate(-3.321)" />
                  </g>
                </g>
              </g>
              <g
                 id="g2144"
                 transform="translate(-62.678,-80.97)" />
            </g>
          </g>
          <g
             id="g2146" />
          <g
             id="g2148" />
          <g
             id="g2150" />
          <g
             id="g2152" />
          <g
             id="g2154" />
          <g
             id="g2156" />
          <g
             id="g2158" />
          <g
             id="g2160">
            <g
               id="g2162"
               transform="matrix(0.84,0.54253,-0.54253,0.84,-51.942,77.384)">
              <g
                 id="g2164">
                <g
                   id="g2166"
                   transform="scale(1.3)">
                  <g
                     id="g2168"
                     transform="translate(3.32)">
                    <g
                       id="g2170"
                       transform="scale(0.20125)">
                      <g
                         id="g2172">
                        <g
                           id="g2174" />
                        <g
                           id="g2190">
                          <g
                             clip-path="url(#clipPath2178)"
                             id="g2188">
                            <g
                               transform="matrix(1,0,0,-1,0,172.14323)"
                               id="g2186">
                              <g
                                 id="g2184">
                                <g
                                   id="g2182">
                                <path
                                   d="M 166.309,82.406 C 161.73,73.723 153.824,65.82 133.402,62.023 118.379,59.227 107.277,55.387 103.109,48.074 c -4.578,-8.031 -4.3,-11.398 -4.062,-18.715 0.18,-3.531 0.789,-9.058 1.976,-11.023 1.711,-2.832 2.848,-5.832 2.665,-9.094 -0.368,-4.531 -3.395,-8.121 -9.426,-8.015 -6.473,0.117 -10.137,2.461 -10.524,7.839 -0.476,6.68 1.578,7.379 3.043,12.954 0.996,3.488 0.907,8.71 0.196,13.988 -0.84,6.234 -0.309,8.586 -3.086,16.965 -3.461,10.445 -6.282,15.625 -28.493,16.984 -21.847,1.34 -22.929,1.996 -29.503,2.367 -5.473,0.313 -6.758,0.227 -9.602,-0.844 -3.172,-1.406 -4.508,-1.519 -8.281,-1.55 -4.446,0.144 -6.871,5.718 -6.785,9.937 0.093,4.379 2.128,10.18 6.664,10.594 4.226,0.383 6.191,-0.461 7.957,-1.957 1.976,-1.578 4.488,-1.668 6.75,-1.82 2.8,-0.184 5.933,-0.446 13.156,0.109 7.695,0.59 10.156,1.867 12.578,4.113 5.867,5.434 11.781,10.11 12.723,16.895 1.066,7.719 -3.055,15.941 -7.278,25.019 -3.082,6.621 -3.515,7.121 -6.277,9.254 -3.137,2.418 -5.164,3.012 -7.781,3.809 -3.172,0.949 -6.403,2.297 -8.27,6.281 -2.137,3.707 -1.375,7.863 1.172,11.484 3.227,4.594 10.688,4.75 14.715,1.758 3.066,-2.281 3.644,-5.105 5.234,-9.281 1.637,-4.484 5.352,-7.516 12.141,-11.301 6.875,-3.832 12.785,-7.304 19.656,-9.59 14.02,-4.691 18.852,-4.765 37.391,-4.683 14.777,0.066 19.98,1.101 32.937,0.445 16.442,-0.644 21.887,-4.25 36.551,-0.719 14.274,3.434 22.399,7.446 32.555,12.309 12.32,5.59 21.164,9.012 23.394,16.543 1.703,6.09 7.836,10.422 14.285,11.445 8.555,1.356 13.075,-1.301 16.559,-7.746 3.313,-6.121 3.117,-12.285 0.27,-16.691 -2.993,-4.633 -7.883,-7.266 -14.782,-7.77 -3.558,-0.262 -6.785,0.16 -11.207,-0.629 -4.632,-0.816 -13.617,-4.933 -25.328,-11.039 -7.926,-4.242 -13.117,-9.133 -31.906,-17.207 -19.418,-9.308 -22.313,-14.824 -28.777,-27.086 z"
                                   style="fill:#5a205a;fill-opacity:1;fill-rule:nonzero;stroke:#5a205a;stroke-width:2.45197;stroke-linecap:butt;stroke-linejoin:miter;stroke-miterlimit:4;stroke-dasharray:none;stroke-opacity:1"
                                   id="path2180" />
                                </g>
                              </g>
                            </g>
                          </g>
                        </g>
                      </g>
                    </g>
                    <g
                       id="g2192"
                       transform="translate(-3.32)" />
                  </g>
                </g>
              </g>
              <g
                 id="g2194"
                 transform="translate(51.942,-77.384)" />
            </g>
          </g>
          <g
             id="g2196" />
          <g
             id="g2198" />
          <g
             id="g2200" />
          <g
             id="g2202" />
          <g
             id="g2204" />
          <g
             id="g2206" />
          <g
             id="g2208" />
          <g
             id="g2210">
            <g
               id="g2212"
               transform="matrix(0.09953,0.99498,-0.99498,0.09953,-127.455,15.524)">
              <g
                 id="g2214">
                <g
                   id="g2216"
                   transform="scale(1.3)">
                  <g
                     id="g2218"
                     transform="translate(3.321)">
                    <g
                       id="g2220"
                       transform="scale(0.20125)">
                      <g
                         id="g2222">
                        <g
                           id="g2224" />
                        <g
                           id="g2240">
                          <g
                             clip-path="url(#clipPath2228)"
                             id="g2238">
                            <g
                               transform="matrix(1,0,0,-1,0,172.14323)"
                               id="g2236">
                              <g
                                 id="g2234">
                                <g
                                   id="g2232">
                                <path
                                   d="M 166.309,82.406 C 161.73,73.723 153.824,65.82 133.402,62.023 118.379,59.227 107.277,55.387 103.109,48.074 c -4.578,-8.031 -4.3,-11.398 -4.062,-18.715 0.18,-3.531 0.789,-9.058 1.976,-11.023 1.711,-2.832 2.848,-5.832 2.665,-9.094 -0.368,-4.531 -3.395,-8.121 -9.426,-8.015 -6.473,0.117 -10.137,2.461 -10.524,7.839 -0.476,6.68 1.578,7.379 3.043,12.954 0.996,3.488 0.907,8.71 0.196,13.988 -0.84,6.234 -0.309,8.586 -3.086,16.965 -3.461,10.445 -6.282,15.625 -28.493,16.984 -21.847,1.34 -22.929,1.996 -29.503,2.367 -5.473,0.313 -6.758,0.227 -9.602,-0.844 -3.172,-1.406 -4.508,-1.519 -8.281,-1.55 -4.446,0.144 -6.871,5.718 -6.785,9.937 0.093,4.379 2.128,10.18 6.664,10.594 4.226,0.383 6.191,-0.461 7.957,-1.957 1.976,-1.578 4.488,-1.668 6.75,-1.82 2.8,-0.184 5.933,-0.446 13.156,0.109 7.695,0.59 10.156,1.867 12.578,4.113 5.867,5.434 11.781,10.11 12.723,16.895 1.066,7.719 -3.055,15.941 -7.278,25.019 -3.082,6.621 -3.515,7.121 -6.277,9.254 -3.137,2.418 -5.164,3.012 -7.781,3.809 -3.172,0.949 -6.403,2.297 -8.27,6.281 -2.137,3.707 -1.375,7.863 1.172,11.484 3.227,4.594 10.688,4.75 14.715,1.758 3.066,-2.281 3.644,-5.105 5.234,-9.281 1.637,-4.484 5.352,-7.516 12.141,-11.301 6.875,-3.832 12.785,-7.304 19.656,-9.59 14.02,-4.691 18.852,-4.765 37.391,-4.683 14.777,0.066 19.98,1.101 32.937,0.445 16.442,-0.644 21.887,-4.25 36.551,-0.719 14.274,3.434 22.399,7.446 32.555,12.309 12.32,5.59 21.164,9.012 23.394,16.543 1.703,6.09 7.836,10.422 14.285,11.445 8.555,1.356 13.075,-1.301 16.559,-7.746 3.313,-6.121 3.117,-12.285 0.27,-16.691 -2.993,-4.633 -7.883,-7.266 -14.782,-7.77 -3.558,-0.262 -6.785,0.16 -11.207,-0.629 -4.632,-0.816 -13.617,-4.933 -25.328,-11.039 -7.926,-4.242 -13.117,-9.133 -31.906,-17.207 -19.418,-9.308 -22.313,-14.824 -28.777,-27.086 z"
                                   style="fill:#5a205a;fill-opacity:1;fill-rule:nonzero;stroke:#5a205a;stroke-width:2.45197;stroke-linecap:butt;stroke-linejoin:miter;stroke-miterlimit:4;stroke-dasharray:none;stroke-opacity:1"
                                   id="path2230" />
                                </g>
                              </g>
                            </g>
                          </g>
                        </g>
                      </g>
                    </g>
                    <g
                       id="g2242"
                       transform="translate(-3.321)" />
                  </g>
                </g>
              </g>
              <g
                 id="g2244"
                 transform="translate(127.455,-15.524)" />
            </g>
          </g>
          <g
             id="g2246" />
          <g
             id="g2248" />
          <g
             id="g2250" />
          <g
             id="g2252" />
          <g
             id="g2254" />
          <g
             id="g2256" />
          <g
             id="g2258" />
          <g
             id="g2260">
            <g
               id="g2262"
               transform="matrix(-0.71584,0.6982,-0.6982,-0.71584,-106.989,-58.022)">
              <g
                 id="g2264">
                <g
                   id="g2266"
                   transform="scale(1.3)">
                  <g
                     id="g2268"
                     transform="translate(3.321)">
                    <g
                       id="g2270"
                       transform="scale(0.20125)">
                      <g
                         id="g2272">
                        <g
                           id="g2274" />
                        <g
                           id="g2290">
                          <g
                             clip-path="url(#clipPath2278)"
                             id="g2288">
                            <g
                               transform="matrix(1,0,0,-1,0,172.14323)"
                               id="g2286">
                              <g
                                 id="g2284">
                                <g
                                   id="g2282">
                                <path
                                   d="M 166.309,82.406 C 161.73,73.723 153.824,65.82 133.402,62.023 118.379,59.227 107.277,55.387 103.109,48.074 c -4.578,-8.031 -4.3,-11.398 -4.062,-18.715 0.18,-3.531 0.789,-9.058 1.976,-11.023 1.711,-2.832 2.848,-5.832 2.665,-9.094 -0.368,-4.531 -3.395,-8.121 -9.426,-8.015 -6.473,0.117 -10.137,2.461 -10.524,7.839 -0.476,6.68 1.578,7.379 3.043,12.954 0.996,3.488 0.907,8.71 0.196,13.988 -0.84,6.234 -0.309,8.586 -3.086,16.965 -3.461,10.445 -6.282,15.625 -28.493,16.984 -21.847,1.34 -22.929,1.996 -29.503,2.367 -5.473,0.313 -6.758,0.227 -9.602,-0.844 -3.172,-1.406 -4.508,-1.519 -8.281,-1.55 -4.446,0.144 -6.871,5.718 -6.785,9.937 0.093,4.379 2.128,10.18 6.664,10.594 4.226,0.383 6.191,-0.461 7.957,-1.957 1.976,-1.578 4.488,-1.668 6.75,-1.82 2.8,-0.184 5.933,-0.446 13.156,0.109 7.695,0.59 10.156,1.867 12.578,4.113 5.867,5.434 11.781,10.11 12.723,16.895 1.066,7.719 -3.055,15.941 -7.278,25.019 -3.082,6.621 -3.515,7.121 -6.277,9.254 -3.137,2.418 -5.164,3.012 -7.781,3.809 -3.172,0.949 -6.403,2.297 -8.27,6.281 -2.137,3.707 -1.375,7.863 1.172,11.484 3.227,4.594 10.688,4.75 14.715,1.758 3.066,-2.281 3.644,-5.105 5.234,-9.281 1.637,-4.484 5.352,-7.516 12.141,-11.301 6.875,-3.832 12.785,-7.304 19.656,-9.59 14.02,-4.691 18.852,-4.765 37.391,-4.683 14.777,0.066 19.98,1.101 32.937,0.445 16.442,-0.644 21.887,-4.25 36.551,-0.719 14.274,3.434 22.399,7.446 32.555,12.309 12.32,5.59 21.164,9.012 23.394,16.543 1.703,6.09 7.836,10.422 14.285,11.445 8.555,1.356 13.075,-1.301 16.559,-7.746 3.313,-6.121 3.117,-12.285 0.27,-16.691 -2.993,-4.633 -7.883,-7.266 -14.782,-7.77 -3.558,-0.262 -6.785,0.16 -11.207,-0.629 -4.632,-0.816 -13.617,-4.933 -25.328,-11.039 -7.926,-4.242 -13.117,-9.133 -31.906,-17.207 -19.418,-9.308 -22.313,-14.824 -28.777,-27.086 z"
                                   style="fill:#5a205a;fill-opacity:1;fill-rule:nonzero;stroke:#5a205a;stroke-width:2.45197;stroke-linecap:butt;stroke-linejoin:miter;stroke-miterlimit:4;stroke-dasharray:none;stroke-opacity:1"
                                   id="path2280" />
                                </g>
                              </g>
                            </g>
                          </g>
                        </g>
                      </g>
                    </g>
                    <g
                       id="g2292"
                       transform="translate(-3.321)" />
                  </g>
                </g>
              </g>
              <g
                 id="g2294"
                 transform="translate(106.989,58.022)" />
            </g>
          </g>
          <g
             id="g2296" />
          <g
             id="g2298" />
          <g
             id="g2300" />
          <g
             id="g2302" />
          <g
             id="g2304" />
          <g
             id="g2306" />
          <g
             id="g2308" />
          <g
             id="g2310">
            <g
               id="g2312"
               transform="matrix(-0.9922,-0.12433,0.12433,-0.9922,-5.956,-87.878)">
              <g
                 id="g2314">
                <g
                   id="g2316"
                   transform="scale(1.3)">
                  <g
                     id="g2318"
                     transform="translate(3.321)">
                    <g
                       id="g2320"
                       transform="scale(0.20125)">
                      <g
                         id="g2322">
                        <g
                           id="g2324" />
                        <g
                           id="g2340">
                          <g
                             clip-path="url(#clipPath2328)"
                             id="g2338">
                            <g
                               transform="matrix(1,0,0,-1,0,172.14323)"
                               id="g2336">
                              <g
                                 id="g2334">
                                <g
                                   id="g2332">
                                <path
                                   d="M 166.309,82.406 C 161.73,73.723 153.824,65.82 133.402,62.023 118.379,59.227 107.277,55.387 103.109,48.074 c -4.578,-8.031 -4.3,-11.398 -4.062,-18.715 0.18,-3.531 0.789,-9.058 1.976,-11.023 1.711,-2.832 2.848,-5.832 2.665,-9.094 -0.368,-4.531 -3.395,-8.121 -9.426,-8.015 -6.473,0.117 -10.137,2.461 -10.524,7.839 -0.476,6.68 1.578,7.379 3.043,12.954 0.996,3.488 0.907,8.71 0.196,13.988 -0.84,6.234 -0.309,8.586 -3.086,16.965 -3.461,10.445 -6.282,15.625 -28.493,16.984 -21.847,1.34 -22.929,1.996 -29.503,2.367 -5.473,0.313 -6.758,0.227 -9.602,-0.844 -3.172,-1.406 -4.508,-1.519 -8.281,-1.55 -4.446,0.144 -6.871,5.718 -6.785,9.937 0.093,4.379 2.128,10.18 6.664,10.594 4.226,0.383 6.191,-0.461 7.957,-1.957 1.976,-1.578 4.488,-1.668 6.75,-1.82 2.8,-0.184 5.933,-0.446 13.156,0.109 7.695,0.59 10.156,1.867 12.578,4.113 5.867,5.434 11.781,10.11 12.723,16.895 1.066,7.719 -3.055,15.941 -7.278,25.019 -3.082,6.621 -3.515,7.121 -6.277,9.254 -3.137,2.418 -5.164,3.012 -7.781,3.809 -3.172,0.949 -6.403,2.297 -8.27,6.281 -2.137,3.707 -1.375,7.863 1.172,11.484 3.227,4.594 10.688,4.75 14.715,1.758 3.066,-2.281 3.644,-5.105 5.234,-9.281 1.637,-4.484 5.352,-7.516 12.141,-11.301 6.875,-3.832 12.785,-7.304 19.656,-9.59 14.02,-4.691 18.852,-4.765 37.391,-4.683 14.777,0.066 19.98,1.101 32.937,0.445 16.442,-0.644 21.887,-4.25 36.551,-0.719 14.274,3.434 22.399,7.446 32.555,12.309 12.32,5.59 21.164,9.012 23.394,16.543 1.703,6.09 7.836,10.422 14.285,11.445 8.555,1.356 13.075,-1.301 16.559,-7.746 3.313,-6.121 3.117,-12.285 0.27,-16.691 -2.993,-4.633 -7.883,-7.266 -14.782,-7.77 -3.558,-0.262 -6.785,0.16 -11.207,-0.629 -4.632,-0.816 -13.617,-4.933 -25.328,-11.039 -7.926,-4.242 -13.117,-9.133 -31.906,-17.207 -19.418,-9.308 -22.313,-14.824 -28.777,-27.086 z"
                                   style="fill:#5a205a;fill-opacity:1;fill-rule:nonzero;stroke:#5a205a;stroke-width:2.45197;stroke-linecap:butt;stroke-linejoin:miter;stroke-miterlimit:4;stroke-dasharray:none;stroke-opacity:1"
                                   id="path2330" />
                                </g>
                              </g>
                            </g>
                          </g>
                        </g>
                      </g>
                    </g>
                    <g
                       id="g2342"
                       transform="translate(-3.321)" />
                  </g>
                </g>
              </g>
              <g
                 id="g2344"
                 transform="translate(5.956,87.878)" />
            </g>
          </g>
          <g
             id="g2346" />
          <g
             id="g2348" />
          <g
             id="g2350" />
          <g
             id="g2352" />
          <g
             id="g2354" />
          <g
             id="g2356" />
          <g
             id="g2358" />
          <g
             id="g2360">
            <g
               id="g2362"
               transform="matrix(-0.5214,-0.85324,0.85324,-0.5214,99.56,-51.558)">
              <g
                 id="g2364">
                <g
                   id="g2366"
                   transform="scale(1.3)">
                  <g
                     id="g2368"
                     transform="translate(3.321)">
                    <g
                       id="g2370"
                       transform="scale(0.20125)">
                      <g
                         id="g2372">
                        <g
                           id="g2374" />
                        <g
                           id="g2390">
                          <g
                             clip-path="url(#clipPath2378)"
                             id="g2388">
                            <g
                               transform="matrix(1,0,0,-1,0,172.14323)"
                               id="g2386">
                              <g
                                 id="g2384">
                                <g
                                   id="g2382">
                                <path
                                   d="M 166.309,82.406 C 161.73,73.723 153.824,65.82 133.402,62.023 118.379,59.227 107.277,55.387 103.109,48.074 c -4.578,-8.031 -4.3,-11.398 -4.062,-18.715 0.18,-3.531 0.789,-9.058 1.976,-11.023 1.711,-2.832 2.848,-5.832 2.665,-9.094 -0.368,-4.531 -3.395,-8.121 -9.426,-8.015 -6.473,0.117 -10.137,2.461 -10.524,7.839 -0.476,6.68 1.578,7.379 3.043,12.954 0.996,3.488 0.907,8.71 0.196,13.988 -0.84,6.234 -0.309,8.586 -3.086,16.965 -3.461,10.445 -6.282,15.625 -28.493,16.984 -21.847,1.34 -22.929,1.996 -29.503,2.367 -5.473,0.313 -6.758,0.227 -9.602,-0.844 -3.172,-1.406 -4.508,-1.519 -8.281,-1.55 -4.446,0.144 -6.871,5.718 -6.785,9.937 0.093,4.379 2.128,10.18 6.664,10.594 4.226,0.383 6.191,-0.461 7.957,-1.957 1.976,-1.578 4.488,-1.668 6.75,-1.82 2.8,-0.184 5.933,-0.446 13.156,0.109 7.695,0.59 10.156,1.867 12.578,4.113 5.867,5.434 11.781,10.11 12.723,16.895 1.066,7.719 -3.055,15.941 -7.278,25.019 -3.082,6.621 -3.515,7.121 -6.277,9.254 -3.137,2.418 -5.164,3.012 -7.781,3.809 -3.172,0.949 -6.403,2.297 -8.27,6.281 -2.137,3.707 -1.375,7.863 1.172,11.484 3.227,4.594 10.688,4.75 14.715,1.758 3.066,-2.281 3.644,-5.105 5.234,-9.281 1.637,-4.484 5.352,-7.516 12.141,-11.301 6.875,-3.832 12.785,-7.304 19.656,-9.59 14.02,-4.691 18.852,-4.765 37.391,-4.683 14.777,0.066 19.98,1.101 32.937,0.445 16.442,-0.644 21.887,-4.25 36.551,-0.719 14.274,3.434 22.399,7.446 32.555,12.309 12.32,5.59 21.164,9.012 23.394,16.543 1.703,6.09 7.836,10.422 14.285,11.445 8.555,1.356 13.075,-1.301 16.559,-7.746 3.313,-6.121 3.117,-12.285 0.27,-16.691 -2.993,-4.633 -7.883,-7.266 -14.782,-7.77 -3.558,-0.262 -6.785,0.16 -11.207,-0.629 -4.632,-0.816 -13.617,-4.933 -25.328,-11.039 -7.926,-4.242 -13.117,-9.133 -31.906,-17.207 -19.418,-9.308 -22.313,-14.824 -28.777,-27.086 z"
                                   style="fill:#5a205a;fill-opacity:1;fill-rule:nonzero;stroke:#5a205a;stroke-width:2.45197;stroke-linecap:butt;stroke-linejoin:miter;stroke-miterlimit:4;stroke-dasharray:none;stroke-opacity:1"
                                   id="path2380" />
                                </g>
                              </g>
                            </g>
                          </g>
                        </g>
                      </g>
                    </g>
                    <g
                       id="g2392"
                       transform="translate(-3.321)" />
                  </g>
                </g>
              </g>
              <g
                 id="g2394"
                 transform="translate(-99.56,51.558)" />
            </g>
          </g>
          <g
             id="g2396" />
          <g
             id="g2398" />
          <g
             id="g2400" />
          <g
             id="g2402" />
          <g
             id="g2404" />
          <g
             id="g2406" />
          <g
             id="g2408" />
          <g
             id="g2410">
            <g
               id="g2412"
               transform="matrix(0.34203,-0.9397,0.9397,0.34203,130.113,23.587)">
              <g
                 id="g2414">
                <g
                   id="g2416"
                   transform="scale(1.3)">
                  <g
                     id="g2418"
                     transform="translate(3.321)">
                    <g
                       id="g2420"
                       transform="scale(0.20125)">
                      <g
                         id="g2422">
                        <g
                           id="g2424" />
                        <g
                           id="g2440">
                          <g
                             clip-path="url(#clipPath2428)"
                             id="g2438">
                            <g
                               transform="matrix(1,0,0,-1,0,172.14323)"
                               id="g2436">
                              <g
                                 id="g2434">
                                <g
                                   id="g2432">
                                <path
                                   d="M 166.309,82.406 C 161.73,73.723 153.824,65.82 133.402,62.023 118.379,59.227 107.277,55.387 103.109,48.074 c -4.578,-8.031 -4.3,-11.398 -4.062,-18.715 0.18,-3.531 0.789,-9.058 1.976,-11.023 1.711,-2.832 2.848,-5.832 2.665,-9.094 -0.368,-4.531 -3.395,-8.121 -9.426,-8.015 -6.473,0.117 -10.137,2.461 -10.524,7.839 -0.476,6.68 1.578,7.379 3.043,12.954 0.996,3.488 0.907,8.71 0.196,13.988 -0.84,6.234 -0.309,8.586 -3.086,16.965 -3.461,10.445 -6.282,15.625 -28.493,16.984 -21.847,1.34 -22.929,1.996 -29.503,2.367 -5.473,0.313 -6.758,0.227 -9.602,-0.844 -3.172,-1.406 -4.508,-1.519 -8.281,-1.55 -4.446,0.144 -6.871,5.718 -6.785,9.937 0.093,4.379 2.128,10.18 6.664,10.594 4.226,0.383 6.191,-0.461 7.957,-1.957 1.976,-1.578 4.488,-1.668 6.75,-1.82 2.8,-0.184 5.933,-0.446 13.156,0.109 7.695,0.59 10.156,1.867 12.578,4.113 5.867,5.434 11.781,10.11 12.723,16.895 1.066,7.719 -3.055,15.941 -7.278,25.019 -3.082,6.621 -3.515,7.121 -6.277,9.254 -3.137,2.418 -5.164,3.012 -7.781,3.809 -3.172,0.949 -6.403,2.297 -8.27,6.281 -2.137,3.707 -1.375,7.863 1.172,11.484 3.227,4.594 10.688,4.75 14.715,1.758 3.066,-2.281 3.644,-5.105 5.234,-9.281 1.637,-4.484 5.352,-7.516 12.141,-11.301 6.875,-3.832 12.785,-7.304 19.656,-9.59 14.02,-4.691 18.852,-4.765 37.391,-4.683 14.777,0.066 19.98,1.101 32.937,0.445 16.442,-0.644 21.887,-4.25 36.551,-0.719 14.274,3.434 22.399,7.446 32.555,12.309 12.32,5.59 21.164,9.012 23.394,16.543 1.703,6.09 7.836,10.422 14.285,11.445 8.555,1.356 13.075,-1.301 16.559,-7.746 3.313,-6.121 3.117,-12.285 0.27,-16.691 -2.993,-4.633 -7.883,-7.266 -14.782,-7.77 -3.558,-0.262 -6.785,0.16 -11.207,-0.629 -4.632,-0.816 -13.617,-4.933 -25.328,-11.039 -7.926,-4.242 -13.117,-9.133 -31.906,-17.207 -19.418,-9.308 -22.313,-14.824 -28.777,-27.086 z"
                                   style="fill:#5a205a;fill-opacity:1;fill-rule:nonzero;stroke:#5a205a;stroke-width:2.45197;stroke-linecap:butt;stroke-linejoin:miter;stroke-miterlimit:4;stroke-dasharray:none;stroke-opacity:1"
                                   id="path2430" />
                                </g>
                              </g>
                            </g>
                          </g>
                        </g>
                      </g>
                    </g>
                    <g
                       id="g2442"
                       transform="translate(-3.321)" />
                  </g>
                </g>
              </g>
              <g
                 id="g2444"
                 transform="translate(-130.113,-23.587)" />
            </g>
          </g>
          <g
             id="g2446" />
          <g
             id="g2448" />
          <g
             id="g2450" />
          <g
             id="g2452" />
          <g
             id="g2454" />
          <g
             id="g2456" />
          <g
             id="g2458">
            <g
               id="g2460">
              <path
                 d="M 76.6594,101.50542 C 49.06818,106.37035 33.69038,131.39513 7.61209,121.16039"
                 style="fill:none;stroke:#ffffff;stroke-width:1.99255;stroke-linecap:round;stroke-linejoin:miter;stroke-miterlimit:10;stroke-dasharray:none;stroke-opacity:1"
                 id="path2462" />
            </g>
          </g>
          <g
             id="g2464">
            <path
               d="M 76.6594,101.50542 C 49.06818,106.37035 33.69038,131.39513 7.61209,121.16039"
               style="fill:none;stroke:#000000;stroke-width:0.99628;stroke-linecap:round;stroke-linejoin:miter;stroke-miterlimit:10;stroke-dasharray:none;stroke-opacity:1"
               id="path2466" />
          </g>
          <g
             id="g2468">
            <g
               id="g2470">
              <path
                 d="M -59.28116,101.11801 C -78.7435,83.94234 -116.90115,114.18314 -124.5522,89.37859"
                 style="fill:none;stroke:#ffffff;stroke-width:1.99255;stroke-linecap:round;stroke-linejoin:miter;stroke-miterlimit:10;stroke-dasharray:none;stroke-opacity:1"
                 id="path2472" />
            </g>
          </g>
          <g
             id="g2474">
            <path
               d="M -59.28116,101.11801 C -78.7435,83.94234 -116.90115,114.18314 -124.5522,89.37859"
               style="fill:none;stroke:#000000;stroke-width:0.99628;stroke-linecap:round;stroke-linejoin:miter;stroke-miterlimit:10;stroke-dasharray:none;stroke-opacity:1"
               id="path2476" />
          </g>
          <g
             id="g2478">
            <g
               id="g2480">
              <path
                 d="m -150.58728,24.5835 c 0.71034,-14.24016 -20.36498,-22.50623 -12.33351,-34.28656"
                 style="fill:none;stroke:#ffffff;stroke-width:1.99255;stroke-linecap:round;stroke-linejoin:miter;stroke-miterlimit:10;stroke-dasharray:none;stroke-opacity:1"
                 id="path2482" />
            </g>
          </g>
          <g
             id="g2484">
            <path
               d="m -150.58728,24.5835 c 0.71034,-14.24016 -20.36498,-22.50623 -12.33351,-34.28656"
               style="fill:none;stroke:#000000;stroke-width:0.99628;stroke-linecap:round;stroke-linejoin:miter;stroke-miterlimit:10;stroke-dasharray:none;stroke-opacity:1"
               id="path2486" />
          </g>
          <g
             id="g2488">
            <g
               id="g2490">
              <path
                 d="m -128.49582,-70.45816 c 18.62154,-13.38776 27.01859,-29.30784 49.88876,-31.02164"
                 style="fill:none;stroke:#ffffff;stroke-width:1.99255;stroke-linecap:round;stroke-linejoin:miter;stroke-miterlimit:10;stroke-dasharray:none;stroke-opacity:1"
                 id="path2492" />
            </g>
          </g>
          <g
             id="g2494">
            <path
               d="m -128.49582,-70.45816 c 18.62154,-13.38776 27.01859,-29.30784 49.88876,-31.02164"
               style="fill:none;stroke:#000000;stroke-width:0.99628;stroke-linecap:round;stroke-linejoin:miter;stroke-miterlimit:10;stroke-dasharray:none;stroke-opacity:1"
               id="path2496" />
          </g>
          <g
             id="g2498">
            <g
               id="g2500">
              <path
                 d="m -9.64252,-112.44681 c 28.09027,7.90303 54.69324,-25.78282 74.54164,-4.39149"
                 style="fill:none;stroke:#ffffff;stroke-width:1.99255;stroke-linecap:round;stroke-linejoin:miter;stroke-miterlimit:10;stroke-dasharray:none;stroke-opacity:1"
                 id="path2502" />
            </g>
          </g>
          <g
             id="g2504">
            <path
               d="m -9.64252,-112.44681 c 28.09027,7.90303 54.69324,-25.78282 74.54164,-4.39149"
               style="fill:none;stroke:#000000;stroke-width:0.99628;stroke-linecap:round;stroke-linejoin:miter;stroke-miterlimit:10;stroke-dasharray:none;stroke-opacity:1"
               id="path2506" />
          </g>
          <g
             id="g2508">
            <g
               id="g2510">
              <path
                 d="m 116.46983,-69.75766 c 7.58697,17.9986 45.98358,6.22482 43.0728,25.53873"
                 style="fill:none;stroke:#ffffff;stroke-width:1.99255;stroke-linecap:round;stroke-linejoin:miter;stroke-miterlimit:10;stroke-dasharray:none;stroke-opacity:1"
                 id="path2512" />
            </g>
          </g>
          <g
             id="g2514">
            <path
               d="m 116.46983,-69.75766 c 7.58697,17.9986 45.98358,6.22482 43.0728,25.53873"
               style="fill:none;stroke:#000000;stroke-width:0.99628;stroke-linecap:round;stroke-linejoin:miter;stroke-miterlimit:10;stroke-dasharray:none;stroke-opacity:1"
               id="path2516" />
          </g>
          <g
             id="g2518">
            <g
               id="g2520">
              <path
                 d="m 154.88744,25.45992 c -7.82479,14.36878 -6.68218,28.06236 -20.85198,36.24343"
                 style="fill:none;stroke:#ffffff;stroke-width:1.99255;stroke-linecap:round;stroke-linejoin:miter;stroke-miterlimit:10;stroke-dasharray:none;stroke-opacity:1"
                 id="path2522" />
            </g>
          </g>
          <g
             id="g2524">
            <path
               d="m 154.88744,25.45992 c -7.82479,14.36878 -6.68218,28.06236 -20.85198,36.24343"
               style="fill:none;stroke:#000000;stroke-width:0.99628;stroke-linecap:round;stroke-linejoin:miter;stroke-miterlimit:10;stroke-dasharray:none;stroke-opacity:1"
               id="path2526" />
          </g>
        </g>
      </g>
    </g>
  </g>
</svg>
