<?xml version="1.0" encoding="UTF-8" standalone="no"?>
<!-- Created with Inkscape (http://www.inkscape.org/) -->

<svg
   version="1.1"
   id="svg2"
   width="377.952"
   height="302.36267"
   viewBox="0 0 377.952 302.36267"
   sodipodi:docname="synfirechain.pdf"
   xmlns:inkscape="http://www.inkscape.org/namespaces/inkscape"
   xmlns:sodipodi="http://sodipodi.sourceforge.net/DTD/sodipodi-0.dtd"
   xmlns="http://www.w3.org/2000/svg"
   xmlns:svg="http://www.w3.org/2000/svg">
  <defs
     id="defs6">
    <clipPath
       clipPathUnits="userSpaceOnUse"
       id="clipPath34">
      <path
         d="M 0,0 H 281.70416 V 172.14323 H 0 Z"
         id="path32" />
    </clipPath>
    <clipPath
       clipPathUnits="userSpaceOnUse"
       id="clipPath82">
      <path
         d="M 0,0 H 281.70416 V 172.14323 H 0 Z"
         id="path80" />
    </clipPath>
    <clipPath
       clipPathUnits="userSpaceOnUse"
       id="clipPath130">
      <path
         d="M 0,0 H 281.70416 V 172.14323 H 0 Z"
         id="path128" />
    </clipPath>
    <clipPath
       clipPathUnits="userSpaceOnUse"
       id="clipPath178">
      <path
         d="M 0,0 H 281.70416 V 172.14323 H 0 Z"
         id="path176" />
    </clipPath>
    <clipPath
       clipPathUnits="userSpaceOnUse"
       id="clipPath226">
      <path
         d="M 0,0 H 281.70416 V 172.14323 H 0 Z"
         id="path224" />
    </clipPath>
    <clipPath
       clipPathUnits="userSpaceOnUse"
       id="clipPath274">
      <path
         d="M 0,0 H 281.70416 V 172.14323 H 0 Z"
         id="path272" />
    </clipPath>
    <clipPath
       clipPathUnits="userSpaceOnUse"
       id="clipPath322">
      <path
         d="M 0,0 H 281.70416 V 172.14323 H 0 Z"
         id="path320" />
    </clipPath>
  </defs>
  <sodipodi:namedview
     id="namedview4"
     pagecolor="#ffffff"
     bordercolor="#666666"
     borderopacity="1.0"
     inkscape:showpageshadow="2"
     inkscape:pageopacity="0.0"
     inkscape:pagecheckerboard="0"
     inkscape:deskcolor="#d1d1d1" />
  <g
     id="g8"
     inkscape:groupmode="layer"
     inkscape:label="synfirechain"
     transform="matrix(1.3333333,0,0,-1.3333333,0,302.36267)">
    <g
       id="g10"
       transform="translate(141.732,113.386)">
      <g
         id="g12">
        <g
           id="g14">
          <g
             id="g16" />
          <g
             id="g18">
            <g
               id="g20"
               transform="matrix(0.94788,-0.31847,0.31847,0.94788,46.311,60.58)">
              <g
                 id="g22">
                <g
                   id="g24"
                   transform="translate(3.321)">
                  <g
                     id="g26"
                     transform="scale(0.20125)">
                    <g
                       id="g28">
                      <g
                         id="g30" />
                      <g
                         id="g46">
                        <g
                           clip-path="url(#clipPath34)"
                           id="g44">
                          <g
                             transform="matrix(1,0,0,-1,0,172.14323)"
                             id="g42">
                            <g
                               id="g40">
                              <g
                                 id="g38">
                                <path
                                   d="M 166.309,82.406 C 161.73,73.723 153.824,65.82 133.402,62.023 118.379,59.227 107.277,55.387 103.109,48.074 c -4.578,-8.031 -4.3,-11.398 -4.062,-18.715 0.18,-3.531 0.789,-9.058 1.976,-11.023 1.711,-2.832 2.848,-5.832 2.665,-9.094 -0.368,-4.531 -3.395,-8.121 -9.426,-8.015 -6.473,0.117 -10.137,2.461 -10.524,7.839 -0.476,6.68 1.578,7.379 3.043,12.954 0.996,3.488 0.907,8.71 0.196,13.988 -0.84,6.234 -0.309,8.586 -3.086,16.965 -3.461,10.445 -6.282,15.625 -28.493,16.984 -21.847,1.34 -22.929,1.996 -29.503,2.367 -5.473,0.313 -6.758,0.227 -9.602,-0.844 -3.172,-1.406 -4.508,-1.519 -8.281,-1.55 -4.446,0.144 -6.871,5.718 -6.785,9.937 0.093,4.379 2.128,10.18 6.664,10.594 4.226,0.383 6.191,-0.461 7.957,-1.957 1.976,-1.578 4.488,-1.668 6.75,-1.82 2.8,-0.184 5.933,-0.446 13.156,0.109 7.695,0.59 10.156,1.867 12.578,4.113 5.867,5.434 11.781,10.11 12.723,16.895 1.066,7.719 -3.055,15.941 -7.278,25.019 -3.082,6.621 -3.515,7.121 -6.277,9.254 -3.137,2.418 -5.164,3.012 -7.781,3.809 -3.172,0.949 -6.403,2.297 -8.27,6.281 -2.137,3.707 -1.375,7.863 1.172,11.484 3.227,4.594 10.688,4.75 14.715,1.758 3.066,-2.281 3.644,-5.105 5.234,-9.281 1.637,-4.484 5.352,-7.516 12.141,-11.301 6.875,-3.832 12.785,-7.304 19.656,-9.59 14.02,-4.691 18.852,-4.765 37.391,-4.683 14.777,0.066 19.98,1.101 32.937,0.445 16.442,-0.644 21.887,-4.25 36.551,-0.719 14.274,3.434 22.399,7.446 32.555,12.309 12.32,5.59 21.164,9.012 23.394,16.543 1.703,6.09 7.836,10.422 14.285,11.445 8.555,1.356 13.075,-1.301 16.559,-7.746 3.313,-6.121 3.117,-12.285 0.27,-16.691 -2.993,-4.633 -7.883,-7.266 -14.782,-7.77 -3.558,-0.262 -6.785,0.16 -11.207,-0.629 -4.632,-0.816 -13.617,-4.933 -25.328,-11.039 -7.926,-4.242 -13.117,-9.133 -31.906,-17.207 -19.418,-9.308 -22.313,-14.824 -28.777,-27.086 z"
                                   style="fill:#5a205a;fill-opacity:1;fill-rule:nonzero;stroke:#5a205a;stroke-width:2.45197;stroke-linecap:butt;stroke-linejoin:miter;stroke-miterlimit:4;stroke-dasharray:none;stroke-opacity:1"
                                   id="path36" />
                              </g>
                            </g>
                          </g>
                        </g>
                      </g>
                    </g>
                  </g>
                  <g
                     id="g48"
                     transform="translate(-3.321)" />
                </g>
              </g>
              <g
                 id="g50"
                 transform="translate(-46.311,-60.58)" />
            </g>
          </g>
          <g
             id="g52" />
          <g
             id="g54" />
          <g
             id="g56" />
          <g
             id="g58" />
          <g
             id="g60" />
          <g
             id="g62" />
          <g
             id="g64" />
          <g
             id="g66">
            <g
               id="g68"
               transform="matrix(0.84,0.54253,-0.54253,0.84,-39.276,57.4)">
              <g
                 id="g70">
                <g
                   id="g72"
                   transform="translate(3.321)">
                  <g
                     id="g74"
                     transform="scale(0.20125)">
                    <g
                       id="g76">
                      <g
                         id="g78" />
                      <g
                         id="g94">
                        <g
                           clip-path="url(#clipPath82)"
                           id="g92">
                          <g
                             transform="matrix(1,0,0,-1,0,172.14323)"
                             id="g90">
                            <g
                               id="g88">
                              <g
                                 id="g86">
                                <path
                                   d="M 166.309,82.406 C 161.73,73.723 153.824,65.82 133.402,62.023 118.379,59.227 107.277,55.387 103.109,48.074 c -4.578,-8.031 -4.3,-11.398 -4.062,-18.715 0.18,-3.531 0.789,-9.058 1.976,-11.023 1.711,-2.832 2.848,-5.832 2.665,-9.094 -0.368,-4.531 -3.395,-8.121 -9.426,-8.015 -6.473,0.117 -10.137,2.461 -10.524,7.839 -0.476,6.68 1.578,7.379 3.043,12.954 0.996,3.488 0.907,8.71 0.196,13.988 -0.84,6.234 -0.309,8.586 -3.086,16.965 -3.461,10.445 -6.282,15.625 -28.493,16.984 -21.847,1.34 -22.929,1.996 -29.503,2.367 -5.473,0.313 -6.758,0.227 -9.602,-0.844 -3.172,-1.406 -4.508,-1.519 -8.281,-1.55 -4.446,0.144 -6.871,5.718 -6.785,9.937 0.093,4.379 2.128,10.18 6.664,10.594 4.226,0.383 6.191,-0.461 7.957,-1.957 1.976,-1.578 4.488,-1.668 6.75,-1.82 2.8,-0.184 5.933,-0.446 13.156,0.109 7.695,0.59 10.156,1.867 12.578,4.113 5.867,5.434 11.781,10.11 12.723,16.895 1.066,7.719 -3.055,15.941 -7.278,25.019 -3.082,6.621 -3.515,7.121 -6.277,9.254 -3.137,2.418 -5.164,3.012 -7.781,3.809 -3.172,0.949 -6.403,2.297 -8.27,6.281 -2.137,3.707 -1.375,7.863 1.172,11.484 3.227,4.594 10.688,4.75 14.715,1.758 3.066,-2.281 3.644,-5.105 5.234,-9.281 1.637,-4.484 5.352,-7.516 12.141,-11.301 6.875,-3.832 12.785,-7.304 19.656,-9.59 14.02,-4.691 18.852,-4.765 37.391,-4.683 14.777,0.066 19.98,1.101 32.937,0.445 16.442,-0.644 21.887,-4.25 36.551,-0.719 14.274,3.434 22.399,7.446 32.555,12.309 12.32,5.59 21.164,9.012 23.394,16.543 1.703,6.09 7.836,10.422 14.285,11.445 8.555,1.356 13.075,-1.301 16.559,-7.746 3.313,-6.121 3.117,-12.285 0.27,-16.691 -2.993,-4.633 -7.883,-7.266 -14.782,-7.77 -3.558,-0.262 -6.785,0.16 -11.207,-0.629 -4.632,-0.816 -13.617,-4.933 -25.328,-11.039 -7.926,-4.242 -13.117,-9.133 -31.906,-17.207 -19.418,-9.308 -22.313,-14.824 -28.777,-27.086 z"
                                   style="fill:#5a205a;fill-opacity:1;fill-rule:nonzero;stroke:#5a205a;stroke-width:2.45197;stroke-linecap:butt;stroke-linejoin:miter;stroke-miterlimit:4;stroke-dasharray:none;stroke-opacity:1"
                                   id="path84" />
                              </g>
                            </g>
                          </g>
                        </g>
                      </g>
                    </g>
                  </g>
                  <g
                     id="g96"
                     transform="translate(-3.321)" />
                </g>
              </g>
              <g
                 id="g98"
                 transform="translate(39.276,-57.4)" />
            </g>
          </g>
          <g
             id="g100" />
          <g
             id="g102" />
          <g
             id="g104" />
          <g
             id="g106" />
          <g
             id="g108" />
          <g
             id="g110" />
          <g
             id="g112" />
          <g
             id="g114">
            <g
               id="g116"
               transform="matrix(0.09953,0.99498,-0.99498,0.09953,-95.291,10.995)">
              <g
                 id="g118">
                <g
                   id="g120"
                   transform="translate(3.32)">
                  <g
                     id="g122"
                     transform="scale(0.20125)">
                    <g
                       id="g124">
                      <g
                         id="g126" />
                      <g
                         id="g142">
                        <g
                           clip-path="url(#clipPath130)"
                           id="g140">
                          <g
                             transform="matrix(1,0,0,-1,0,172.14323)"
                             id="g138">
                            <g
                               id="g136">
                              <g
                                 id="g134">
                                <path
                                   d="M 166.309,82.406 C 161.73,73.723 153.824,65.82 133.402,62.023 118.379,59.227 107.277,55.387 103.109,48.074 c -4.578,-8.031 -4.3,-11.398 -4.062,-18.715 0.18,-3.531 0.789,-9.058 1.976,-11.023 1.711,-2.832 2.848,-5.832 2.665,-9.094 -0.368,-4.531 -3.395,-8.121 -9.426,-8.015 -6.473,0.117 -10.137,2.461 -10.524,7.839 -0.476,6.68 1.578,7.379 3.043,12.954 0.996,3.488 0.907,8.71 0.196,13.988 -0.84,6.234 -0.309,8.586 -3.086,16.965 -3.461,10.445 -6.282,15.625 -28.493,16.984 -21.847,1.34 -22.929,1.996 -29.503,2.367 -5.473,0.313 -6.758,0.227 -9.602,-0.844 -3.172,-1.406 -4.508,-1.519 -8.281,-1.55 -4.446,0.144 -6.871,5.718 -6.785,9.937 0.093,4.379 2.128,10.18 6.664,10.594 4.226,0.383 6.191,-0.461 7.957,-1.957 1.976,-1.578 4.488,-1.668 6.75,-1.82 2.8,-0.184 5.933,-0.446 13.156,0.109 7.695,0.59 10.156,1.867 12.578,4.113 5.867,5.434 11.781,10.11 12.723,16.895 1.066,7.719 -3.055,15.941 -7.278,25.019 -3.082,6.621 -3.515,7.121 -6.277,9.254 -3.137,2.418 -5.164,3.012 -7.781,3.809 -3.172,0.949 -6.403,2.297 -8.27,6.281 -2.137,3.707 -1.375,7.863 1.172,11.484 3.227,4.594 10.688,4.75 14.715,1.758 3.066,-2.281 3.644,-5.105 5.234,-9.281 1.637,-4.484 5.352,-7.516 12.141,-11.301 6.875,-3.832 12.785,-7.304 19.656,-9.59 14.02,-4.691 18.852,-4.765 37.391,-4.683 14.777,0.066 19.98,1.101 32.937,0.445 16.442,-0.644 21.887,-4.25 36.551,-0.719 14.274,3.434 22.399,7.446 32.555,12.309 12.32,5.59 21.164,9.012 23.394,16.543 1.703,6.09 7.836,10.422 14.285,11.445 8.555,1.356 13.075,-1.301 16.559,-7.746 3.313,-6.121 3.117,-12.285 0.27,-16.691 -2.993,-4.633 -7.883,-7.266 -14.782,-7.77 -3.558,-0.262 -6.785,0.16 -11.207,-0.629 -4.632,-0.816 -13.617,-4.933 -25.328,-11.039 -7.926,-4.242 -13.117,-9.133 -31.906,-17.207 -19.418,-9.308 -22.313,-14.824 -28.777,-27.086 z"
                                   style="fill:#5a205a;fill-opacity:1;fill-rule:nonzero;stroke:#5a205a;stroke-width:2.45197;stroke-linecap:butt;stroke-linejoin:miter;stroke-miterlimit:4;stroke-dasharray:none;stroke-opacity:1"
                                   id="path132" />
                              </g>
                            </g>
                          </g>
                        </g>
                      </g>
                    </g>
                  </g>
                  <g
                     id="g144"
                     transform="translate(-3.32)" />
                </g>
              </g>
              <g
                 id="g146"
                 transform="translate(95.291,-10.995)" />
            </g>
          </g>
          <g
             id="g148" />
          <g
             id="g150" />
          <g
             id="g152" />
          <g
             id="g154" />
          <g
             id="g156" />
          <g
             id="g158" />
          <g
             id="g160" />
          <g
             id="g162">
            <g
               id="g164"
               transform="matrix(-0.71584,0.6982,-0.6982,-0.71584,-79.549,-43.686)">
              <g
                 id="g166">
                <g
                   id="g168"
                   transform="translate(3.321)">
                  <g
                     id="g170"
                     transform="scale(0.20125)">
                    <g
                       id="g172">
                      <g
                         id="g174" />
                      <g
                         id="g190">
                        <g
                           clip-path="url(#clipPath178)"
                           id="g188">
                          <g
                             transform="matrix(1,0,0,-1,0,172.14323)"
                             id="g186">
                            <g
                               id="g184">
                              <g
                                 id="g182">
                                <path
                                   d="M 166.309,82.406 C 161.73,73.723 153.824,65.82 133.402,62.023 118.379,59.227 107.277,55.387 103.109,48.074 c -4.578,-8.031 -4.3,-11.398 -4.062,-18.715 0.18,-3.531 0.789,-9.058 1.976,-11.023 1.711,-2.832 2.848,-5.832 2.665,-9.094 -0.368,-4.531 -3.395,-8.121 -9.426,-8.015 -6.473,0.117 -10.137,2.461 -10.524,7.839 -0.476,6.68 1.578,7.379 3.043,12.954 0.996,3.488 0.907,8.71 0.196,13.988 -0.84,6.234 -0.309,8.586 -3.086,16.965 -3.461,10.445 -6.282,15.625 -28.493,16.984 -21.847,1.34 -22.929,1.996 -29.503,2.367 -5.473,0.313 -6.758,0.227 -9.602,-0.844 -3.172,-1.406 -4.508,-1.519 -8.281,-1.55 -4.446,0.144 -6.871,5.718 -6.785,9.937 0.093,4.379 2.128,10.18 6.664,10.594 4.226,0.383 6.191,-0.461 7.957,-1.957 1.976,-1.578 4.488,-1.668 6.75,-1.82 2.8,-0.184 5.933,-0.446 13.156,0.109 7.695,0.59 10.156,1.867 12.578,4.113 5.867,5.434 11.781,10.11 12.723,16.895 1.066,7.719 -3.055,15.941 -7.278,25.019 -3.082,6.621 -3.515,7.121 -6.277,9.254 -3.137,2.418 -5.164,3.012 -7.781,3.809 -3.172,0.949 -6.403,2.297 -8.27,6.281 -2.137,3.707 -1.375,7.863 1.172,11.484 3.227,4.594 10.688,4.75 14.715,1.758 3.066,-2.281 3.644,-5.105 5.234,-9.281 1.637,-4.484 5.352,-7.516 12.141,-11.301 6.875,-3.832 12.785,-7.304 19.656,-9.59 14.02,-4.691 18.852,-4.765 37.391,-4.683 14.777,0.066 19.98,1.101 32.937,0.445 16.442,-0.644 21.887,-4.25 36.551,-0.719 14.274,3.434 22.399,7.446 32.555,12.309 12.32,5.59 21.164,9.012 23.394,16.543 1.703,6.09 7.836,10.422 14.285,11.445 8.555,1.356 13.075,-1.301 16.559,-7.746 3.313,-6.121 3.117,-12.285 0.27,-16.691 -2.993,-4.633 -7.883,-7.266 -14.782,-7.77 -3.558,-0.262 -6.785,0.16 -11.207,-0.629 -4.632,-0.816 -13.617,-4.933 -25.328,-11.039 -7.926,-4.242 -13.117,-9.133 -31.906,-17.207 -19.418,-9.308 -22.313,-14.824 -28.777,-27.086 z"
                                   style="fill:#5a205a;fill-opacity:1;fill-rule:nonzero;stroke:#5a205a;stroke-width:2.45197;stroke-linecap:butt;stroke-linejoin:miter;stroke-miterlimit:4;stroke-dasharray:none;stroke-opacity:1"
                                   id="path180" />
                              </g>
                            </g>
                          </g>
                        </g>
                      </g>
                    </g>
                  </g>
                  <g
                     id="g192"
                     transform="translate(-3.321)" />
                </g>
              </g>
              <g
                 id="g194"
                 transform="translate(79.549,43.686)" />
            </g>
          </g>
          <g
             id="g196" />
          <g
             id="g198" />
          <g
             id="g200" />
          <g
             id="g202" />
          <g
             id="g204" />
          <g
             id="g206" />
          <g
             id="g208" />
          <g
             id="g210">
            <g
               id="g212"
               transform="matrix(-0.9922,-0.12433,0.12433,-0.9922,-3.902,-65.473)">
              <g
                 id="g214">
                <g
                   id="g216"
                   transform="translate(3.321)">
                  <g
                     id="g218"
                     transform="scale(0.20125)">
                    <g
                       id="g220">
                      <g
                         id="g222" />
                      <g
                         id="g238">
                        <g
                           clip-path="url(#clipPath226)"
                           id="g236">
                          <g
                             transform="matrix(1,0,0,-1,0,172.14323)"
                             id="g234">
                            <g
                               id="g232">
                              <g
                                 id="g230">
                                <path
                                   d="M 166.309,82.406 C 161.73,73.723 153.824,65.82 133.402,62.023 118.379,59.227 107.277,55.387 103.109,48.074 c -4.578,-8.031 -4.3,-11.398 -4.062,-18.715 0.18,-3.531 0.789,-9.058 1.976,-11.023 1.711,-2.832 2.848,-5.832 2.665,-9.094 -0.368,-4.531 -3.395,-8.121 -9.426,-8.015 -6.473,0.117 -10.137,2.461 -10.524,7.839 -0.476,6.68 1.578,7.379 3.043,12.954 0.996,3.488 0.907,8.71 0.196,13.988 -0.84,6.234 -0.309,8.586 -3.086,16.965 -3.461,10.445 -6.282,15.625 -28.493,16.984 -21.847,1.34 -22.929,1.996 -29.503,2.367 -5.473,0.313 -6.758,0.227 -9.602,-0.844 -3.172,-1.406 -4.508,-1.519 -8.281,-1.55 -4.446,0.144 -6.871,5.718 -6.785,9.937 0.093,4.379 2.128,10.18 6.664,10.594 4.226,0.383 6.191,-0.461 7.957,-1.957 1.976,-1.578 4.488,-1.668 6.75,-1.82 2.8,-0.184 5.933,-0.446 13.156,0.109 7.695,0.59 10.156,1.867 12.578,4.113 5.867,5.434 11.781,10.11 12.723,16.895 1.066,7.719 -3.055,15.941 -7.278,25.019 -3.082,6.621 -3.515,7.121 -6.277,9.254 -3.137,2.418 -5.164,3.012 -7.781,3.809 -3.172,0.949 -6.403,2.297 -8.27,6.281 -2.137,3.707 -1.375,7.863 1.172,11.484 3.227,4.594 10.688,4.75 14.715,1.758 3.066,-2.281 3.644,-5.105 5.234,-9.281 1.637,-4.484 5.352,-7.516 12.141,-11.301 6.875,-3.832 12.785,-7.304 19.656,-9.59 14.02,-4.691 18.852,-4.765 37.391,-4.683 14.777,0.066 19.98,1.101 32.937,0.445 16.442,-0.644 21.887,-4.25 36.551,-0.719 14.274,3.434 22.399,7.446 32.555,12.309 12.32,5.59 21.164,9.012 23.394,16.543 1.703,6.09 7.836,10.422 14.285,11.445 8.555,1.356 13.075,-1.301 16.559,-7.746 3.313,-6.121 3.117,-12.285 0.27,-16.691 -2.993,-4.633 -7.883,-7.266 -14.782,-7.77 -3.558,-0.262 -6.785,0.16 -11.207,-0.629 -4.632,-0.816 -13.617,-4.933 -25.328,-11.039 -7.926,-4.242 -13.117,-9.133 -31.906,-17.207 -19.418,-9.308 -22.313,-14.824 -28.777,-27.086 z"
                                   style="fill:#5a205a;fill-opacity:1;fill-rule:nonzero;stroke:#5a205a;stroke-width:2.45197;stroke-linecap:butt;stroke-linejoin:miter;stroke-miterlimit:4;stroke-dasharray:none;stroke-opacity:1"
                                   id="path228" />
                              </g>
                            </g>
                          </g>
                        </g>
                      </g>
                    </g>
                  </g>
                  <g
                     id="g240"
                     transform="translate(-3.321)" />
                </g>
              </g>
              <g
                 id="g242"
                 transform="translate(3.902,65.473)" />
            </g>
          </g>
          <g
             id="g244" />
          <g
             id="g246" />
          <g
             id="g248" />
          <g
             id="g250" />
          <g
             id="g252" />
          <g
             id="g254" />
          <g
             id="g256" />
          <g
             id="g258">
            <g
               id="g260"
               transform="matrix(-0.5214,-0.85324,0.85324,-0.5214,74.681,-37.956)">
              <g
                 id="g262">
                <g
                   id="g264"
                   transform="translate(3.321)">
                  <g
                     id="g266"
                     transform="scale(0.20125)">
                    <g
                       id="g268">
                      <g
                         id="g270" />
                      <g
                         id="g286">
                        <g
                           clip-path="url(#clipPath274)"
                           id="g284">
                          <g
                             transform="matrix(1,0,0,-1,0,172.14323)"
                             id="g282">
                            <g
                               id="g280">
                              <g
                                 id="g278">
                                <path
                                   d="M 166.309,82.406 C 161.73,73.723 153.824,65.82 133.402,62.023 118.379,59.227 107.277,55.387 103.109,48.074 c -4.578,-8.031 -4.3,-11.398 -4.062,-18.715 0.18,-3.531 0.789,-9.058 1.976,-11.023 1.711,-2.832 2.848,-5.832 2.665,-9.094 -0.368,-4.531 -3.395,-8.121 -9.426,-8.015 -6.473,0.117 -10.137,2.461 -10.524,7.839 -0.476,6.68 1.578,7.379 3.043,12.954 0.996,3.488 0.907,8.71 0.196,13.988 -0.84,6.234 -0.309,8.586 -3.086,16.965 -3.461,10.445 -6.282,15.625 -28.493,16.984 -21.847,1.34 -22.929,1.996 -29.503,2.367 -5.473,0.313 -6.758,0.227 -9.602,-0.844 -3.172,-1.406 -4.508,-1.519 -8.281,-1.55 -4.446,0.144 -6.871,5.718 -6.785,9.937 0.093,4.379 2.128,10.18 6.664,10.594 4.226,0.383 6.191,-0.461 7.957,-1.957 1.976,-1.578 4.488,-1.668 6.75,-1.82 2.8,-0.184 5.933,-0.446 13.156,0.109 7.695,0.59 10.156,1.867 12.578,4.113 5.867,5.434 11.781,10.11 12.723,16.895 1.066,7.719 -3.055,15.941 -7.278,25.019 -3.082,6.621 -3.515,7.121 -6.277,9.254 -3.137,2.418 -5.164,3.012 -7.781,3.809 -3.172,0.949 -6.403,2.297 -8.27,6.281 -2.137,3.707 -1.375,7.863 1.172,11.484 3.227,4.594 10.688,4.75 14.715,1.758 3.066,-2.281 3.644,-5.105 5.234,-9.281 1.637,-4.484 5.352,-7.516 12.141,-11.301 6.875,-3.832 12.785,-7.304 19.656,-9.59 14.02,-4.691 18.852,-4.765 37.391,-4.683 14.777,0.066 19.98,1.101 32.937,0.445 16.442,-0.644 21.887,-4.25 36.551,-0.719 14.274,3.434 22.399,7.446 32.555,12.309 12.32,5.59 21.164,9.012 23.394,16.543 1.703,6.09 7.836,10.422 14.285,11.445 8.555,1.356 13.075,-1.301 16.559,-7.746 3.313,-6.121 3.117,-12.285 0.27,-16.691 -2.993,-4.633 -7.883,-7.266 -14.782,-7.77 -3.558,-0.262 -6.785,0.16 -11.207,-0.629 -4.632,-0.816 -13.617,-4.933 -25.328,-11.039 -7.926,-4.242 -13.117,-9.133 -31.906,-17.207 -19.418,-9.308 -22.313,-14.824 -28.777,-27.086 z"
                                   style="fill:#5a205a;fill-opacity:1;fill-rule:nonzero;stroke:#5a205a;stroke-width:2.45197;stroke-linecap:butt;stroke-linejoin:miter;stroke-miterlimit:4;stroke-dasharray:none;stroke-opacity:1"
                                   id="path276" />
                              </g>
                            </g>
                          </g>
                        </g>
                      </g>
                    </g>
                  </g>
                  <g
                     id="g288"
                     transform="translate(-3.321)" />
                </g>
              </g>
              <g
                 id="g290"
                 transform="translate(-74.681,37.956)" />
            </g>
          </g>
          <g
             id="g292" />
          <g
             id="g294" />
          <g
             id="g296" />
          <g
             id="g298" />
          <g
             id="g300" />
          <g
             id="g302" />
          <g
             id="g304" />
          <g
             id="g306">
            <g
               id="g308"
               transform="matrix(0.34203,-0.9397,0.9397,0.34203,97.034,18.143)">
              <g
                 id="g310">
                <g
                   id="g312"
                   transform="translate(3.321)">
                  <g
                     id="g314"
                     transform="scale(0.20125)">
                    <g
                       id="g316">
                      <g
                         id="g318" />
                      <g
                         id="g334">
                        <g
                           clip-path="url(#clipPath322)"
                           id="g332">
                          <g
                             transform="matrix(1,0,0,-1,0,172.14323)"
                             id="g330">
                            <g
                               id="g328">
                              <g
                                 id="g326">
                                <path
                                   d="M 166.309,82.406 C 161.73,73.723 153.824,65.82 133.402,62.023 118.379,59.227 107.277,55.387 103.109,48.074 c -4.578,-8.031 -4.3,-11.398 -4.062,-18.715 0.18,-3.531 0.789,-9.058 1.976,-11.023 1.711,-2.832 2.848,-5.832 2.665,-9.094 -0.368,-4.531 -3.395,-8.121 -9.426,-8.015 -6.473,0.117 -10.137,2.461 -10.524,7.839 -0.476,6.68 1.578,7.379 3.043,12.954 0.996,3.488 0.907,8.71 0.196,13.988 -0.84,6.234 -0.309,8.586 -3.086,16.965 -3.461,10.445 -6.282,15.625 -28.493,16.984 -21.847,1.34 -22.929,1.996 -29.503,2.367 -5.473,0.313 -6.758,0.227 -9.602,-0.844 -3.172,-1.406 -4.508,-1.519 -8.281,-1.55 -4.446,0.144 -6.871,5.718 -6.785,9.937 0.093,4.379 2.128,10.18 6.664,10.594 4.226,0.383 6.191,-0.461 7.957,-1.957 1.976,-1.578 4.488,-1.668 6.75,-1.82 2.8,-0.184 5.933,-0.446 13.156,0.109 7.695,0.59 10.156,1.867 12.578,4.113 5.867,5.434 11.781,10.11 12.723,16.895 1.066,7.719 -3.055,15.941 -7.278,25.019 -3.082,6.621 -3.515,7.121 -6.277,9.254 -3.137,2.418 -5.164,3.012 -7.781,3.809 -3.172,0.949 -6.403,2.297 -8.27,6.281 -2.137,3.707 -1.375,7.863 1.172,11.484 3.227,4.594 10.688,4.75 14.715,1.758 3.066,-2.281 3.644,-5.105 5.234,-9.281 1.637,-4.484 5.352,-7.516 12.141,-11.301 6.875,-3.832 12.785,-7.304 19.656,-9.59 14.02,-4.691 18.852,-4.765 37.391,-4.683 14.777,0.066 19.98,1.101 32.937,0.445 16.442,-0.644 21.887,-4.25 36.551,-0.719 14.274,3.434 22.399,7.446 32.555,12.309 12.32,5.59 21.164,9.012 23.394,16.543 1.703,6.09 7.836,10.422 14.285,11.445 8.555,1.356 13.075,-1.301 16.559,-7.746 3.313,-6.121 3.117,-12.285 0.27,-16.691 -2.993,-4.633 -7.883,-7.266 -14.782,-7.77 -3.558,-0.262 -6.785,0.16 -11.207,-0.629 -4.632,-0.816 -13.617,-4.933 -25.328,-11.039 -7.926,-4.242 -13.117,-9.133 -31.906,-17.207 -19.418,-9.308 -22.313,-14.824 -28.777,-27.086 z"
                                   style="fill:#5a205a;fill-opacity:1;fill-rule:nonzero;stroke:#5a205a;stroke-width:2.45197;stroke-linecap:butt;stroke-linejoin:miter;stroke-miterlimit:4;stroke-dasharray:none;stroke-opacity:1"
                                   id="path324" />
                              </g>
                            </g>
                          </g>
                        </g>
                      </g>
                    </g>
                  </g>
                  <g
                     id="g336"
                     transform="translate(-3.321)" />
                </g>
              </g>
              <g
                 id="g338"
                 transform="translate(-97.034,-18.143)" />
            </g>
          </g>
          <g
             id="g340" />
          <g
             id="g342" />
          <g
             id="g344" />
          <g
             id="g346" />
          <g
             id="g348" />
          <g
             id="g350" />
          <g
             id="g352">
            <g
               id="g354">
              <path
                 d="M 57.12775,76.1163 C 36.82864,79.69547 25.72067,98.60428 6.53464,91.07448"
                 style="fill:none;stroke:#ffffff;stroke-width:1.99255;stroke-linecap:round;stroke-linejoin:miter;stroke-miterlimit:10;stroke-dasharray:none;stroke-opacity:1"
                 id="path356" />
            </g>
          </g>
          <g
             id="g358">
            <path
               d="M 57.12775,76.1163 C 36.82864,79.69547 25.72067,98.60428 6.53464,91.07448"
               style="fill:none;stroke:#000000;stroke-width:0.99628;stroke-linecap:round;stroke-linejoin:miter;stroke-miterlimit:10;stroke-dasharray:none;stroke-opacity:1"
               id="path360" />
          </g>
          <g
             id="g362">
            <g
               id="g364">
              <path
                 d="M -44.67946,75.54391 C -59.04813,62.86345 -87.41032,86.11937 -93.05893,67.80667"
                 style="fill:none;stroke:#ffffff;stroke-width:1.99255;stroke-linecap:round;stroke-linejoin:miter;stroke-miterlimit:10;stroke-dasharray:none;stroke-opacity:1"
                 id="path366" />
            </g>
          </g>
          <g
             id="g368">
            <path
               d="M -44.67946,75.54391 C -59.04813,62.86345 -87.41032,86.11937 -93.05893,67.80667"
               style="fill:none;stroke:#000000;stroke-width:0.99628;stroke-linecap:round;stroke-linejoin:miter;stroke-miterlimit:10;stroke-dasharray:none;stroke-opacity:1"
               id="path370" />
          </g>
          <g
             id="g372">
            <g
               id="g374">
              <path
                 d="m -112.84624,18.08301 c 0.5161,-10.34621 -15.56221,-16.04192 -9.72694,-24.60094"
                 style="fill:none;stroke:#ffffff;stroke-width:1.99255;stroke-linecap:round;stroke-linejoin:miter;stroke-miterlimit:10;stroke-dasharray:none;stroke-opacity:1"
                 id="path376" />
            </g>
          </g>
          <g
             id="g378">
            <path
               d="m -112.84624,18.08301 c 0.5161,-10.34621 -15.56221,-16.04192 -9.72694,-24.60094"
               style="fill:none;stroke:#000000;stroke-width:0.99628;stroke-linecap:round;stroke-linejoin:miter;stroke-miterlimit:10;stroke-dasharray:none;stroke-opacity:1"
               id="path380" />
          </g>
          <g
             id="g382">
            <g
               id="g384">
              <path
                 d="m -96.0358,-52.99121 c 13.59243,-9.77213 19.5546,-21.69347 36.24822,-22.94443"
                 style="fill:none;stroke:#ffffff;stroke-width:1.99255;stroke-linecap:round;stroke-linejoin:miter;stroke-miterlimit:10;stroke-dasharray:none;stroke-opacity:1"
                 id="path386" />
            </g>
          </g>
          <g
             id="g388">
            <path
               d="m -96.0358,-52.99121 c 13.59243,-9.77213 19.5546,-21.69347 36.24822,-22.94443"
               style="fill:none;stroke:#000000;stroke-width:0.99628;stroke-linecap:round;stroke-linejoin:miter;stroke-miterlimit:10;stroke-dasharray:none;stroke-opacity:1"
               id="path390" />
          </g>
          <g
             id="g392">
            <g
               id="g394">
              <path
                 d="m -6.90701,-84.16455 c 20.69838,5.82336 40.30073,-19.76859 54.92607,-4.00633"
                 style="fill:none;stroke:#ffffff;stroke-width:1.99255;stroke-linecap:round;stroke-linejoin:miter;stroke-miterlimit:10;stroke-dasharray:none;stroke-opacity:1"
                 id="path396" />
            </g>
          </g>
          <g
             id="g398">
            <path
               d="m -6.90701,-84.16455 c 20.69838,5.82336 40.30073,-19.76859 54.92607,-4.00633"
               style="fill:none;stroke:#000000;stroke-width:0.99628;stroke-linecap:round;stroke-linejoin:miter;stroke-miterlimit:10;stroke-dasharray:none;stroke-opacity:1"
               id="path400" />
          </g>
          <g
             id="g402">
            <g
               id="g404">
              <path
                 d="m 87.42139,-51.95795 c 5.60464,13.29595 34.40101,3.67586 32.25074,17.94347"
                 style="fill:none;stroke:#ffffff;stroke-width:1.99255;stroke-linecap:round;stroke-linejoin:miter;stroke-miterlimit:10;stroke-dasharray:none;stroke-opacity:1"
                 id="path406" />
            </g>
          </g>
          <g
             id="g408">
            <path
               d="m 87.42139,-51.95795 c 5.60464,13.29595 34.40101,3.67586 32.25074,17.94347"
               style="fill:none;stroke:#000000;stroke-width:0.99628;stroke-linecap:round;stroke-linejoin:miter;stroke-miterlimit:10;stroke-dasharray:none;stroke-opacity:1"
               id="path410" />
          </g>
          <g
             id="g412">
            <g
               id="g414">
              <path
                 d="m 115.92679,19.37367 c -5.64572,10.36734 -4.50224,20.48296 -14.726,26.38573"
                 style="fill:none;stroke:#ffffff;stroke-width:1.99255;stroke-linecap:round;stroke-linejoin:miter;stroke-miterlimit:10;stroke-dasharray:none;stroke-opacity:1"
                 id="path416" />
            </g>
          </g>
          <g
             id="g418">
            <path
               d="m 115.92679,19.37367 c -5.64572,10.36734 -4.50224,20.48296 -14.726,26.38573"
               style="fill:none;stroke:#000000;stroke-width:0.99628;stroke-linecap:round;stroke-linejoin:miter;stroke-miterlimit:10;stroke-dasharray:none;stroke-opacity:1"
               id="path420" />
          </g>
        </g>
      </g>
    </g>
  </g>
</svg>
