<?xml version="1.0" encoding="UTF-8" standalone="no"?>
<!-- Created with Inkscape (http://www.inkscape.org/) -->

<svg
   version="1.1"
   id="svg2075"
   width="831.49597"
   height="188.976"
   viewBox="0 0 831.49597 188.976"
   sodipodi:docname="synfirechain.pdf"
   xmlns:inkscape="http://www.inkscape.org/namespaces/inkscape"
   xmlns:sodipodi="http://sodipodi.sourceforge.net/DTD/sodipodi-0.dtd"
   xmlns="http://www.w3.org/2000/svg"
   xmlns:svg="http://www.w3.org/2000/svg">
  <defs
     id="defs2079">
    <clipPath
       clipPathUnits="userSpaceOnUse"
       id="clipPath2115">
      <path
         d="M 0,0 H 281.70416 V 172.14323 H 0 Z"
         id="path2113" />
    </clipPath>
    <clipPath
       clipPathUnits="userSpaceOnUse"
       id="clipPath2167">
      <path
         d="M 0,0 H 281.70416 V 172.14323 H 0 Z"
         id="path2165" />
    </clipPath>
    <clipPath
       clipPathUnits="userSpaceOnUse"
       id="clipPath2219">
      <path
         d="M 0,0 H 281.70416 V 172.14323 H 0 Z"
         id="path2217" />
    </clipPath>
    <clipPath
       clipPathUnits="userSpaceOnUse"
       id="clipPath2271">
      <path
         d="M 0,0 H 281.70416 V 172.14323 H 0 Z"
         id="path2269" />
    </clipPath>
    <clipPath
       clipPathUnits="userSpaceOnUse"
       id="clipPath2323">
      <path
         d="M 0,0 H 281.70416 V 172.14323 H 0 Z"
         id="path2321" />
    </clipPath>
  </defs>
  <sodipodi:namedview
     id="namedview2077"
     pagecolor="#ffffff"
     bordercolor="#666666"
     borderopacity="1.0"
     inkscape:showpageshadow="2"
     inkscape:pageopacity="0.0"
     inkscape:pagecheckerboard="0"
     inkscape:deskcolor="#d1d1d1" />
  <g
     id="g2081"
     inkscape:groupmode="layer"
     inkscape:label="synfirechain4"
     transform="matrix(1.3333333,0,0,-1.3333333,0,188.976)">
    <g
       id="g2083"
       transform="translate(311.811,70.866)">
      <g
         id="g2085">
        <g
           id="g2087">
          <g
             id="g2089">
            <path
               d="M -311.8149,-70.867 V 70.867 H 311.8149 V -70.867 Z"
               style="fill:#ffffff;fill-opacity:1;fill-rule:nonzero;stroke:none"
               id="path2091" />
          </g>
          <g
             id="g2093" />
          <g
             id="g2095" />
          <g
             id="g2097">
            <g
               id="g2099"
               transform="matrix(0.98482,0.17365,-0.17365,0.98482,-223.79,-24.096)">
              <g
                 id="g2101">
                <g
                   id="g2103"
                   transform="scale(1.3)">
                  <g
                     id="g2105"
                     transform="translate(3.321)">
                    <g
                       id="g2107"
                       transform="scale(0.20125)">
                      <g
                         id="g2109">
                        <g
                           id="g2111" />
                        <g
                           id="g2127">
                          <g
                             clip-path="url(#clipPath2115)"
                             id="g2125">
                            <g
                               transform="matrix(1,0,0,-1,0,172.14323)"
                               id="g2123">
                              <g
                                 id="g2121">
                                <g
                                   id="g2119">
                                <path
                                   d="M 166.309,82.406 C 161.73,73.723 153.824,65.82 133.402,62.023 118.379,59.227 107.277,55.387 103.109,48.074 c -4.578,-8.031 -4.3,-11.398 -4.062,-18.715 0.18,-3.531 0.789,-9.058 1.976,-11.023 1.711,-2.832 2.848,-5.832 2.665,-9.094 -0.368,-4.531 -3.395,-8.121 -9.426,-8.015 -6.473,0.117 -10.137,2.461 -10.524,7.839 -0.476,6.68 1.578,7.379 3.043,12.954 0.996,3.488 0.907,8.71 0.196,13.988 -0.84,6.234 -0.309,8.586 -3.086,16.965 -3.461,10.445 -6.282,15.625 -28.493,16.984 -21.847,1.34 -22.929,1.996 -29.503,2.367 -5.473,0.313 -6.758,0.227 -9.602,-0.844 -3.172,-1.406 -4.508,-1.519 -8.281,-1.55 -4.446,0.144 -6.871,5.718 -6.785,9.937 0.093,4.379 2.128,10.18 6.664,10.594 4.226,0.383 6.191,-0.461 7.957,-1.957 1.976,-1.578 4.488,-1.668 6.75,-1.82 2.8,-0.184 5.933,-0.446 13.156,0.109 7.695,0.59 10.156,1.867 12.578,4.113 5.867,5.434 11.781,10.11 12.723,16.895 1.066,7.719 -3.055,15.941 -7.278,25.019 -3.082,6.621 -3.515,7.121 -6.277,9.254 -3.137,2.418 -5.164,3.012 -7.781,3.809 -3.172,0.949 -6.403,2.297 -8.27,6.281 -2.137,3.707 -1.375,7.863 1.172,11.484 3.227,4.594 10.688,4.75 14.715,1.758 3.066,-2.281 3.644,-5.105 5.234,-9.281 1.637,-4.484 5.352,-7.516 12.141,-11.301 6.875,-3.832 12.785,-7.304 19.656,-9.59 14.02,-4.691 18.852,-4.765 37.391,-4.683 14.777,0.066 19.98,1.101 32.937,0.445 16.442,-0.644 21.887,-4.25 36.551,-0.719 14.274,3.434 22.399,7.446 32.555,12.309 12.32,5.59 21.164,9.012 23.394,16.543 1.703,6.09 7.836,10.422 14.285,11.445 8.555,1.356 13.075,-1.301 16.559,-7.746 3.313,-6.121 3.117,-12.285 0.27,-16.691 -2.993,-4.633 -7.883,-7.266 -14.782,-7.77 -3.558,-0.262 -6.785,0.16 -11.207,-0.629 -4.632,-0.816 -13.617,-4.933 -25.328,-11.039 -7.926,-4.242 -13.117,-9.133 -31.906,-17.207 -19.418,-9.308 -22.313,-14.824 -28.777,-27.086 z"
                                   style="fill:#5a205a;fill-opacity:1;fill-rule:nonzero;stroke:#5a205a;stroke-width:2.45197;stroke-linecap:butt;stroke-linejoin:miter;stroke-miterlimit:4;stroke-dasharray:none;stroke-opacity:1"
                                   id="path2117" />
                                </g>
                              </g>
                            </g>
                          </g>
                        </g>
                      </g>
                    </g>
                    <g
                       id="g2129"
                       transform="translate(-3.321)" />
                  </g>
                </g>
              </g>
              <g
                 id="g2131"
                 transform="translate(223.79,24.096)" />
            </g>
          </g>
          <g
             id="g2133" />
          <g
             id="g2135" />
          <g
             id="g2137" />
          <g
             id="g2139" />
          <g
             id="g2141" />
          <g
             id="g2143" />
          <g
             id="g2145" />
          <g
             id="g2147" />
          <g
             id="g2149">
            <g
               id="g2151"
               transform="matrix(0.98482,0.17365,-0.17365,0.98482,-124.577,-24.096)">
              <g
                 id="g2153">
                <g
                   id="g2155"
                   transform="scale(1.3)">
                  <g
                     id="g2157"
                     transform="translate(3.321)">
                    <g
                       id="g2159"
                       transform="scale(0.20125)">
                      <g
                         id="g2161">
                        <g
                           id="g2163" />
                        <g
                           id="g2179">
                          <g
                             clip-path="url(#clipPath2167)"
                             id="g2177">
                            <g
                               transform="matrix(1,0,0,-1,0,172.14323)"
                               id="g2175">
                              <g
                                 id="g2173">
                                <g
                                   id="g2171">
                                <path
                                   d="M 166.309,82.406 C 161.73,73.723 153.824,65.82 133.402,62.023 118.379,59.227 107.277,55.387 103.109,48.074 c -4.578,-8.031 -4.3,-11.398 -4.062,-18.715 0.18,-3.531 0.789,-9.058 1.976,-11.023 1.711,-2.832 2.848,-5.832 2.665,-9.094 -0.368,-4.531 -3.395,-8.121 -9.426,-8.015 -6.473,0.117 -10.137,2.461 -10.524,7.839 -0.476,6.68 1.578,7.379 3.043,12.954 0.996,3.488 0.907,8.71 0.196,13.988 -0.84,6.234 -0.309,8.586 -3.086,16.965 -3.461,10.445 -6.282,15.625 -28.493,16.984 -21.847,1.34 -22.929,1.996 -29.503,2.367 -5.473,0.313 -6.758,0.227 -9.602,-0.844 -3.172,-1.406 -4.508,-1.519 -8.281,-1.55 -4.446,0.144 -6.871,5.718 -6.785,9.937 0.093,4.379 2.128,10.18 6.664,10.594 4.226,0.383 6.191,-0.461 7.957,-1.957 1.976,-1.578 4.488,-1.668 6.75,-1.82 2.8,-0.184 5.933,-0.446 13.156,0.109 7.695,0.59 10.156,1.867 12.578,4.113 5.867,5.434 11.781,10.11 12.723,16.895 1.066,7.719 -3.055,15.941 -7.278,25.019 -3.082,6.621 -3.515,7.121 -6.277,9.254 -3.137,2.418 -5.164,3.012 -7.781,3.809 -3.172,0.949 -6.403,2.297 -8.27,6.281 -2.137,3.707 -1.375,7.863 1.172,11.484 3.227,4.594 10.688,4.75 14.715,1.758 3.066,-2.281 3.644,-5.105 5.234,-9.281 1.637,-4.484 5.352,-7.516 12.141,-11.301 6.875,-3.832 12.785,-7.304 19.656,-9.59 14.02,-4.691 18.852,-4.765 37.391,-4.683 14.777,0.066 19.98,1.101 32.937,0.445 16.442,-0.644 21.887,-4.25 36.551,-0.719 14.274,3.434 22.399,7.446 32.555,12.309 12.32,5.59 21.164,9.012 23.394,16.543 1.703,6.09 7.836,10.422 14.285,11.445 8.555,1.356 13.075,-1.301 16.559,-7.746 3.313,-6.121 3.117,-12.285 0.27,-16.691 -2.993,-4.633 -7.883,-7.266 -14.782,-7.77 -3.558,-0.262 -6.785,0.16 -11.207,-0.629 -4.632,-0.816 -13.617,-4.933 -25.328,-11.039 -7.926,-4.242 -13.117,-9.133 -31.906,-17.207 -19.418,-9.308 -22.313,-14.824 -28.777,-27.086 z"
                                   style="fill:#5a205a;fill-opacity:1;fill-rule:nonzero;stroke:#5a205a;stroke-width:2.45197;stroke-linecap:butt;stroke-linejoin:miter;stroke-miterlimit:4;stroke-dasharray:none;stroke-opacity:1"
                                   id="path2169" />
                                </g>
                              </g>
                            </g>
                          </g>
                        </g>
                      </g>
                    </g>
                    <g
                       id="g2181"
                       transform="translate(-3.321)" />
                  </g>
                </g>
              </g>
              <g
                 id="g2183"
                 transform="translate(124.577,24.096)" />
            </g>
          </g>
          <g
             id="g2185" />
          <g
             id="g2187" />
          <g
             id="g2189" />
          <g
             id="g2191" />
          <g
             id="g2193" />
          <g
             id="g2195" />
          <g
             id="g2197" />
          <g
             id="g2199" />
          <g
             id="g2201">
            <g
               id="g2203"
               transform="matrix(0.98482,0.17365,-0.17365,0.98482,-25.365,-24.096)">
              <g
                 id="g2205">
                <g
                   id="g2207"
                   transform="scale(1.3)">
                  <g
                     id="g2209"
                     transform="translate(3.321)">
                    <g
                       id="g2211"
                       transform="scale(0.20125)">
                      <g
                         id="g2213">
                        <g
                           id="g2215" />
                        <g
                           id="g2231">
                          <g
                             clip-path="url(#clipPath2219)"
                             id="g2229">
                            <g
                               transform="matrix(1,0,0,-1,0,172.14323)"
                               id="g2227">
                              <g
                                 id="g2225">
                                <g
                                   id="g2223">
                                <path
                                   d="M 166.309,82.406 C 161.73,73.723 153.824,65.82 133.402,62.023 118.379,59.227 107.277,55.387 103.109,48.074 c -4.578,-8.031 -4.3,-11.398 -4.062,-18.715 0.18,-3.531 0.789,-9.058 1.976,-11.023 1.711,-2.832 2.848,-5.832 2.665,-9.094 -0.368,-4.531 -3.395,-8.121 -9.426,-8.015 -6.473,0.117 -10.137,2.461 -10.524,7.839 -0.476,6.68 1.578,7.379 3.043,12.954 0.996,3.488 0.907,8.71 0.196,13.988 -0.84,6.234 -0.309,8.586 -3.086,16.965 -3.461,10.445 -6.282,15.625 -28.493,16.984 -21.847,1.34 -22.929,1.996 -29.503,2.367 -5.473,0.313 -6.758,0.227 -9.602,-0.844 -3.172,-1.406 -4.508,-1.519 -8.281,-1.55 -4.446,0.144 -6.871,5.718 -6.785,9.937 0.093,4.379 2.128,10.18 6.664,10.594 4.226,0.383 6.191,-0.461 7.957,-1.957 1.976,-1.578 4.488,-1.668 6.75,-1.82 2.8,-0.184 5.933,-0.446 13.156,0.109 7.695,0.59 10.156,1.867 12.578,4.113 5.867,5.434 11.781,10.11 12.723,16.895 1.066,7.719 -3.055,15.941 -7.278,25.019 -3.082,6.621 -3.515,7.121 -6.277,9.254 -3.137,2.418 -5.164,3.012 -7.781,3.809 -3.172,0.949 -6.403,2.297 -8.27,6.281 -2.137,3.707 -1.375,7.863 1.172,11.484 3.227,4.594 10.688,4.75 14.715,1.758 3.066,-2.281 3.644,-5.105 5.234,-9.281 1.637,-4.484 5.352,-7.516 12.141,-11.301 6.875,-3.832 12.785,-7.304 19.656,-9.59 14.02,-4.691 18.852,-4.765 37.391,-4.683 14.777,0.066 19.98,1.101 32.937,0.445 16.442,-0.644 21.887,-4.25 36.551,-0.719 14.274,3.434 22.399,7.446 32.555,12.309 12.32,5.59 21.164,9.012 23.394,16.543 1.703,6.09 7.836,10.422 14.285,11.445 8.555,1.356 13.075,-1.301 16.559,-7.746 3.313,-6.121 3.117,-12.285 0.27,-16.691 -2.993,-4.633 -7.883,-7.266 -14.782,-7.77 -3.558,-0.262 -6.785,0.16 -11.207,-0.629 -4.632,-0.816 -13.617,-4.933 -25.328,-11.039 -7.926,-4.242 -13.117,-9.133 -31.906,-17.207 -19.418,-9.308 -22.313,-14.824 -28.777,-27.086 z"
                                   style="fill:#5a205a;fill-opacity:1;fill-rule:nonzero;stroke:#5a205a;stroke-width:2.45197;stroke-linecap:butt;stroke-linejoin:miter;stroke-miterlimit:4;stroke-dasharray:none;stroke-opacity:1"
                                   id="path2221" />
                                </g>
                              </g>
                            </g>
                          </g>
                        </g>
                      </g>
                    </g>
                    <g
                       id="g2233"
                       transform="translate(-3.321)" />
                  </g>
                </g>
              </g>
              <g
                 id="g2235"
                 transform="translate(25.365,24.096)" />
            </g>
          </g>
          <g
             id="g2237" />
          <g
             id="g2239" />
          <g
             id="g2241" />
          <g
             id="g2243" />
          <g
             id="g2245" />
          <g
             id="g2247" />
          <g
             id="g2249" />
          <g
             id="g2251" />
          <g
             id="g2253">
            <g
               id="g2255"
               transform="matrix(0.98482,0.17365,-0.17365,0.98482,73.848,-24.096)">
              <g
                 id="g2257">
                <g
                   id="g2259"
                   transform="scale(1.3)">
                  <g
                     id="g2261"
                     transform="translate(3.321)">
                    <g
                       id="g2263"
                       transform="scale(0.20125)">
                      <g
                         id="g2265">
                        <g
                           id="g2267" />
                        <g
                           id="g2283">
                          <g
                             clip-path="url(#clipPath2271)"
                             id="g2281">
                            <g
                               transform="matrix(1,0,0,-1,0,172.14323)"
                               id="g2279">
                              <g
                                 id="g2277">
                                <g
                                   id="g2275">
                                <path
                                   d="M 166.309,82.406 C 161.73,73.723 153.824,65.82 133.402,62.023 118.379,59.227 107.277,55.387 103.109,48.074 c -4.578,-8.031 -4.3,-11.398 -4.062,-18.715 0.18,-3.531 0.789,-9.058 1.976,-11.023 1.711,-2.832 2.848,-5.832 2.665,-9.094 -0.368,-4.531 -3.395,-8.121 -9.426,-8.015 -6.473,0.117 -10.137,2.461 -10.524,7.839 -0.476,6.68 1.578,7.379 3.043,12.954 0.996,3.488 0.907,8.71 0.196,13.988 -0.84,6.234 -0.309,8.586 -3.086,16.965 -3.461,10.445 -6.282,15.625 -28.493,16.984 -21.847,1.34 -22.929,1.996 -29.503,2.367 -5.473,0.313 -6.758,0.227 -9.602,-0.844 -3.172,-1.406 -4.508,-1.519 -8.281,-1.55 -4.446,0.144 -6.871,5.718 -6.785,9.937 0.093,4.379 2.128,10.18 6.664,10.594 4.226,0.383 6.191,-0.461 7.957,-1.957 1.976,-1.578 4.488,-1.668 6.75,-1.82 2.8,-0.184 5.933,-0.446 13.156,0.109 7.695,0.59 10.156,1.867 12.578,4.113 5.867,5.434 11.781,10.11 12.723,16.895 1.066,7.719 -3.055,15.941 -7.278,25.019 -3.082,6.621 -3.515,7.121 -6.277,9.254 -3.137,2.418 -5.164,3.012 -7.781,3.809 -3.172,0.949 -6.403,2.297 -8.27,6.281 -2.137,3.707 -1.375,7.863 1.172,11.484 3.227,4.594 10.688,4.75 14.715,1.758 3.066,-2.281 3.644,-5.105 5.234,-9.281 1.637,-4.484 5.352,-7.516 12.141,-11.301 6.875,-3.832 12.785,-7.304 19.656,-9.59 14.02,-4.691 18.852,-4.765 37.391,-4.683 14.777,0.066 19.98,1.101 32.937,0.445 16.442,-0.644 21.887,-4.25 36.551,-0.719 14.274,3.434 22.399,7.446 32.555,12.309 12.32,5.59 21.164,9.012 23.394,16.543 1.703,6.09 7.836,10.422 14.285,11.445 8.555,1.356 13.075,-1.301 16.559,-7.746 3.313,-6.121 3.117,-12.285 0.27,-16.691 -2.993,-4.633 -7.883,-7.266 -14.782,-7.77 -3.558,-0.262 -6.785,0.16 -11.207,-0.629 -4.632,-0.816 -13.617,-4.933 -25.328,-11.039 -7.926,-4.242 -13.117,-9.133 -31.906,-17.207 -19.418,-9.308 -22.313,-14.824 -28.777,-27.086 z"
                                   style="fill:#5a205a;fill-opacity:1;fill-rule:nonzero;stroke:#5a205a;stroke-width:2.45197;stroke-linecap:butt;stroke-linejoin:miter;stroke-miterlimit:4;stroke-dasharray:none;stroke-opacity:1"
                                   id="path2273" />
                                </g>
                              </g>
                            </g>
                          </g>
                        </g>
                      </g>
                    </g>
                    <g
                       id="g2285"
                       transform="translate(-3.321)" />
                  </g>
                </g>
              </g>
              <g
                 id="g2287"
                 transform="translate(-73.848,24.096)" />
            </g>
          </g>
          <g
             id="g2289" />
          <g
             id="g2291" />
          <g
             id="g2293" />
          <g
             id="g2295" />
          <g
             id="g2297" />
          <g
             id="g2299" />
          <g
             id="g2301" />
          <g
             id="g2303" />
          <g
             id="g2305">
            <g
               id="g2307"
               transform="matrix(0.98482,0.17365,-0.17365,0.98482,173.06,-24.096)">
              <g
                 id="g2309">
                <g
                   id="g2311"
                   transform="scale(1.3)">
                  <g
                     id="g2313"
                     transform="translate(3.321)">
                    <g
                       id="g2315"
                       transform="scale(0.20125)">
                      <g
                         id="g2317">
                        <g
                           id="g2319" />
                        <g
                           id="g2335">
                          <g
                             clip-path="url(#clipPath2323)"
                             id="g2333">
                            <g
                               transform="matrix(1,0,0,-1,0,172.14323)"
                               id="g2331">
                              <g
                                 id="g2329">
                                <g
                                   id="g2327">
                                <path
                                   d="M 166.309,82.406 C 161.73,73.723 153.824,65.82 133.402,62.023 118.379,59.227 107.277,55.387 103.109,48.074 c -4.578,-8.031 -4.3,-11.398 -4.062,-18.715 0.18,-3.531 0.789,-9.058 1.976,-11.023 1.711,-2.832 2.848,-5.832 2.665,-9.094 -0.368,-4.531 -3.395,-8.121 -9.426,-8.015 -6.473,0.117 -10.137,2.461 -10.524,7.839 -0.476,6.68 1.578,7.379 3.043,12.954 0.996,3.488 0.907,8.71 0.196,13.988 -0.84,6.234 -0.309,8.586 -3.086,16.965 -3.461,10.445 -6.282,15.625 -28.493,16.984 -21.847,1.34 -22.929,1.996 -29.503,2.367 -5.473,0.313 -6.758,0.227 -9.602,-0.844 -3.172,-1.406 -4.508,-1.519 -8.281,-1.55 -4.446,0.144 -6.871,5.718 -6.785,9.937 0.093,4.379 2.128,10.18 6.664,10.594 4.226,0.383 6.191,-0.461 7.957,-1.957 1.976,-1.578 4.488,-1.668 6.75,-1.82 2.8,-0.184 5.933,-0.446 13.156,0.109 7.695,0.59 10.156,1.867 12.578,4.113 5.867,5.434 11.781,10.11 12.723,16.895 1.066,7.719 -3.055,15.941 -7.278,25.019 -3.082,6.621 -3.515,7.121 -6.277,9.254 -3.137,2.418 -5.164,3.012 -7.781,3.809 -3.172,0.949 -6.403,2.297 -8.27,6.281 -2.137,3.707 -1.375,7.863 1.172,11.484 3.227,4.594 10.688,4.75 14.715,1.758 3.066,-2.281 3.644,-5.105 5.234,-9.281 1.637,-4.484 5.352,-7.516 12.141,-11.301 6.875,-3.832 12.785,-7.304 19.656,-9.59 14.02,-4.691 18.852,-4.765 37.391,-4.683 14.777,0.066 19.98,1.101 32.937,0.445 16.442,-0.644 21.887,-4.25 36.551,-0.719 14.274,3.434 22.399,7.446 32.555,12.309 12.32,5.59 21.164,9.012 23.394,16.543 1.703,6.09 7.836,10.422 14.285,11.445 8.555,1.356 13.075,-1.301 16.559,-7.746 3.313,-6.121 3.117,-12.285 0.27,-16.691 -2.993,-4.633 -7.883,-7.266 -14.782,-7.77 -3.558,-0.262 -6.785,0.16 -11.207,-0.629 -4.632,-0.816 -13.617,-4.933 -25.328,-11.039 -7.926,-4.242 -13.117,-9.133 -31.906,-17.207 -19.418,-9.308 -22.313,-14.824 -28.777,-27.086 z"
                                   style="fill:#5a205a;fill-opacity:1;fill-rule:nonzero;stroke:#5a205a;stroke-width:2.45197;stroke-linecap:butt;stroke-linejoin:miter;stroke-miterlimit:4;stroke-dasharray:none;stroke-opacity:1"
                                   id="path2325" />
                                </g>
                              </g>
                            </g>
                          </g>
                        </g>
                      </g>
                    </g>
                    <g
                       id="g2337"
                       transform="translate(-3.321)" />
                  </g>
                </g>
              </g>
              <g
                 id="g2339"
                 transform="translate(-173.06,24.096)" />
            </g>
          </g>
          <g
             id="g2341" />
          <g
             id="g2343" />
          <g
             id="g2345" />
          <g
             id="g2347" />
          <g
             id="g2349" />
          <g
             id="g2351" />
          <g
             id="g2353">
            <g
               id="g2355">
              <path
                 d="m -151.90663,-6.89081 c 11.26555,-4.10037 17.79657,7.51573 29.78506,7.51573"
                 style="fill:none;stroke:#ffffff;stroke-width:1.99255;stroke-linecap:round;stroke-linejoin:miter;stroke-miterlimit:10;stroke-dasharray:none;stroke-opacity:1"
                 id="path2357" />
            </g>
          </g>
          <g
             id="g2359">
            <path
               d="m -151.90663,-6.89081 c 11.26555,-4.10037 17.79657,7.51573 29.78506,7.51573"
               style="fill:none;stroke:#000000;stroke-width:0.99628;stroke-linecap:round;stroke-linejoin:miter;stroke-miterlimit:10;stroke-dasharray:none;stroke-opacity:1"
               id="path2361" />
          </g>
          <g
             id="g2363">
            <g
               id="g2365">
              <path
                 d="m -52.6928,-6.89081 c 11.26555,-4.10037 17.79656,7.51573 29.78505,7.51573"
                 style="fill:none;stroke:#ffffff;stroke-width:1.99255;stroke-linecap:round;stroke-linejoin:miter;stroke-miterlimit:10;stroke-dasharray:none;stroke-opacity:1"
                 id="path2367" />
            </g>
          </g>
          <g
             id="g2369">
            <path
               d="m -52.6928,-6.89081 c 11.26555,-4.10037 17.79656,7.51573 29.78505,7.51573"
               style="fill:none;stroke:#000000;stroke-width:0.99628;stroke-linecap:round;stroke-linejoin:miter;stroke-miterlimit:10;stroke-dasharray:none;stroke-opacity:1"
               id="path2371" />
          </g>
          <g
             id="g2373">
            <g
               id="g2375">
              <path
                 d="m 46.52101,-6.89081 c 11.26555,-4.10037 17.79656,7.51573 29.78505,7.51573"
                 style="fill:none;stroke:#ffffff;stroke-width:1.99255;stroke-linecap:round;stroke-linejoin:miter;stroke-miterlimit:10;stroke-dasharray:none;stroke-opacity:1"
                 id="path2377" />
            </g>
          </g>
          <g
             id="g2379">
            <path
               d="m 46.52101,-6.89081 c 11.26555,-4.10037 17.79656,7.51573 29.78505,7.51573"
               style="fill:none;stroke:#000000;stroke-width:0.99628;stroke-linecap:round;stroke-linejoin:miter;stroke-miterlimit:10;stroke-dasharray:none;stroke-opacity:1"
               id="path2381" />
          </g>
          <g
             id="g2383">
            <g
               id="g2385">
              <path
                 d="m 145.73483,-6.89081 c 11.26555,-4.10037 17.79659,7.51573 29.78508,7.51573"
                 style="fill:none;stroke:#ffffff;stroke-width:1.99255;stroke-linecap:round;stroke-linejoin:miter;stroke-miterlimit:10;stroke-dasharray:none;stroke-opacity:1"
                 id="path2387" />
            </g>
          </g>
          <g
             id="g2389">
            <path
               d="m 145.73483,-6.89081 c 11.26555,-4.10037 17.79659,7.51573 29.78508,7.51573"
               style="fill:none;stroke:#000000;stroke-width:0.99628;stroke-linecap:round;stroke-linejoin:miter;stroke-miterlimit:10;stroke-dasharray:none;stroke-opacity:1"
               id="path2391" />
          </g>
        </g>
      </g>
    </g>
  </g>
</svg>
