<?xml version="1.0" encoding="UTF-8" standalone="no"?>
<!-- Created with Inkscape (http://www.inkscape.org/) -->

<svg
   version="1.1"
   id="svg1628"
   width="831.49597"
   height="377.952"
   viewBox="0 0 831.49597 377.952"
   sodipodi:docname="synfirechain.pdf"
   xmlns:inkscape="http://www.inkscape.org/namespaces/inkscape"
   xmlns:sodipodi="http://sodipodi.sourceforge.net/DTD/sodipodi-0.dtd"
   xmlns="http://www.w3.org/2000/svg"
   xmlns:svg="http://www.w3.org/2000/svg">
  <defs
     id="defs1632">
    <clipPath
       clipPathUnits="userSpaceOnUse"
       id="clipPath1666">
      <path
         d="M 0,0 H 281.70416 V 172.14323 H 0 Z"
         id="path1664" />
    </clipPath>
    <clipPath
       clipPathUnits="userSpaceOnUse"
       id="clipPath1716">
      <path
         d="M 0,0 H 281.70416 V 172.14323 H 0 Z"
         id="path1714" />
    </clipPath>
    <clipPath
       clipPathUnits="userSpaceOnUse"
       id="clipPath1766">
      <path
         d="M 0,0 H 281.70416 V 172.14323 H 0 Z"
         id="path1764" />
    </clipPath>
    <clipPath
       clipPathUnits="userSpaceOnUse"
       id="clipPath1816">
      <path
         d="M 0,0 H 281.70416 V 172.14323 H 0 Z"
         id="path1814" />
    </clipPath>
    <clipPath
       clipPathUnits="userSpaceOnUse"
       id="clipPath1866">
      <path
         d="M 0,0 H 281.70416 V 172.14323 H 0 Z"
         id="path1864" />
    </clipPath>
    <clipPath
       clipPathUnits="userSpaceOnUse"
       id="clipPath1916">
      <path
         d="M 0,0 H 281.70416 V 172.14323 H 0 Z"
         id="path1914" />
    </clipPath>
    <clipPath
       clipPathUnits="userSpaceOnUse"
       id="clipPath1966">
      <path
         d="M 0,0 H 281.70416 V 172.14323 H 0 Z"
         id="path1964" />
    </clipPath>
  </defs>
  <sodipodi:namedview
     id="namedview1630"
     pagecolor="#ffffff"
     bordercolor="#666666"
     borderopacity="1.0"
     inkscape:showpageshadow="2"
     inkscape:pageopacity="0.0"
     inkscape:pagecheckerboard="0"
     inkscape:deskcolor="#d1d1d1" />
  <g
     id="g1634"
     inkscape:groupmode="layer"
     inkscape:label="synfirechain4"
     transform="matrix(1.3333333,0,0,-1.3333333,0,377.952)">
    <g
       id="g1636"
       transform="translate(311.811,141.732)">
      <g
         id="g1638">
        <g
           id="g1640">
          <g
             id="g1642">
            <path
               d="M -311.8149,-141.73404 V 141.73404 H 311.8149 V -141.73404 Z"
               style="fill:#ffffff;fill-opacity:1;fill-rule:nonzero;stroke:none"
               id="path1644" />
          </g>
          <g
             id="g1646" />
          <g
             id="g1648">
            <g
               id="g1650"
               transform="matrix(0.94788,-0.31847,0.31847,0.94788,62.678,80.97)">
              <g
                 id="g1652">
                <g
                   id="g1654"
                   transform="scale(1.3)">
                  <g
                     id="g1656"
                     transform="translate(3.321)">
                    <g
                       id="g1658"
                       transform="scale(0.20125)">
                      <g
                         id="g1660">
                        <g
                           id="g1662" />
                        <g
                           id="g1678">
                          <g
                             clip-path="url(#clipPath1666)"
                             id="g1676">
                            <g
                               transform="matrix(1,0,0,-1,0,172.14323)"
                               id="g1674">
                              <g
                                 id="g1672">
                                <g
                                   id="g1670">
                                <path
                                   d="M 166.309,82.406 C 161.73,73.723 153.824,65.82 133.402,62.023 118.379,59.227 107.277,55.387 103.109,48.074 c -4.578,-8.031 -4.3,-11.398 -4.062,-18.715 0.18,-3.531 0.789,-9.058 1.976,-11.023 1.711,-2.832 2.848,-5.832 2.665,-9.094 -0.368,-4.531 -3.395,-8.121 -9.426,-8.015 -6.473,0.117 -10.137,2.461 -10.524,7.839 -0.476,6.68 1.578,7.379 3.043,12.954 0.996,3.488 0.907,8.71 0.196,13.988 -0.84,6.234 -0.309,8.586 -3.086,16.965 -3.461,10.445 -6.282,15.625 -28.493,16.984 -21.847,1.34 -22.929,1.996 -29.503,2.367 -5.473,0.313 -6.758,0.227 -9.602,-0.844 -3.172,-1.406 -4.508,-1.519 -8.281,-1.55 -4.446,0.144 -6.871,5.718 -6.785,9.937 0.093,4.379 2.128,10.18 6.664,10.594 4.226,0.383 6.191,-0.461 7.957,-1.957 1.976,-1.578 4.488,-1.668 6.75,-1.82 2.8,-0.184 5.933,-0.446 13.156,0.109 7.695,0.59 10.156,1.867 12.578,4.113 5.867,5.434 11.781,10.11 12.723,16.895 1.066,7.719 -3.055,15.941 -7.278,25.019 -3.082,6.621 -3.515,7.121 -6.277,9.254 -3.137,2.418 -5.164,3.012 -7.781,3.809 -3.172,0.949 -6.403,2.297 -8.27,6.281 -2.137,3.707 -1.375,7.863 1.172,11.484 3.227,4.594 10.688,4.75 14.715,1.758 3.066,-2.281 3.644,-5.105 5.234,-9.281 1.637,-4.484 5.352,-7.516 12.141,-11.301 6.875,-3.832 12.785,-7.304 19.656,-9.59 14.02,-4.691 18.852,-4.765 37.391,-4.683 14.777,0.066 19.98,1.101 32.937,0.445 16.442,-0.644 21.887,-4.25 36.551,-0.719 14.274,3.434 22.399,7.446 32.555,12.309 12.32,5.59 21.164,9.012 23.394,16.543 1.703,6.09 7.836,10.422 14.285,11.445 8.555,1.356 13.075,-1.301 16.559,-7.746 3.313,-6.121 3.117,-12.285 0.27,-16.691 -2.993,-4.633 -7.883,-7.266 -14.782,-7.77 -3.558,-0.262 -6.785,0.16 -11.207,-0.629 -4.632,-0.816 -13.617,-4.933 -25.328,-11.039 -7.926,-4.242 -13.117,-9.133 -31.906,-17.207 -19.418,-9.308 -22.313,-14.824 -28.777,-27.086 z"
                                   style="fill:#5a205a;fill-opacity:1;fill-rule:nonzero;stroke:#5a205a;stroke-width:2.45197;stroke-linecap:butt;stroke-linejoin:miter;stroke-miterlimit:4;stroke-dasharray:none;stroke-opacity:1"
                                   id="path1668" />
                                </g>
                              </g>
                            </g>
                          </g>
                        </g>
                      </g>
                    </g>
                    <g
                       id="g1680"
                       transform="translate(-3.321)" />
                  </g>
                </g>
              </g>
              <g
                 id="g1682"
                 transform="translate(-62.678,-80.97)" />
            </g>
          </g>
          <g
             id="g1684" />
          <g
             id="g1686" />
          <g
             id="g1688" />
          <g
             id="g1690" />
          <g
             id="g1692" />
          <g
             id="g1694" />
          <g
             id="g1696" />
          <g
             id="g1698">
            <g
               id="g1700"
               transform="matrix(0.84,0.54253,-0.54253,0.84,-51.942,77.384)">
              <g
                 id="g1702">
                <g
                   id="g1704"
                   transform="scale(1.3)">
                  <g
                     id="g1706"
                     transform="translate(3.32)">
                    <g
                       id="g1708"
                       transform="scale(0.20125)">
                      <g
                         id="g1710">
                        <g
                           id="g1712" />
                        <g
                           id="g1728">
                          <g
                             clip-path="url(#clipPath1716)"
                             id="g1726">
                            <g
                               transform="matrix(1,0,0,-1,0,172.14323)"
                               id="g1724">
                              <g
                                 id="g1722">
                                <g
                                   id="g1720">
                                <path
                                   d="M 166.309,82.406 C 161.73,73.723 153.824,65.82 133.402,62.023 118.379,59.227 107.277,55.387 103.109,48.074 c -4.578,-8.031 -4.3,-11.398 -4.062,-18.715 0.18,-3.531 0.789,-9.058 1.976,-11.023 1.711,-2.832 2.848,-5.832 2.665,-9.094 -0.368,-4.531 -3.395,-8.121 -9.426,-8.015 -6.473,0.117 -10.137,2.461 -10.524,7.839 -0.476,6.68 1.578,7.379 3.043,12.954 0.996,3.488 0.907,8.71 0.196,13.988 -0.84,6.234 -0.309,8.586 -3.086,16.965 -3.461,10.445 -6.282,15.625 -28.493,16.984 -21.847,1.34 -22.929,1.996 -29.503,2.367 -5.473,0.313 -6.758,0.227 -9.602,-0.844 -3.172,-1.406 -4.508,-1.519 -8.281,-1.55 -4.446,0.144 -6.871,5.718 -6.785,9.937 0.093,4.379 2.128,10.18 6.664,10.594 4.226,0.383 6.191,-0.461 7.957,-1.957 1.976,-1.578 4.488,-1.668 6.75,-1.82 2.8,-0.184 5.933,-0.446 13.156,0.109 7.695,0.59 10.156,1.867 12.578,4.113 5.867,5.434 11.781,10.11 12.723,16.895 1.066,7.719 -3.055,15.941 -7.278,25.019 -3.082,6.621 -3.515,7.121 -6.277,9.254 -3.137,2.418 -5.164,3.012 -7.781,3.809 -3.172,0.949 -6.403,2.297 -8.27,6.281 -2.137,3.707 -1.375,7.863 1.172,11.484 3.227,4.594 10.688,4.75 14.715,1.758 3.066,-2.281 3.644,-5.105 5.234,-9.281 1.637,-4.484 5.352,-7.516 12.141,-11.301 6.875,-3.832 12.785,-7.304 19.656,-9.59 14.02,-4.691 18.852,-4.765 37.391,-4.683 14.777,0.066 19.98,1.101 32.937,0.445 16.442,-0.644 21.887,-4.25 36.551,-0.719 14.274,3.434 22.399,7.446 32.555,12.309 12.32,5.59 21.164,9.012 23.394,16.543 1.703,6.09 7.836,10.422 14.285,11.445 8.555,1.356 13.075,-1.301 16.559,-7.746 3.313,-6.121 3.117,-12.285 0.27,-16.691 -2.993,-4.633 -7.883,-7.266 -14.782,-7.77 -3.558,-0.262 -6.785,0.16 -11.207,-0.629 -4.632,-0.816 -13.617,-4.933 -25.328,-11.039 -7.926,-4.242 -13.117,-9.133 -31.906,-17.207 -19.418,-9.308 -22.313,-14.824 -28.777,-27.086 z"
                                   style="fill:#5a205a;fill-opacity:1;fill-rule:nonzero;stroke:#5a205a;stroke-width:2.45197;stroke-linecap:butt;stroke-linejoin:miter;stroke-miterlimit:4;stroke-dasharray:none;stroke-opacity:1"
                                   id="path1718" />
                                </g>
                              </g>
                            </g>
                          </g>
                        </g>
                      </g>
                    </g>
                    <g
                       id="g1730"
                       transform="translate(-3.32)" />
                  </g>
                </g>
              </g>
              <g
                 id="g1732"
                 transform="translate(51.942,-77.384)" />
            </g>
          </g>
          <g
             id="g1734" />
          <g
             id="g1736" />
          <g
             id="g1738" />
          <g
             id="g1740" />
          <g
             id="g1742" />
          <g
             id="g1744" />
          <g
             id="g1746" />
          <g
             id="g1748">
            <g
               id="g1750"
               transform="matrix(0.09953,0.99498,-0.99498,0.09953,-127.455,15.524)">
              <g
                 id="g1752">
                <g
                   id="g1754"
                   transform="scale(1.3)">
                  <g
                     id="g1756"
                     transform="translate(3.321)">
                    <g
                       id="g1758"
                       transform="scale(0.20125)">
                      <g
                         id="g1760">
                        <g
                           id="g1762" />
                        <g
                           id="g1778">
                          <g
                             clip-path="url(#clipPath1766)"
                             id="g1776">
                            <g
                               transform="matrix(1,0,0,-1,0,172.14323)"
                               id="g1774">
                              <g
                                 id="g1772">
                                <g
                                   id="g1770">
                                <path
                                   d="M 166.309,82.406 C 161.73,73.723 153.824,65.82 133.402,62.023 118.379,59.227 107.277,55.387 103.109,48.074 c -4.578,-8.031 -4.3,-11.398 -4.062,-18.715 0.18,-3.531 0.789,-9.058 1.976,-11.023 1.711,-2.832 2.848,-5.832 2.665,-9.094 -0.368,-4.531 -3.395,-8.121 -9.426,-8.015 -6.473,0.117 -10.137,2.461 -10.524,7.839 -0.476,6.68 1.578,7.379 3.043,12.954 0.996,3.488 0.907,8.71 0.196,13.988 -0.84,6.234 -0.309,8.586 -3.086,16.965 -3.461,10.445 -6.282,15.625 -28.493,16.984 -21.847,1.34 -22.929,1.996 -29.503,2.367 -5.473,0.313 -6.758,0.227 -9.602,-0.844 -3.172,-1.406 -4.508,-1.519 -8.281,-1.55 -4.446,0.144 -6.871,5.718 -6.785,9.937 0.093,4.379 2.128,10.18 6.664,10.594 4.226,0.383 6.191,-0.461 7.957,-1.957 1.976,-1.578 4.488,-1.668 6.75,-1.82 2.8,-0.184 5.933,-0.446 13.156,0.109 7.695,0.59 10.156,1.867 12.578,4.113 5.867,5.434 11.781,10.11 12.723,16.895 1.066,7.719 -3.055,15.941 -7.278,25.019 -3.082,6.621 -3.515,7.121 -6.277,9.254 -3.137,2.418 -5.164,3.012 -7.781,3.809 -3.172,0.949 -6.403,2.297 -8.27,6.281 -2.137,3.707 -1.375,7.863 1.172,11.484 3.227,4.594 10.688,4.75 14.715,1.758 3.066,-2.281 3.644,-5.105 5.234,-9.281 1.637,-4.484 5.352,-7.516 12.141,-11.301 6.875,-3.832 12.785,-7.304 19.656,-9.59 14.02,-4.691 18.852,-4.765 37.391,-4.683 14.777,0.066 19.98,1.101 32.937,0.445 16.442,-0.644 21.887,-4.25 36.551,-0.719 14.274,3.434 22.399,7.446 32.555,12.309 12.32,5.59 21.164,9.012 23.394,16.543 1.703,6.09 7.836,10.422 14.285,11.445 8.555,1.356 13.075,-1.301 16.559,-7.746 3.313,-6.121 3.117,-12.285 0.27,-16.691 -2.993,-4.633 -7.883,-7.266 -14.782,-7.77 -3.558,-0.262 -6.785,0.16 -11.207,-0.629 -4.632,-0.816 -13.617,-4.933 -25.328,-11.039 -7.926,-4.242 -13.117,-9.133 -31.906,-17.207 -19.418,-9.308 -22.313,-14.824 -28.777,-27.086 z"
                                   style="fill:#5a205a;fill-opacity:1;fill-rule:nonzero;stroke:#5a205a;stroke-width:2.45197;stroke-linecap:butt;stroke-linejoin:miter;stroke-miterlimit:4;stroke-dasharray:none;stroke-opacity:1"
                                   id="path1768" />
                                </g>
                              </g>
                            </g>
                          </g>
                        </g>
                      </g>
                    </g>
                    <g
                       id="g1780"
                       transform="translate(-3.321)" />
                  </g>
                </g>
              </g>
              <g
                 id="g1782"
                 transform="translate(127.455,-15.524)" />
            </g>
          </g>
          <g
             id="g1784" />
          <g
             id="g1786" />
          <g
             id="g1788" />
          <g
             id="g1790" />
          <g
             id="g1792" />
          <g
             id="g1794" />
          <g
             id="g1796" />
          <g
             id="g1798">
            <g
               id="g1800"
               transform="matrix(-0.71584,0.6982,-0.6982,-0.71584,-106.989,-58.022)">
              <g
                 id="g1802">
                <g
                   id="g1804"
                   transform="scale(1.3)">
                  <g
                     id="g1806"
                     transform="translate(3.321)">
                    <g
                       id="g1808"
                       transform="scale(0.20125)">
                      <g
                         id="g1810">
                        <g
                           id="g1812" />
                        <g
                           id="g1828">
                          <g
                             clip-path="url(#clipPath1816)"
                             id="g1826">
                            <g
                               transform="matrix(1,0,0,-1,0,172.14323)"
                               id="g1824">
                              <g
                                 id="g1822">
                                <g
                                   id="g1820">
                                <path
                                   d="M 166.309,82.406 C 161.73,73.723 153.824,65.82 133.402,62.023 118.379,59.227 107.277,55.387 103.109,48.074 c -4.578,-8.031 -4.3,-11.398 -4.062,-18.715 0.18,-3.531 0.789,-9.058 1.976,-11.023 1.711,-2.832 2.848,-5.832 2.665,-9.094 -0.368,-4.531 -3.395,-8.121 -9.426,-8.015 -6.473,0.117 -10.137,2.461 -10.524,7.839 -0.476,6.68 1.578,7.379 3.043,12.954 0.996,3.488 0.907,8.71 0.196,13.988 -0.84,6.234 -0.309,8.586 -3.086,16.965 -3.461,10.445 -6.282,15.625 -28.493,16.984 -21.847,1.34 -22.929,1.996 -29.503,2.367 -5.473,0.313 -6.758,0.227 -9.602,-0.844 -3.172,-1.406 -4.508,-1.519 -8.281,-1.55 -4.446,0.144 -6.871,5.718 -6.785,9.937 0.093,4.379 2.128,10.18 6.664,10.594 4.226,0.383 6.191,-0.461 7.957,-1.957 1.976,-1.578 4.488,-1.668 6.75,-1.82 2.8,-0.184 5.933,-0.446 13.156,0.109 7.695,0.59 10.156,1.867 12.578,4.113 5.867,5.434 11.781,10.11 12.723,16.895 1.066,7.719 -3.055,15.941 -7.278,25.019 -3.082,6.621 -3.515,7.121 -6.277,9.254 -3.137,2.418 -5.164,3.012 -7.781,3.809 -3.172,0.949 -6.403,2.297 -8.27,6.281 -2.137,3.707 -1.375,7.863 1.172,11.484 3.227,4.594 10.688,4.75 14.715,1.758 3.066,-2.281 3.644,-5.105 5.234,-9.281 1.637,-4.484 5.352,-7.516 12.141,-11.301 6.875,-3.832 12.785,-7.304 19.656,-9.59 14.02,-4.691 18.852,-4.765 37.391,-4.683 14.777,0.066 19.98,1.101 32.937,0.445 16.442,-0.644 21.887,-4.25 36.551,-0.719 14.274,3.434 22.399,7.446 32.555,12.309 12.32,5.59 21.164,9.012 23.394,16.543 1.703,6.09 7.836,10.422 14.285,11.445 8.555,1.356 13.075,-1.301 16.559,-7.746 3.313,-6.121 3.117,-12.285 0.27,-16.691 -2.993,-4.633 -7.883,-7.266 -14.782,-7.77 -3.558,-0.262 -6.785,0.16 -11.207,-0.629 -4.632,-0.816 -13.617,-4.933 -25.328,-11.039 -7.926,-4.242 -13.117,-9.133 -31.906,-17.207 -19.418,-9.308 -22.313,-14.824 -28.777,-27.086 z"
                                   style="fill:#5a205a;fill-opacity:1;fill-rule:nonzero;stroke:#5a205a;stroke-width:2.45197;stroke-linecap:butt;stroke-linejoin:miter;stroke-miterlimit:4;stroke-dasharray:none;stroke-opacity:1"
                                   id="path1818" />
                                </g>
                              </g>
                            </g>
                          </g>
                        </g>
                      </g>
                    </g>
                    <g
                       id="g1830"
                       transform="translate(-3.321)" />
                  </g>
                </g>
              </g>
              <g
                 id="g1832"
                 transform="translate(106.989,58.022)" />
            </g>
          </g>
          <g
             id="g1834" />
          <g
             id="g1836" />
          <g
             id="g1838" />
          <g
             id="g1840" />
          <g
             id="g1842" />
          <g
             id="g1844" />
          <g
             id="g1846" />
          <g
             id="g1848">
            <g
               id="g1850"
               transform="matrix(-0.9922,-0.12433,0.12433,-0.9922,-5.956,-87.878)">
              <g
                 id="g1852">
                <g
                   id="g1854"
                   transform="scale(1.3)">
                  <g
                     id="g1856"
                     transform="translate(3.321)">
                    <g
                       id="g1858"
                       transform="scale(0.20125)">
                      <g
                         id="g1860">
                        <g
                           id="g1862" />
                        <g
                           id="g1878">
                          <g
                             clip-path="url(#clipPath1866)"
                             id="g1876">
                            <g
                               transform="matrix(1,0,0,-1,0,172.14323)"
                               id="g1874">
                              <g
                                 id="g1872">
                                <g
                                   id="g1870">
                                <path
                                   d="M 166.309,82.406 C 161.73,73.723 153.824,65.82 133.402,62.023 118.379,59.227 107.277,55.387 103.109,48.074 c -4.578,-8.031 -4.3,-11.398 -4.062,-18.715 0.18,-3.531 0.789,-9.058 1.976,-11.023 1.711,-2.832 2.848,-5.832 2.665,-9.094 -0.368,-4.531 -3.395,-8.121 -9.426,-8.015 -6.473,0.117 -10.137,2.461 -10.524,7.839 -0.476,6.68 1.578,7.379 3.043,12.954 0.996,3.488 0.907,8.71 0.196,13.988 -0.84,6.234 -0.309,8.586 -3.086,16.965 -3.461,10.445 -6.282,15.625 -28.493,16.984 -21.847,1.34 -22.929,1.996 -29.503,2.367 -5.473,0.313 -6.758,0.227 -9.602,-0.844 -3.172,-1.406 -4.508,-1.519 -8.281,-1.55 -4.446,0.144 -6.871,5.718 -6.785,9.937 0.093,4.379 2.128,10.18 6.664,10.594 4.226,0.383 6.191,-0.461 7.957,-1.957 1.976,-1.578 4.488,-1.668 6.75,-1.82 2.8,-0.184 5.933,-0.446 13.156,0.109 7.695,0.59 10.156,1.867 12.578,4.113 5.867,5.434 11.781,10.11 12.723,16.895 1.066,7.719 -3.055,15.941 -7.278,25.019 -3.082,6.621 -3.515,7.121 -6.277,9.254 -3.137,2.418 -5.164,3.012 -7.781,3.809 -3.172,0.949 -6.403,2.297 -8.27,6.281 -2.137,3.707 -1.375,7.863 1.172,11.484 3.227,4.594 10.688,4.75 14.715,1.758 3.066,-2.281 3.644,-5.105 5.234,-9.281 1.637,-4.484 5.352,-7.516 12.141,-11.301 6.875,-3.832 12.785,-7.304 19.656,-9.59 14.02,-4.691 18.852,-4.765 37.391,-4.683 14.777,0.066 19.98,1.101 32.937,0.445 16.442,-0.644 21.887,-4.25 36.551,-0.719 14.274,3.434 22.399,7.446 32.555,12.309 12.32,5.59 21.164,9.012 23.394,16.543 1.703,6.09 7.836,10.422 14.285,11.445 8.555,1.356 13.075,-1.301 16.559,-7.746 3.313,-6.121 3.117,-12.285 0.27,-16.691 -2.993,-4.633 -7.883,-7.266 -14.782,-7.77 -3.558,-0.262 -6.785,0.16 -11.207,-0.629 -4.632,-0.816 -13.617,-4.933 -25.328,-11.039 -7.926,-4.242 -13.117,-9.133 -31.906,-17.207 -19.418,-9.308 -22.313,-14.824 -28.777,-27.086 z"
                                   style="fill:#5a205a;fill-opacity:1;fill-rule:nonzero;stroke:#5a205a;stroke-width:2.45197;stroke-linecap:butt;stroke-linejoin:miter;stroke-miterlimit:4;stroke-dasharray:none;stroke-opacity:1"
                                   id="path1868" />
                                </g>
                              </g>
                            </g>
                          </g>
                        </g>
                      </g>
                    </g>
                    <g
                       id="g1880"
                       transform="translate(-3.321)" />
                  </g>
                </g>
              </g>
              <g
                 id="g1882"
                 transform="translate(5.956,87.878)" />
            </g>
          </g>
          <g
             id="g1884" />
          <g
             id="g1886" />
          <g
             id="g1888" />
          <g
             id="g1890" />
          <g
             id="g1892" />
          <g
             id="g1894" />
          <g
             id="g1896" />
          <g
             id="g1898">
            <g
               id="g1900"
               transform="matrix(-0.5214,-0.85324,0.85324,-0.5214,99.56,-51.558)">
              <g
                 id="g1902">
                <g
                   id="g1904"
                   transform="scale(1.3)">
                  <g
                     id="g1906"
                     transform="translate(3.321)">
                    <g
                       id="g1908"
                       transform="scale(0.20125)">
                      <g
                         id="g1910">
                        <g
                           id="g1912" />
                        <g
                           id="g1928">
                          <g
                             clip-path="url(#clipPath1916)"
                             id="g1926">
                            <g
                               transform="matrix(1,0,0,-1,0,172.14323)"
                               id="g1924">
                              <g
                                 id="g1922">
                                <g
                                   id="g1920">
                                <path
                                   d="M 166.309,82.406 C 161.73,73.723 153.824,65.82 133.402,62.023 118.379,59.227 107.277,55.387 103.109,48.074 c -4.578,-8.031 -4.3,-11.398 -4.062,-18.715 0.18,-3.531 0.789,-9.058 1.976,-11.023 1.711,-2.832 2.848,-5.832 2.665,-9.094 -0.368,-4.531 -3.395,-8.121 -9.426,-8.015 -6.473,0.117 -10.137,2.461 -10.524,7.839 -0.476,6.68 1.578,7.379 3.043,12.954 0.996,3.488 0.907,8.71 0.196,13.988 -0.84,6.234 -0.309,8.586 -3.086,16.965 -3.461,10.445 -6.282,15.625 -28.493,16.984 -21.847,1.34 -22.929,1.996 -29.503,2.367 -5.473,0.313 -6.758,0.227 -9.602,-0.844 -3.172,-1.406 -4.508,-1.519 -8.281,-1.55 -4.446,0.144 -6.871,5.718 -6.785,9.937 0.093,4.379 2.128,10.18 6.664,10.594 4.226,0.383 6.191,-0.461 7.957,-1.957 1.976,-1.578 4.488,-1.668 6.75,-1.82 2.8,-0.184 5.933,-0.446 13.156,0.109 7.695,0.59 10.156,1.867 12.578,4.113 5.867,5.434 11.781,10.11 12.723,16.895 1.066,7.719 -3.055,15.941 -7.278,25.019 -3.082,6.621 -3.515,7.121 -6.277,9.254 -3.137,2.418 -5.164,3.012 -7.781,3.809 -3.172,0.949 -6.403,2.297 -8.27,6.281 -2.137,3.707 -1.375,7.863 1.172,11.484 3.227,4.594 10.688,4.75 14.715,1.758 3.066,-2.281 3.644,-5.105 5.234,-9.281 1.637,-4.484 5.352,-7.516 12.141,-11.301 6.875,-3.832 12.785,-7.304 19.656,-9.59 14.02,-4.691 18.852,-4.765 37.391,-4.683 14.777,0.066 19.98,1.101 32.937,0.445 16.442,-0.644 21.887,-4.25 36.551,-0.719 14.274,3.434 22.399,7.446 32.555,12.309 12.32,5.59 21.164,9.012 23.394,16.543 1.703,6.09 7.836,10.422 14.285,11.445 8.555,1.356 13.075,-1.301 16.559,-7.746 3.313,-6.121 3.117,-12.285 0.27,-16.691 -2.993,-4.633 -7.883,-7.266 -14.782,-7.77 -3.558,-0.262 -6.785,0.16 -11.207,-0.629 -4.632,-0.816 -13.617,-4.933 -25.328,-11.039 -7.926,-4.242 -13.117,-9.133 -31.906,-17.207 -19.418,-9.308 -22.313,-14.824 -28.777,-27.086 z"
                                   style="fill:#5a205a;fill-opacity:1;fill-rule:nonzero;stroke:#5a205a;stroke-width:2.45197;stroke-linecap:butt;stroke-linejoin:miter;stroke-miterlimit:4;stroke-dasharray:none;stroke-opacity:1"
                                   id="path1918" />
                                </g>
                              </g>
                            </g>
                          </g>
                        </g>
                      </g>
                    </g>
                    <g
                       id="g1930"
                       transform="translate(-3.321)" />
                  </g>
                </g>
              </g>
              <g
                 id="g1932"
                 transform="translate(-99.56,51.558)" />
            </g>
          </g>
          <g
             id="g1934" />
          <g
             id="g1936" />
          <g
             id="g1938" />
          <g
             id="g1940" />
          <g
             id="g1942" />
          <g
             id="g1944" />
          <g
             id="g1946" />
          <g
             id="g1948">
            <g
               id="g1950"
               transform="matrix(0.34203,-0.9397,0.9397,0.34203,130.113,23.587)">
              <g
                 id="g1952">
                <g
                   id="g1954"
                   transform="scale(1.3)">
                  <g
                     id="g1956"
                     transform="translate(3.321)">
                    <g
                       id="g1958"
                       transform="scale(0.20125)">
                      <g
                         id="g1960">
                        <g
                           id="g1962" />
                        <g
                           id="g1978">
                          <g
                             clip-path="url(#clipPath1966)"
                             id="g1976">
                            <g
                               transform="matrix(1,0,0,-1,0,172.14323)"
                               id="g1974">
                              <g
                                 id="g1972">
                                <g
                                   id="g1970">
                                <path
                                   d="M 166.309,82.406 C 161.73,73.723 153.824,65.82 133.402,62.023 118.379,59.227 107.277,55.387 103.109,48.074 c -4.578,-8.031 -4.3,-11.398 -4.062,-18.715 0.18,-3.531 0.789,-9.058 1.976,-11.023 1.711,-2.832 2.848,-5.832 2.665,-9.094 -0.368,-4.531 -3.395,-8.121 -9.426,-8.015 -6.473,0.117 -10.137,2.461 -10.524,7.839 -0.476,6.68 1.578,7.379 3.043,12.954 0.996,3.488 0.907,8.71 0.196,13.988 -0.84,6.234 -0.309,8.586 -3.086,16.965 -3.461,10.445 -6.282,15.625 -28.493,16.984 -21.847,1.34 -22.929,1.996 -29.503,2.367 -5.473,0.313 -6.758,0.227 -9.602,-0.844 -3.172,-1.406 -4.508,-1.519 -8.281,-1.55 -4.446,0.144 -6.871,5.718 -6.785,9.937 0.093,4.379 2.128,10.18 6.664,10.594 4.226,0.383 6.191,-0.461 7.957,-1.957 1.976,-1.578 4.488,-1.668 6.75,-1.82 2.8,-0.184 5.933,-0.446 13.156,0.109 7.695,0.59 10.156,1.867 12.578,4.113 5.867,5.434 11.781,10.11 12.723,16.895 1.066,7.719 -3.055,15.941 -7.278,25.019 -3.082,6.621 -3.515,7.121 -6.277,9.254 -3.137,2.418 -5.164,3.012 -7.781,3.809 -3.172,0.949 -6.403,2.297 -8.27,6.281 -2.137,3.707 -1.375,7.863 1.172,11.484 3.227,4.594 10.688,4.75 14.715,1.758 3.066,-2.281 3.644,-5.105 5.234,-9.281 1.637,-4.484 5.352,-7.516 12.141,-11.301 6.875,-3.832 12.785,-7.304 19.656,-9.59 14.02,-4.691 18.852,-4.765 37.391,-4.683 14.777,0.066 19.98,1.101 32.937,0.445 16.442,-0.644 21.887,-4.25 36.551,-0.719 14.274,3.434 22.399,7.446 32.555,12.309 12.32,5.59 21.164,9.012 23.394,16.543 1.703,6.09 7.836,10.422 14.285,11.445 8.555,1.356 13.075,-1.301 16.559,-7.746 3.313,-6.121 3.117,-12.285 0.27,-16.691 -2.993,-4.633 -7.883,-7.266 -14.782,-7.77 -3.558,-0.262 -6.785,0.16 -11.207,-0.629 -4.632,-0.816 -13.617,-4.933 -25.328,-11.039 -7.926,-4.242 -13.117,-9.133 -31.906,-17.207 -19.418,-9.308 -22.313,-14.824 -28.777,-27.086 z"
                                   style="fill:#5a205a;fill-opacity:1;fill-rule:nonzero;stroke:#5a205a;stroke-width:2.45197;stroke-linecap:butt;stroke-linejoin:miter;stroke-miterlimit:4;stroke-dasharray:none;stroke-opacity:1"
                                   id="path1968" />
                                </g>
                              </g>
                            </g>
                          </g>
                        </g>
                      </g>
                    </g>
                    <g
                       id="g1980"
                       transform="translate(-3.321)" />
                  </g>
                </g>
              </g>
              <g
                 id="g1982"
                 transform="translate(-130.113,-23.587)" />
            </g>
          </g>
          <g
             id="g1984" />
          <g
             id="g1986" />
          <g
             id="g1988" />
          <g
             id="g1990" />
          <g
             id="g1992" />
          <g
             id="g1994" />
          <g
             id="g1996">
            <g
               id="g1998">
              <path
                 d="M 76.6594,101.50542 C 49.06818,106.37035 33.69038,131.39513 7.61209,121.16039"
                 style="fill:none;stroke:#ffffff;stroke-width:1.99255;stroke-linecap:round;stroke-linejoin:miter;stroke-miterlimit:10;stroke-dasharray:none;stroke-opacity:1"
                 id="path2000" />
            </g>
          </g>
          <g
             id="g2002">
            <path
               d="M 76.6594,101.50542 C 49.06818,106.37035 33.69038,131.39513 7.61209,121.16039"
               style="fill:none;stroke:#000000;stroke-width:0.99628;stroke-linecap:round;stroke-linejoin:miter;stroke-miterlimit:10;stroke-dasharray:none;stroke-opacity:1"
               id="path2004" />
          </g>
          <g
             id="g2006">
            <g
               id="g2008">
              <path
                 d="M -59.28116,101.11801 C -78.7435,83.94234 -116.90115,114.18314 -124.5522,89.37859"
                 style="fill:none;stroke:#ffffff;stroke-width:1.99255;stroke-linecap:round;stroke-linejoin:miter;stroke-miterlimit:10;stroke-dasharray:none;stroke-opacity:1"
                 id="path2010" />
            </g>
          </g>
          <g
             id="g2012">
            <path
               d="M -59.28116,101.11801 C -78.7435,83.94234 -116.90115,114.18314 -124.5522,89.37859"
               style="fill:none;stroke:#000000;stroke-width:0.99628;stroke-linecap:round;stroke-linejoin:miter;stroke-miterlimit:10;stroke-dasharray:none;stroke-opacity:1"
               id="path2014" />
          </g>
          <g
             id="g2016">
            <g
               id="g2018">
              <path
                 d="m -150.58728,24.5835 c 0.71034,-14.24016 -20.36498,-22.50623 -12.33351,-34.28656"
                 style="fill:none;stroke:#ffffff;stroke-width:1.99255;stroke-linecap:round;stroke-linejoin:miter;stroke-miterlimit:10;stroke-dasharray:none;stroke-opacity:1"
                 id="path2020" />
            </g>
          </g>
          <g
             id="g2022">
            <path
               d="m -150.58728,24.5835 c 0.71034,-14.24016 -20.36498,-22.50623 -12.33351,-34.28656"
               style="fill:none;stroke:#000000;stroke-width:0.99628;stroke-linecap:round;stroke-linejoin:miter;stroke-miterlimit:10;stroke-dasharray:none;stroke-opacity:1"
               id="path2024" />
          </g>
          <g
             id="g2026">
            <g
               id="g2028">
              <path
                 d="m -128.49582,-70.45816 c 18.62154,-13.38776 27.01859,-29.30784 49.88876,-31.02164"
                 style="fill:none;stroke:#ffffff;stroke-width:1.99255;stroke-linecap:round;stroke-linejoin:miter;stroke-miterlimit:10;stroke-dasharray:none;stroke-opacity:1"
                 id="path2030" />
            </g>
          </g>
          <g
             id="g2032">
            <path
               d="m -128.49582,-70.45816 c 18.62154,-13.38776 27.01859,-29.30784 49.88876,-31.02164"
               style="fill:none;stroke:#000000;stroke-width:0.99628;stroke-linecap:round;stroke-linejoin:miter;stroke-miterlimit:10;stroke-dasharray:none;stroke-opacity:1"
               id="path2034" />
          </g>
          <g
             id="g2036">
            <g
               id="g2038">
              <path
                 d="m -9.64252,-112.44681 c 28.09027,7.90303 54.69324,-25.78282 74.54164,-4.39149"
                 style="fill:none;stroke:#ffffff;stroke-width:1.99255;stroke-linecap:round;stroke-linejoin:miter;stroke-miterlimit:10;stroke-dasharray:none;stroke-opacity:1"
                 id="path2040" />
            </g>
          </g>
          <g
             id="g2042">
            <path
               d="m -9.64252,-112.44681 c 28.09027,7.90303 54.69324,-25.78282 74.54164,-4.39149"
               style="fill:none;stroke:#000000;stroke-width:0.99628;stroke-linecap:round;stroke-linejoin:miter;stroke-miterlimit:10;stroke-dasharray:none;stroke-opacity:1"
               id="path2044" />
          </g>
          <g
             id="g2046">
            <g
               id="g2048">
              <path
                 d="m 116.46983,-69.75766 c 7.58697,17.9986 45.98358,6.22482 43.0728,25.53873"
                 style="fill:none;stroke:#ffffff;stroke-width:1.99255;stroke-linecap:round;stroke-linejoin:miter;stroke-miterlimit:10;stroke-dasharray:none;stroke-opacity:1"
                 id="path2050" />
            </g>
          </g>
          <g
             id="g2052">
            <path
               d="m 116.46983,-69.75766 c 7.58697,17.9986 45.98358,6.22482 43.0728,25.53873"
               style="fill:none;stroke:#000000;stroke-width:0.99628;stroke-linecap:round;stroke-linejoin:miter;stroke-miterlimit:10;stroke-dasharray:none;stroke-opacity:1"
               id="path2054" />
          </g>
          <g
             id="g2056">
            <g
               id="g2058">
              <path
                 d="m 154.88744,25.45992 c -7.82479,14.36878 -6.68218,28.06236 -20.85198,36.24343"
                 style="fill:none;stroke:#ffffff;stroke-width:1.99255;stroke-linecap:round;stroke-linejoin:miter;stroke-miterlimit:10;stroke-dasharray:none;stroke-opacity:1"
                 id="path2060" />
            </g>
          </g>
          <g
             id="g2062">
            <path
               d="m 154.88744,25.45992 c -7.82479,14.36878 -6.68218,28.06236 -20.85198,36.24343"
               style="fill:none;stroke:#000000;stroke-width:0.99628;stroke-linecap:round;stroke-linejoin:miter;stroke-miterlimit:10;stroke-dasharray:none;stroke-opacity:1"
               id="path2064" />
          </g>
        </g>
      </g>
    </g>
  </g>
</svg>
